<?xml version="1.0" encoding="utf-8"?>
<!-- Svg Vector Icons : http://www.onlinewebfonts.com/icon -->
<!DOCTYPE svg PUBLIC "-//W3C//DTD SVG 1.1//EN" "http://www.w3.org/Graphics/SVG/1.1/DTD/svg11.dtd">
<svg version="1.1" xmlns="http://www.w3.org/2000/svg" xmlns:xlink="http://www.w3.org/1999/xlink" x="0px" y="0px" viewBox="0 0 1000 1000" enable-background="new 0 0 1000 1000" xml:space="preserve">
<style type="text/css">
	.st0{fill:#FFF;}
</style>
<metadata> Svg Vector Icons : http://www.onlinewebfonts.com/icon </metadata>
<g><path class="st0" d="M613.5,167.3c62.4,0,113.1,51.2,113.1,114.2c0,47.7-20.7,120.2-51.5,152.1l-2.5,2.6c-30.2,30.1-40.4,45.1-40.4,59.4c0,26.3,18.7,49.1,46.8,54.7c73.6,7.4,117.6,28.7,152.2,73.8l36.8-28.1c-42.6-55.7-97.8-83.2-182-91.5c-3.3-0.7-5.9-3.1-6.9-6.2c2.5-3.7,9-12.1,26.3-29.4l2.2-2.3c0.4-0.4,0.8-0.8,1.1-1.2c44.3-46.1,64.2-135.2,64.2-183.9c0-88.5-71.6-160.5-159.5-160.5c-19.4,0-38.7,3.6-57.2,10.8l16.7,43.2C586.1,169.9,599.8,167.3,613.5,167.3 M684,672C630.2,601.7,560.3,567,452.7,556.3c-7.8-1.6-13.8-8-14.8-15.8c2.2-4,9.9-15.1,36.3-41.4c1.5-1.4,2.7-2.8,3.8-4.3l0.1,0.2c53-54.8,81.6-158.6,81.6-228.6c0-110.7-89.4-200.7-199.4-200.7c-109.9,0-199.4,90-199.4,200.7c0,70.8,28.5,175.3,82.3,230.3c17.6,16.3,35.2,35.8,39.6,43.8c-1.1,8.4-7.7,15.2-16,16.2C158.9,568,90.1,602.5,36.8,672c-18.5,24-26.3,66.4-26.8,88.9c0.1,5.9,0,83.1,0,83.1c0,49.8,40.5,90.3,90.3,90.3h520.2c49.8,0,90.3-40.5,90.3-90.4c0,0-0.1-77.4,0-84.5C710.2,738.4,702.4,696,684,672 M664.5,844c0,24.2-19.8,44-44,44H100.3c-24.3,0-44-19.7-44-43.9c0,0,0.2-79.7,0-83.3c0.5-18.6,7.9-48.5,17.2-60.5c45.4-59.2,102.8-87.4,198.6-97.5c32.6-4,57.3-31.7,57.3-64.6c0-6.8,0-24.9-53.7-74.6c-42.7-43.7-68.3-134.6-68.3-197.1c0-85.1,68.7-154.4,153-154.4c84.4,0,153,69.3,153,154.4c0,60.4-26.2,152.6-68.4,196.4l-3.4,3.5c-36.9,36.9-50.1,55.7-50.1,71.8c0,30.8,21.9,57.6,54.4,64c97.2,9.7,155.5,38.1,201.4,98.1c9.2,12,16.7,41.8,17.2,59.2C664.3,764.4,664.5,844,664.5,844 M961,771.9h-75.2v-75.3c0-16-10.4-28.9-23.2-28.9c-12.8,0-23.1,12.9-23.1,28.9v75.3h-75.3c-16,0-28.9,10.4-28.9,23.1c0,12.8,12.9,23.2,28.9,23.2h75.3v75.2c0,16,10.4,29,23.1,29c12.8,0,23.2-13,23.2-29v-75.2H961c16,0,29-10.4,29-23.2C990,782.3,977.1,771.9,961,771.9"/>
    <path class="st0"  d="M613.5,167.3c62.4,0,113.1,51.2,113.1,114.2c0,47.7-20.7,120.2-51.5,152.1l-2.5,2.6c-30.2,30.1-40.4,45.1-40.4,59.4c0,26.3,18.7,49.1,46.8,54.7c73.6,7.4,117.6,28.7,152.2,73.8l36.8-28.1c-42.6-55.7-97.8-83.2-182-91.5c-3.3-0.7-5.9-3.1-6.9-6.2c2.5-3.7,9-12.1,26.3-29.4l2.2-2.3c0.4-0.4,0.8-0.8,1.1-1.2c44.3-46.1,64.2-135.2,64.2-183.9c0-88.5-71.6-160.5-159.5-160.5c-19.4,0-38.7,3.6-57.2,10.8l16.7,43.2C586.1,169.9,599.8,167.3,613.5,167.3 M684,672C630.2,601.7,560.3,567,452.7,556.3c-7.8-1.6-13.8-8-14.8-15.8c2.2-4,9.9-15.1,36.3-41.4c1.5-1.4,2.7-2.8,3.8-4.3l0.1,0.2c53-54.8,81.6-158.6,81.6-228.6c0-110.7-89.4-200.7-199.4-200.7c-109.9,0-199.4,90-199.4,200.7c0,70.8,28.5,175.3,82.3,230.3c17.6,16.3,35.2,35.8,39.6,43.8c-1.1,8.4-7.7,15.2-16,16.2C158.9,568,90.1,602.5,36.8,672c-18.5,24-26.3,66.4-26.8,88.9c0.1,5.9,0,83.1,0,83.1c0,49.8,40.5,90.3,90.3,90.3h520.2c49.8,0,90.3-40.5,90.3-90.4c0,0-0.1-77.4,0-84.5C710.2,738.4,702.4,696,684,672 M664.5,844c0,24.2-19.8,44-44,44H100.3c-24.3,0-44-19.7-44-43.9c0,0,0.2-79.7,0-83.3c0.5-18.6,7.9-48.5,17.2-60.5c45.4-59.2,102.8-87.4,198.6-97.5c32.6-4,57.3-31.7,57.3-64.6c0-6.8,0-24.9-53.7-74.6c-42.7-43.7-68.3-134.6-68.3-197.1c0-85.1,68.7-154.4,153-154.4c84.4,0,153,69.3,153,154.4c0,60.4-26.2,152.6-68.4,196.4l-3.4,3.5c-36.9,36.9-50.1,55.7-50.1,71.8c0,30.8,21.9,57.6,54.4,64c97.2,9.7,155.5,38.1,201.4,98.1c9.2,12,16.7,41.8,17.2,59.2C664.3,764.4,664.5,844,664.5,844 M961,771.9h-75.2v-75.3c0-16-10.4-28.9-23.2-28.9c-12.8,0-23.1,12.9-23.1,28.9v75.3h-75.3c-16,0-28.9,10.4-28.9,23.1c0,12.8,12.9,23.2,28.9,23.2h75.3v75.2c0,16,10.4,29,23.1,29c12.8,0,23.2-13,23.2-29v-75.2H961c16,0,29-10.4,29-23.2C990,782.3,977.1,771.9,961,771.9"/>
    <path class="st0" d="M613.5,167.3c62.4,0,113.1,51.2,113.1,114.2c0,47.7-20.7,120.2-51.5,152.1l-2.5,2.6c-30.2,30.1-40.4,45.1-40.4,59.4c0,26.3,18.7,49.1,46.8,54.7c73.6,7.4,117.6,28.7,152.2,73.8l36.8-28.1c-42.6-55.7-97.8-83.2-182-91.5c-3.3-0.7-5.9-3.1-6.9-6.2c2.5-3.7,9-12.1,26.3-29.4l2.2-2.3c0.4-0.4,0.8-0.8,1.1-1.2c44.3-46.1,64.2-135.2,64.2-183.9c0-88.5-71.6-160.5-159.5-160.5c-19.4,0-38.7,3.6-57.2,10.8l16.7,43.2C586.1,169.9,599.8,167.3,613.5,167.3 M684,672C630.2,601.7,560.3,567,452.7,556.3c-7.8-1.6-13.8-8-14.8-15.8c2.2-4,9.9-15.1,36.3-41.4c1.5-1.4,2.7-2.8,3.8-4.3l0.1,0.2c53-54.8,81.6-158.6,81.6-228.6c0-110.7-89.4-200.7-199.4-200.7c-109.9,0-199.4,90-199.4,200.7c0,70.8,28.5,175.3,82.3,230.3c17.6,16.3,35.2,35.8,39.6,43.8c-1.1,8.4-7.7,15.2-16,16.2C158.9,568,90.1,602.5,36.8,672c-18.5,24-26.3,66.4-26.8,88.9c0.1,5.9,0,83.1,0,83.1c0,49.8,40.5,90.3,90.3,90.3h520.2c49.8,0,90.3-40.5,90.3-90.4c0,0-0.1-77.4,0-84.5C710.2,738.4,702.4,696,684,672 M664.5,844c0,24.2-19.8,44-44,44H100.3c-24.3,0-44-19.7-44-43.9c0,0,0.2-79.7,0-83.3c0.5-18.6,7.9-48.5,17.2-60.5c45.4-59.2,102.8-87.4,198.6-97.5c32.6-4,57.3-31.7,57.3-64.6c0-6.8,0-24.9-53.7-74.6c-42.7-43.7-68.3-134.6-68.3-197.1c0-85.1,68.7-154.4,153-154.4c84.4,0,153,69.3,153,154.4c0,60.4-26.2,152.6-68.4,196.4l-3.4,3.5c-36.9,36.9-50.1,55.7-50.1,71.8c0,30.8,21.9,57.6,54.4,64c97.2,9.7,155.5,38.1,201.4,98.1c9.2,12,16.7,41.8,17.2,59.2C664.3,764.4,664.5,844,664.5,844 M961,771.9h-75.2v-75.3c0-16-10.4-28.9-23.2-28.9c-12.8,0-23.1,12.9-23.1,28.9v75.3h-75.3c-16,0-28.9,10.4-28.9,23.1c0,12.8,12.9,23.2,28.9,23.2h75.3v75.2c0,16,10.4,29,23.1,29c12.8,0,23.2-13,23.2-29v-75.2H961c16,0,29-10.4,29-23.2C990,782.3,977.1,771.9,961,771.9"/></g>
</svg>