<?xml version="1.0" encoding="utf-8"?>
<!-- Svg Vector Icons : http://www.onlinewebfonts.com/icon -->
<!DOCTYPE svg PUBLIC "-//W3C//DTD SVG 1.1//EN" "http://www.w3.org/Graphics/SVG/1.1/DTD/svg11.dtd">
<svg version="1.1" xmlns="http://www.w3.org/2000/svg" xmlns:xlink="http://www.w3.org/1999/xlink" x="0px" y="0px" viewBox="0 0 1000 1000" enable-background="new 0 0 1000 1000" xml:space="preserve">
<metadata> Svg Vector Icons : http://www.onlinewebfonts.com/icon </metadata>
<g><path d="M165.9,633.6h400.9c13.4,0,22.3-8.9,22.3-22.3c0-13.4-8.9-22.3-22.3-22.3H165.9c-13.4,0-22.3,8.9-22.3,22.3S152.5,633.6,165.9,633.6z M945.5,143.6H54.5c-24.5,0-44.5,20-44.5,44.5v623.6c0,24.5,20,44.5,44.5,44.5h890.9c24.5,0,44.5-20,44.5-44.5V188.2C990,163.7,970,143.6,945.5,143.6z M945.5,811.8H54.5V455.5h890.9V811.8z M945.5,277.3H54.5v-89.1h890.9V277.3z M745,722.7h89.1c13.4,0,22.3-8.9,22.3-22.3v-89.1c0-13.4-8.9-22.3-22.3-22.3H745c-13.4,0-22.3,8.9-22.3,22.3v89.1C722.7,713.8,731.6,722.7,745,722.7z M165.9,722.7h311.8c13.4,0,22.3-8.9,22.3-22.3c0-13.4-8.9-22.3-22.3-22.3H165.9c-13.4,0-22.3,8.9-22.3,22.3C143.6,713.8,152.5,722.7,165.9,722.7z"/></g>
</svg>