<?xml version="1.0" encoding="UTF-8"?>
<!DOCTYPE svg PUBLIC "-//W3C//DTD SVG 1.1//EN" "http://www.w3.org/Graphics/SVG/1.1/DTD/svg11.dtd">
<!-- Creator: CorelDRAW 2018 (64-Bit) -->
<svg xmlns="http://www.w3.org/2000/svg" xml:space="preserve" width="100mm" height="100mm" version="1.1" style="shape-rendering:geometricPrecision; text-rendering:geometricPrecision; image-rendering:optimizeQuality; fill-rule:evenodd; clip-rule:evenodd"
viewBox="2488 2488 5050 5050"
 xmlns:xlink="http://www.w3.org/1999/xlink">
 <defs>
  <style type="text/css">
   <![CDATA[
    .fil0 {fill:black}
    .fil1 {fill:white}
   ]]>
  </style>
 </defs>
 <g id="Слой_x0020_1">
  <metadata id="CorelCorpID_0Corel-Layer"/>
  <path class="fil0" d="M7209.76 2790.21c-200.95,-200.95 -442.94,-301.42 -725.89,-301.42l-2967.77 0c-282.95,0 -524.93,100.47 -725.9,301.42 -200.91,200.97 -301.39,442.9 -301.39,725.9l0 2967.78c0,282.94 100.48,524.9 301.39,725.89 200.97,200.96 442.94,301.43 725.9,301.43l2967.77 0c282.95,0 524.87,-100.47 725.9,-301.43 200.96,-200.99 301.42,-442.94 301.42,-725.89l0 -2967.78c-0.05,-282.95 -100.52,-524.93 -301.43,-725.9z"/>
  <g id="_1007519584">
   <g>
    <g>
     <path class="fil1" d="M6740.13 3736.03c-70,-70.01 -183.5,-70.01 -253.51,0l-2147.69 2147.71 -825.53 -825.54c-70.01,-70.01 -183.5,-70 -253.52,0 -70.01,70 -70.01,183.5 0,253.51l952.29 952.28c69.99,70 183.57,69.96 253.52,0l2274.44 -2274.44c70.01,-70 70.01,-183.51 0,-253.52z"/>
    </g>
   </g>
   <g>
   </g>
   <g>
   </g>
   <g>
   </g>
   <g>
   </g>
   <g>
   </g>
   <g>
   </g>
   <g>
   </g>
   <g>
   </g>
   <g>
   </g>
   <g>
   </g>
   <g>
   </g>
   <g>
   </g>
   <g>
   </g>
   <g>
   </g>
   <g>
   </g>
  </g>
 </g>
</svg>
