<?xml version="1.0" encoding="utf-8"?>
<!-- Svg Vector Icons : http://www.onlinewebfonts.com/icon -->
<!DOCTYPE svg PUBLIC "-//W3C//DTD SVG 1.1//EN" "http://www.w3.org/Graphics/SVG/1.1/DTD/svg11.dtd">
<svg version="1.1" xmlns="http://www.w3.org/2000/svg" xmlns:xlink="http://www.w3.org/1999/xlink" x="0px" y="0px" viewBox="0 0 1000 1000" enable-background="new 0 0 1000 1000" xml:space="preserve">
<defs>
  <style type="text/css">
   <![CDATA[
    .class1 {fill: #3f8be2}
   ]]>
  </style>
 </defs>
<g>
    <path class="class1" d="M833.4,10H166.6C80.3,10,10,80.3,10,166.6v666.8C10,919.7,80.3,990,166.6,990h666.8c86.4,0,156.6-70.3,156.6-156.6V166.6C990,80.3,919.7,10,833.4,10L833.4,10z M924.5,833.4c0,50.2-40.9,91.1-91.1,91.1H166.6c-50.2,0-91.1-40.9-91.1-91.1V166.6c0-50.2,40.9-91.1,91.1-91.1h666.8c50.2,0,91.1,40.9,91.1,91.1L924.5,833.4L924.5,833.4z"/>
    <path class="class1" d="M857.9,185.9L773,125.5c-5.9-4.2-14.1-2.8-18.2,3.1l-3.8,5.3l0,0l-12.7,18L641,288.3c-0.6,0.9-1.1,1.8-1.5,2.8L374.1,665.4l-78.6-98.8l-59.9-75.5c-4.5-5.6-12.7-6.6-18.4-2.1l-82,65c-5.6,4.5-6.6,12.7-2.1,18.4l9.2,11.6l-0.1,0.1l42.7,53.6l51.9,65.4c0.4,0.5,0.8,0.9,1.2,1.3c0,0,98.1,123.2,125.4,157.6c7.7,10.8,23.8,10.2,32.2-0.7c56.7-79.9,462.1-651.8,462.1-651.8l-0.3-0.2l3.6-5.1C865.1,198.3,863.8,190.1,857.9,185.9L857.9,185.9z"/>
</g>
</svg>