<?xml version="1.0" encoding="utf-8"?>
<!-- Svg Vector Icons : http://www.onlinewebfonts.com/icon -->
<!DOCTYPE svg PUBLIC "-//W3C//DTD SVG 1.1//EN" "http://www.w3.org/Graphics/SVG/1.1/DTD/svg11.dtd">
<svg version="1.1" xmlns="http://www.w3.org/2000/svg" xmlns:xlink="http://www.w3.org/1999/xlink" x="0px" y="0px" viewBox="0 0 1000 1000" enable-background="new 0 0 1000 1000" xml:space="preserve">
<defs>
  <style type="text/css">
   <![CDATA[
    .class1 {fill:white}
   ]]>
  </style>
 </defs>
<g><g transform="translate(0.000000,511.000000) scale(0.100000,-0.100000)"><path class="class1" d="M2152.7,4833c-35.8-21.1-88.5-71.7-115.9-111.7l-50.6-69.5l-6.3-1595.4l-4.2-1597.5h179.1H2334v1528v1528H4589h2255V110v-4404.7h-853.5H5137v-179.1V-4653h1032.7h1032.7L7198.1,2.5l-6.3,4657.6l-44.2,59c-23.2,31.6-75.9,80.1-113.8,107.5l-69.6,46.4H4591.1C2298.1,4873,2216,4870.9,2152.7,4833z"/><path class="class1" d="M3071.6,3482v-400.4h179.1h179.1V3482v400.4h-179.1h-179.1V3482z"/><path class="class1"  d="M4420.4,3482v-400.4h179.1h179.1V3482v400.4h-179.1h-179.1V3482z"/><path class="class1" d="M5769.2,3482v-400.4h179.1h179.1V3482v400.4h-179.1h-179.1V3482z"/><path class="class1" d="M7560.6,3345v-179.1h238.1h236.1l754.5-754.5c413.1-413.1,752.4-758.7,752.4-767.1c0-6.3-59-10.5-130.7-10.5c-73.8,2.1-520.6,2.1-992.6-2.1l-859.9-4.2l6.3-172.8l6.3-174.9l849.3-6.3l847.2-4.2v-2781.9v-2781.9h-853.6h-853.5v-179.1V-4653h885.2c849.3,0,889.4,2.1,971.6,42.1c44.3,23.2,111.7,82.2,145.4,130.7l63.2,86.4v2832.5c0,2042.2,6.3,2830.4,23.2,2830.4c56.9,0,174.9,75.9,210.8,134.9c29.5,50.6,40,105.4,40,233.9v168.6l-826.2,826.2c-564.8,562.7-853.6,836.7-906.2,859.9c-56.9,23.2-153.8,31.6-343.5,31.6h-263.4V3345z"/><path class="class1" d="M3071.6,2133.2v-400.4h179.1h179.1v400.4v400.4h-179.1h-179.1V2133.2z"/><path class="class1" d="M4420.4,2133.2v-400.4h179.1h179.1v400.4v400.4h-179.1h-179.1V2133.2z"/><path class="class1" d="M5769.2,2133.2v-400.4h179.1h179.1v400.4v400.4h-179.1h-179.1V2133.2z"/><path class="class1" d="M1174.8,1416.7v-316.1H886.1c-160.2,0-326.7-10.5-370.9-23.2c-54.8-14.7-137-73.8-248.7-181.3L100,735.9v-2548c0-2457.4,2.1-2550.1,40-2626c46.4-88.5,90.6-132.8,185.5-181.3c61.1-29.5,280.3-33.7,2261.4-33.7h2191.8v2682.9V710.6l-196,196l-193.9,193.9H2959.9H1533.1v316.1v316.1H1354h-179.1V1416.7z M4334,647.4l86.4-94.8V289.1V25.7H2439.4H458.3v282.4v282.4l84.3,75.9l84.3,75.9h1810.4h1808.3L4334,647.4z M4416.2-2317.9l4.2-1976.8H3113.8H1807.1v853.5v853.6H1628h-179.1v-853.6v-853.5H953.5H458.3v1981.1v1981.1l1976.9-4.2l1974.8-6.3L4416.2-2317.9z"/><path class="class1" d="M1448.8-1502.3v-537.4H1628h179.1v537.4v537.4H1628h-179.1V-1502.3z"/><path class="class1" d="M2797.6-1502.3v-537.4h179.1h179.1v537.4v537.4h-179.1h-179.1V-1502.3z"/><path class="class1" d="M2797.6-3125.1v-537.4h179.1h179.1v537.4v537.4h-179.1h-179.1V-3125.1z"/><path class="class1" d="M5769.2,784.4V384h179.1h179.1v400.4v400.4h-179.1h-179.1V784.4z"/><path class="class1" d="M7929.5,630.6c-6.3-14.8-8.4-259.2-6.3-541.6l6.3-516.3l174.9-6.3l172.8-6.3V110v548h-168.6C7990.6,658,7935.8,649.5,7929.5,630.6z"/><path class="class1" d="M5769.2-564.4v-400.4h179.1h179.1v400.4V-164h-179.1h-179.1V-564.4z"/><path class="class1" d="M7933.7-979.6c-8.4-6.3-14.8-252.9-14.8-548v-533.2h179.1h179.1v548v547.9h-164.4C8022.2-964.8,7940-971.2,7933.7-979.6z"/><path class="class1" d="M5769.2-1913.2v-400.4h179.1h179.1v400.4v400.4h-179.1h-179.1V-1913.2z"/><path class="class1" d="M7933.7-2602.4c-8.4-6.3-14.8-248.7-14.8-537.4v-522.7h179.1h179.1v537.4v537.4h-164.4C8022.2-2587.6,7940-2594,7933.7-2602.4z"/><path class="class1" d="M5769.2-3262.1v-400.4h179.1h179.1v400.4v400.4h-179.1h-179.1V-3262.1z"/></g></g>
</svg>