<?xml version="1.0" encoding="utf-8"?>
<!-- Svg Vector Icons : http://www.onlinewebfonts.com/icon -->
<!DOCTYPE svg PUBLIC "-//W3C//DTD SVG 1.1//EN" "http://www.w3.org/Graphics/SVG/1.1/DTD/svg11.dtd">
<svg version="1.1" xmlns="http://www.w3.org/2000/svg" xmlns:xlink="http://www.w3.org/1999/xlink" x="0px" y="0px" viewBox="0 0 1000 1000" enable-background="new 0 0 1000 1000" xml:space="preserve">
 <defs>
  <style type="text/css">
   <![CDATA[
    .fill {fill:#444}
   ]]>
  </style>
 </defs>
<g>
    <path class="fill" d="M160.1,23.2l764.8,858.3c15.6,17.6,15.6,46,0,63.6l-28.3,31.8c-15.6,17.6-41,17.6-56.6,0L75.1,118.5c-15.6-17.6-15.6-46,0-63.6l28.3-31.8C119.1,5.6,144.4,5.6,160.1,23.2L160.1,23.2z"/>
    <path class="fill" d="M924.9,118.5L160.1,976.8c-15.6,17.6-41,17.6-56.6,0L75.1,945c-15.6-17.6-15.6-46,0-63.6L839.9,23.2c15.6-17.6,41-17.6,56.6,0L924.9,55C940.6,72.5,940.6,101,924.9,118.5L924.9,118.5z"/>
    <path class="fill" d="M483.5,491.3l21.9,21.9c0.4,0.4,0.4,1.2,0,1.6l-0.8,0.8c-0.4,0.4-1.2,0.4-1.6,0l-21.9-21.9c-0.4-0.4-0.4-1.2,0-1.6l0.8-0.8C482.4,490.8,483.1,490.8,483.5,491.3z"/>
    <path class="fill" d="M505.5,493.7l-21.9,21.9c-0.4,0.4-1.2,0.4-1.6,0l-0.8-0.8c-0.4-0.4-0.4-1.2,0-1.6l21.9-21.9c0.4-0.4,1.2-0.4,1.6,0l0.8,0.8C505.9,492.5,505.9,493.3,505.5,493.7z"/>
</g>
</svg>