<?xml version="1.0" encoding="utf-8"?>
<!-- Svg Vector Icons : http://www.onlinewebfonts.com/icon -->
<!DOCTYPE svg PUBLIC "-//W3C//DTD SVG 1.1//EN" "http://www.w3.org/Graphics/SVG/1.1/DTD/svg11.dtd">
<svg version="1.1" xmlns="http://www.w3.org/2000/svg" xmlns:xlink="http://www.w3.org/1999/xlink" x="0px" y="0px" viewBox="0 0 1000 1000" enable-background="new 0 0 1000 1000" xml:space="preserve">
<defs>
  <style type="text/css">
   <![CDATA[
    .class1 {fill:white}
   ]]>
  </style>
 </defs>
    <g><path class="class1" d="M242.9,300h23.2c10.7,0,21.9,8.3,25,18.5l13.3,32.4c5,9.4,3,23.2-4.5,30.7l-16.5,16.4c-7.5,7.5-7.5,19.8,0,27.4l27.4,27.4c7.5,7.5,19.8,7.5,27.3,0l16.5-16.5c7.5-7.5,21.3-9.5,30.6-4.5l32.4,13.3c10.2,3.2,18.4,14.4,18.4,25.1v23.1c0,10.6,8.7,19.3,19.4,19.3h38.7c10.6,0,19.3-8.7,19.3-19.3v-23.1c0-10.7,8.3-21.9,18.5-25.1l32.4-13.3c9.4-5.1,23.2-3,30.8,4.5l16.4,16.5c7.6,7.5,19.8,7.5,27.4,0l27.4-27.4c7.6-7.5,7.6-19.8,0-27.4l-16.4-16.4c-7.5-7.5-9.6-21.3-4.5-30.7l13.3-32.4c3.2-10.1,14.5-18.4,25.1-18.4h23.2c10.6,0,19.3-8.7,19.3-19.3v-38.7c0-10.6-8.7-19.3-19.3-19.3h-23.2c-10.7,0-21.9-8.3-25.1-18.5l-13.3-32.4c-5-9.3-3-23.2,4.5-30.7l16.4-16.4c7.6-7.6,7.6-19.9,0-27.4l-27.4-27.3c-7.5-7.5-19.8-7.5-27.4,0l-16.4,16.4c-7.5,7.5-21.3,9.6-30.7,4.5L532,77.6c-10.1-3.1-18.5-14.4-18.5-25.1V29.3c0-10.6-8.7-19.3-19.3-19.3h-38.7c-10.7,0-19.4,8.7-19.4,19.3v23.2c0,10.6-8.3,21.9-18.4,25.1l-32.4,13.3c-9.4,5-23.2,3-30.7-4.5l-16.5-16.4c-7.5-7.5-19.8-7.5-27.3,0l-27.3,27.3c-7.5,7.5-7.5,19.8,0,27.4l16.4,16.4c7.5,7.5,9.6,21.3,4.5,30.7l-13.3,32.4c-3.2,10.2-14.4,18.5-25.1,18.5l-23.2,0c-10.6,0-19.4,8.7-19.4,19.3v38.7C223.6,291.2,232.3,300,242.9,300z M474.9,164.6c53.4,0,96.7,43.3,96.7,96.7c0,53.4-43.3,96.6-96.7,96.6c-53.4,0-96.7-43.3-96.7-96.6C378.3,207.9,421.5,164.6,474.9,164.6z M801.6,738.7V562.8H173.3v175.9H47.7V990h351.8V738.7H223.6V638.2h527.7v100.5H600.5V990h351.8V738.7H801.6z"/></g>
</svg>