<svg height="512pt" viewBox="-30 0 512 512" width="512pt" xmlns="http://www.w3.org/2000/svg">
<defs>
  <style type="text/css">
   <![CDATA[
    .class1 {fill:white}
   ]]>
  </style>
 </defs>
 <path class="class1" d="m269.628906 426.496094c1.269532 2.539062 3.867188 4.148437 6.710938 4.148437h63.371094c4.140624 0 7.5-3.359375 7.5-7.5 0-4.144531-3.359376-7.5-7.5-7.5h-48.363282l54.359375-72.386719c1.707031-2.273437 1.980469-5.316406.710938-7.855468-1.269531-2.542969-3.867188-4.148438-6.707031-4.148438h-63.371094c-4.144532 0-7.5 3.359375-7.5 7.5 0 4.144532 3.355468 7.5 7.5 7.5h48.359375l-54.359375 72.386719c-1.707032 2.269531-1.980469 5.3125-.710938 7.855469zm151.089844-253.40625c16.9375 0 30.71875-13.78125 30.71875-30.71875v-39.585938c0-16.9375-13.78125-30.71875-30.71875-30.71875h-23.398438v-17.480468c0-30.097657-24.484374-54.585938-54.585937-54.585938h-288.148437c-30.097657 0-54.585938 24.488281-54.585938 54.585938v11.578124c0 4.144532 3.355469 7.5 7.5 7.5s7.5-3.355468 7.5-7.5v-11.578124c0-21.828126 17.757812-39.585938 39.585938-39.585938h13.136718v482h-13.136718c-21.828126 0-39.585938-17.757812-39.585938-39.585938v-356.011718c0-4.144532-3.355469-7.5-7.5-7.5s-7.5 3.355468-7.5 7.5v356.011718c0 30.097657 24.488281 54.585938 54.585938 54.585938h288.148437c22.363281 0 42.234375-13.398438 50.621094-34.128906 1.554687-3.839844-.300781-8.210938-4.140625-9.765625-3.839844-1.550781-8.210938.300781-9.765625 4.140625-6.082031 15.035156-20.492188 24.753906-36.714844 24.753906h-260.011719v-482h260.011719c21.828125 0 39.585937 17.757812 39.585937 39.585938v385.246093c0 4.144531 3.359376 7.5 7.5 7.5 4.144532 0 7.5-3.355469 7.5-7.5v-25.640625h23.398438c16.9375 0 30.71875-13.78125 30.71875-30.71875v-39.585937c0-16.9375-13.78125-30.71875-30.71875-30.71875h-23.398438v-19.527344h23.398438c16.9375 0 30.71875-13.78125 30.71875-30.71875v-39.585937c0-16.9375-13.78125-30.71875-30.71875-30.71875h-23.398438v-19.527344zm-23.398438-86.023438h23.398438c8.667969 0 15.71875 7.050782 15.71875 15.71875v39.585938c0 8.667968-7.050781 15.71875-15.71875 15.71875h-23.398438zm23.398438 241.101563c8.667969 0 15.71875 7.054687 15.71875 15.71875v39.585937c0 8.667969-7.050781 15.71875-15.71875 15.71875h-23.398438v-71.019531h23.398438zm0-120.550781c8.667969 0 15.71875 7.054687 15.71875 15.71875v39.585937c0 8.667969-7.050781 15.71875-15.71875 15.71875h-23.398438v-71.023437zm-140.835938-60.441407c0-18.136719-14.503906-32.9375-32.523437-33.433593v-8.71875c0-4.140626-3.355469-7.5-7.5-7.5-4.140625 0-7.5 3.359374-7.5 7.5v8.695312h-15.421875v-9.390625c0-4.144531-3.355469-7.5-7.5-7.5-4.140625 0-7.5 3.355469-7.5 7.5v9.390625h-12.324219c-4.140625 0-7.5 3.355469-7.5 7.5 0 4.140625 3.359375 7.5 7.5 7.5h12.324219v36.914062h-12.324219c-4.140625 0-7.5 3.355469-7.5 7.5 0 4.140626 3.359375 7.5 7.5 7.5h12.324219v36.914063h-12.324219c-4.140625 0-7.5 3.355469-7.5 7.5 0 4.140625 3.359375 7.5 7.5 7.5h12.324219v9.386719c0 4.144531 3.359375 7.5 7.5 7.5 4.144531 0 7.5-3.355469 7.5-7.5v-9.386719h15.421875v8.691406c0 4.144531 3.359375 7.5 7.5 7.5 4.144531 0 7.5-3.355469 7.5-7.5v-8.71875c18.019531-.496093 32.523437-15.296875 32.523437-33.429687 0-10.464844-4.832031-19.816406-12.375-25.957032 7.542969-6.140624 12.375-15.492187 12.375-25.957031zm-33.457031 70.371094h-29.488281v-36.914063h29.488281c10.179688 0 18.457031 8.277344 18.457031 18.457032 0 10.175781-8.277343 18.457031-18.457031 18.457031zm0-51.914063h-29.488281v-36.914062h29.488281c10.179688 0 18.457031 8.277344 18.457031 18.457031 0 10.175781-8.277343 18.457031-18.457031 18.457031zm-29.742187 207.8125c-4.144532 0-7.5 3.359376-7.5 7.5 0 4.144532 3.355468 7.5 7.5 7.5h41.035156c4.144531 0 7.5-3.355468 7.5-7.5 0-4.140624-3.355469-7.5-7.5-7.5zm-56.859375-44.351562c-2.945313 0-5.617188 1.71875-6.832031 4.402344l-40.222657 88.710937c-1.710937 3.773438-.039062 8.21875 3.734375 9.929688 3.773438 1.707031 8.214844.035156 9.925782-3.734375l9.882812-21.796875h47.019531l9.882813 21.796875c1.253906 2.769531 3.980468 4.402344 6.835937 4.402344 1.035157 0 2.089844-.214844 3.09375-.667969 3.769531-1.710938 5.441407-6.15625 3.734375-9.929688l-40.226562-88.710937c-1.214844-2.683594-3.886719-4.402344-6.828125-4.402344zm-16.710938 62.511719 16.710938-36.851563 16.707031 36.851563zm195.445313-218.472657c0-60.050781-48.855469-108.90625-108.902344-108.90625-60.050781 0-108.902344 48.855469-108.902344 108.90625 0 60.050782 48.851563 108.902344 108.902344 108.902344 60.046875 0 108.902344-48.851562 108.902344-108.902344zm-108.90625 93.902344c-51.777344 0-93.902344-42.125-93.902344-93.902344 0-51.78125 42.125-93.90625 93.902344-93.90625 51.78125 0 93.90625 42.125 93.90625 93.90625 0 51.777344-42.125 93.902344-93.90625 93.902344zm0 0"/></svg>