<?xml version="1.0" encoding="utf-8"?>
<!-- Svg Vector Icons : http://www.onlinewebfonts.com/icon -->
<!DOCTYPE svg PUBLIC "-//W3C//DTD SVG 1.1//EN" "http://www.w3.org/Graphics/SVG/1.1/DTD/svg11.dtd">
<svg version="1.1" xmlns="http://www.w3.org/2000/svg" xmlns:xlink="http://www.w3.org/1999/xlink" x="0px" y="0px" viewBox="0 0 1000 1000" enable-background="new 0 0 1000 1000" xml:space="preserve">
<defs>
  <style type="text/css">
   <![CDATA[
    .class1 {fill:white}
   ]]>
  </style>
 </defs>
<g><g transform="translate(0.000000,511.000000) scale(0.100000,-0.100000)"><path class="class1" d="M1263.5,4982.4c-96.8-42.5-195.9-162.8-212.4-257.2c-7.1-42.5-9.4-1892.7-7.1-4115.7c7.1-4037.8,7.1-4040.2,56.6-4103.9c26-35.4,77.9-87.3,113.3-113.3c63.7-49.6,70.8-49.6,3223.7-49.6c3152.8,0,3159.9,0,3223.6,49.6c35.4,26,87.3,77.9,113.3,113.3l49.5,63.7V673.2v4103.9l-49.5,63.7c-26,35.4-77.9,87.3-113.3,113.3c-63.7,49.6-73.2,49.6-3195.3,54.3C1898.3,5013.1,1322.5,5008.4,1263.5,4982.4z M6455.3,3634.9c37.8-35.4,59-85,59-129.8c0-44.8-21.2-94.4-59-129.8l-56.6-59H4437.6H2476.5l-56.6,59c-37.8,35.4-59,85-59,129.8c0,44.8,21.2,94.4,59,129.8l56.6,59h1961.1h1961.1L6455.3,3634.9z M6455.3,2502.1c37.8-35.4,59-85,59-129.8s-21.2-94.4-59-129.8l-56.6-59H4437.6H2476.5l-56.6,59c-37.8,35.4-59,85-59,129.8s21.2,94.4,59,129.8l56.6,59h1961.1h1961.1L6455.3,2502.1z M6455.3,1369.4c37.8-35.4,59-85,59-129.8c0-44.8-21.2-94.4-59-129.8l-56.6-59H4437.6H2476.5l-56.6,59c-37.8,35.4-59,85-59,129.8c0,44.8,21.2,94.4,59,129.8l56.6,59h1961.1h1961.1L6455.3,1369.4z M6455.3,236.6c37.8-35.4,59-85,59-129.8c0-44.8-21.2-94.4-59-129.8l-56.6-59H4437.6H2476.5l-56.6,59c-37.8,35.4-59,84.9-59,129.8c0,44.8,21.2,94.4,59,129.8l56.6,59h1961.1h1961.1L6455.3,236.6z M6455.3-896.1c37.8-35.4,59-85,59-129.8c0-44.8-21.2-94.4-59-129.8l-56.6-59H4437.6H2476.5l-56.6,59c-37.8,35.4-59,84.9-59,129.8c0,44.8,21.2,94.4,59,129.8l56.6,59h1961.1h1961.1L6455.3-896.1z M6455.3-2028.9c37.8-35.4,59-85,59-129.8c0-44.8-21.2-94.4-59-129.8l-56.6-59H4437.6H2476.5l-56.6,59c-37.8,35.4-59,85-59,129.8c0,44.8,21.2,94.4,59,129.8l56.6,59h1961.1h1961.1L6455.3-2028.9z"/><path class="class1" d="M8437.7,4227.2c-87.3-40.1-165.2-122.7-198.2-210c-18.9-47.2-26-1290.9-26-4066.2v-3997.7l-3089.1-4.7c-3079.7-7.1-3091.5-7.1-3155.2-56.6c-125.1-92-162.8-167.6-162.8-316.2s37.8-224.2,162.8-316.2c63.7-49.6,68.4-49.6,3412.4-49.6c3344,0,3348.7,0,3412.4,49.6c35.4,26,87.3,77.9,113.3,113.3l49.6,63.7v4292.7v4292.7l-49.6,63.7c-26,35.4-75.5,87.3-108.6,110.9C8718.5,4255.6,8532,4272.1,8437.7,4227.2z"/></g></g>
</svg>