<?xml version="1.0" encoding="utf-8"?>
<!-- Svg Vector Icons : http://www.onlinewebfonts.com/icon -->
<!DOCTYPE svg PUBLIC "-//W3C//DTD SVG 1.1//EN" "http://www.w3.org/Graphics/SVG/1.1/DTD/svg11.dtd">
<svg version="1.1" xmlns="http://www.w3.org/2000/svg" xmlns:xlink="http://www.w3.org/1999/xlink" x="0px" y="0px" viewBox="0 0 1000 1000" enable-background="new 0 0 1000 1000" xml:space="preserve">
	<defs>
  <style type="text/css">
   <![CDATA[
    .str0 {fill:#FFF}
   ]]>
  </style>
 </defs>
<g><g><g><g><path class="str0" d="M892.7,79.9c-6.1,0-11.5,1.9-15.7,6c-23.8,23.8-380.7,380.7-400.8,400.8l-0.2-0.2l-0.2,0.6c-0.2,0.2-0.3,0.9-0.3,0.9s-52.9,124.1-44.2,132.8c8.6,8.7,133.3-43.8,133.3-43.8s370.1-370,401.8-401.8C993.5,147.9,929.9,79.9,892.7,79.9z M951,160.1L564.4,546.8l-59-59c70.7-70.6,365-365.1,386.1-386.2c0,0,0.3-0.2,1.1-0.2c15,0,46.8,25.2,56.6,48.7C951.7,155.9,951.6,159.5,951,160.1z"/></g><g><g><path class="str0" d="M692,474.1v312.2H542.4v137.5l-2,1.9H91.5V74.3H692v169.2l64.4-64.4v-137c0-17.8-14.4-32.2-32.2-32.2H59.3c-17.8,0-32.2,14.4-32.2,32.2v915.7c0,17.8,14.4,32.2,32.2,32.2h493.4c7.9,0,15.5-2.9,21.5-8.2l171.6-153.6c6.8-6.1,10.7-14.8,10.7-23.9V409.8L692,474.1z"/></g></g><g><path class="str0" d="M581.8,481.1c-2,0-4.1-0.8-5.7-2.4c-3.2-3.2-3.2-8.3,0-11.4l356.6-356.6c3.1-3.2,8.3-3.2,11.4,0c3.2,3.2,3.2,8.3,0,11.4L587.5,478.8C585.9,480.3,583.9,481.1,581.8,481.1z"/></g></g></g><g></g><g></g><g></g><g></g><g></g><g></g><g></g><g></g><g></g><g></g><g></g><g></g><g></g><g></g><g></g></g>
</svg>