<?xml version="1.0" encoding="UTF-8"?>
<!DOCTYPE svg PUBLIC "-//W3C//DTD SVG 1.1//EN" "http://www.w3.org/Graphics/SVG/1.1/DTD/svg11.dtd">
<!-- Creator: CorelDRAW 2018 (64-Bit) -->
<svg xmlns="http://www.w3.org/2000/svg" xml:space="preserve" width="118mm" height="118mm" version="1.1" style="shape-rendering:geometricPrecision; text-rendering:geometricPrecision; image-rendering:optimizeQuality; fill-rule:evenodd; clip-rule:evenodd"
viewBox="2650 2700 5800 6100"
 xmlns:xlink="http://www.w3.org/1999/xlink">
 <defs>
  <style type="text/css">
   <![CDATA[
    .fil0 {fill:#0da335}
   ]]>
  </style>
 </defs>
 <g id="Слой_x0020_1">
  <metadata id="CorelCorpID_0Corel-Layer"/>
  <path class="fil0" d="M5556.73 8743.2c1656.86,0 3000,-1343.14 3000,-3000 0,-1656.86 -1343.14,-3000 -3000,-3000 -1656.86,0 -3000,1343.14 -3000,3000 0,1656.86 1343.14,3000 3000,3000zm192.84 -3394.26c0,-4.37 7.18,-8.64 6.89,-12.93l104.05 0c416.99,0 756.21,-339.24 756.21,-756.21 0,-416.98 -339.22,-756.21 -756.21,-756.21l-607.56 0c-416.96,0 -756.21,339.23 -756.21,756.21 0,416.97 339.25,756.21 756.21,756.21l117.03 0c-0.3,4.29 -8.21,8.56 -8.21,12.93l0 2119.97c0,107.09 86.8,193.9 193.91,193.9 107.06,0 193.89,-86.81 193.89,-193.9l0 -2119.97zm-865.02 -769.14c0,-203.14 165.26,-368.41 368.4,-368.41l607.56 0c203.14,0 368.41,165.27 368.41,368.41 0,203.14 -165.27,368.41 -368.41,368.41l-607.56 0c-203.14,0 -368.4,-165.27 -368.4,-368.41zm1518.91 2423.76c-53.55,0 -96.95,-43.4 -96.95,-96.95 0,-53.56 43.4,-96.96 96.95,-96.96l212.2 0 0 -232.67c0,-107.09 -79.28,-193.91 -186.35,-193.91l-485.83 0 0 1047.07 485.83 0c107.07,0 186.36,-86.82 186.36,-193.91l0 -232.67 -212.21 0z"/>
 </g>
</svg>
