<?xml version="1.0" encoding="utf-8"?>
<!-- Svg Vector Icons : http://www.onlinewebfonts.com/icon -->
<!DOCTYPE svg PUBLIC "-//W3C//DTD SVG 1.1//EN" "http://www.w3.org/Graphics/SVG/1.1/DTD/svg11.dtd">

<svg version="1.1" xmlns="http://www.w3.org/2000/svg" xmlns:xlink="http://www.w3.org/1999/xlink" x="0px" y="0px" viewBox="0 0 1000 1000" enable-background="new 0 0 1000 1000" xml:space="preserve">
<metadata> Svg Vector Icons : http://www.onlinewebfonts.com/icon </metadata>
    <defs>
  <style type="text/css">
   <![CDATA[
    .class1 {fill: #f09b24}
   ]]>
  </style>
 </defs>
<g><path class="class1" d="M499.9,10C229.2,10,10,229.5,10,500.2C10,770.8,229.2,990,499.9,990C770.6,990,990,770.8,990,500.2C990,229.5,770.6,10,499.9,10z M548.4,709.2c0,26.7-21.7,48.4-48.4,48.4s-48.4-21.7-48.4-48.4V473.5c0-26.7,21.7-48.4,48.4-48.4s48.4,21.7,48.4,48.4V709.2z M501.8,377.8c-32.4,0-58.7-26.3-58.7-58.7c0-32.2,27.1-58.3,59.2-58.7c32.1,0.4,58,26.5,58,58.7C560.4,351.5,534.2,377.8,501.8,377.8z"/></g>
</svg>