<?xml version="1.0" encoding="utf-8"?>
<!-- Svg Vector Icons : http://www.onlinewebfonts.com/icon -->
<!DOCTYPE svg PUBLIC "-//W3C//DTD SVG 1.1//EN" "http://www.w3.org/Graphics/SVG/1.1/DTD/svg11.dtd">
<svg version="1.1" xmlns="http://www.w3.org/2000/svg" xmlns:xlink="http://www.w3.org/1999/xlink" x="0px" y="0px" viewBox="0 0 1000 1000" enable-background="new 0 0 1000 1000" xml:space="preserve">
<defs>
  <style type="text/css">
   <![CDATA[
    .class1 {fill: #FFF}
   ]]>
  </style>
 </defs>
<g><g transform="translate(0.000000,512.000000) scale(0.100000,-0.100000)"><path class="class1" d="M3189.5,3502.1c-401.1-834.7-731.1-1525.6-735-1535.1c-3.8-9.6,218.8-19.2,520-21.1l527.7-5.8l-631.3-1017L2241.5-94l525.8-5.7c289.8-1.9,527.7-9.6,527.7-15.4c0-3.8-284-917.3-631.3-2028.3c-347.3-1111.1-675.5-2156.9-729.2-2325.8c-51.8-168.9-94-308.9-90.2-310.9c1.9-3.8,1011.3,1047.8,2243.2,2335.4L6326.9-103.5h-767.6c-470.1,0-765.7,7.7-758,17.3c5.8,9.6,533.5,470.1,1174.4,1022.8l1164.8,1003.6l-687,9.6l-687,9.6l151.6,191.9c82.5,105.5,616,782.9,1184,1506.4c568,723.4,1042,1326,1053.5,1339.4c13.4,17.3-410.6,23-2110.8,23H3916.7L3189.5,3502.1z"/></g></g>
</svg>