<?xml version="1.0" encoding="utf-8"?>
<!-- Svg Vector Icons : http://www.onlinewebfonts.com/icon -->
<!DOCTYPE svg PUBLIC "-//W3C//DTD SVG 1.1//EN" "http://www.w3.org/Graphics/SVG/1.1/DTD/svg11.dtd">
<svg version="1.1" xmlns="http://www.w3.org/2000/svg" xmlns:xlink="http://www.w3.org/1999/xlink" x="0px" y="0px" viewBox="0 0 1000 1000" enable-background="new 0 0 1000 1000" xml:space="preserve">
<defs>
  <style type="text/css">
   <![CDATA[
    .class1 {fill:#white}
   ]]>
  </style>
</defs>
<g><path class="class1" d="M857,241c-63-63-126-133-196-196c-21-28-42-35-77-35c-126,0-259,0-385,0c-63,0-84,21-84,84c0,133,0,273,0,406s0,273,0,406c0,56,21,84,77,84c203,0,406,0,609,0c63,0,84-21,84-84c0-196,0-392,0-588C885,283,878,262,857,241z M843,892c0,35-14,56-56,56c-196,0-385,0-581,0c-42,0-49-21-49-56c0-133,0-259,0-392c0-126,0-252,0-378c0-49,14-70,63-70c105,0,217,0,322,0c42,0,63,14,56,56c0,35,0,77,0,112c0,56,21,77,77,77c35,0,70,0,112,0c42,0,56,14,56,56C843,535,843,710,843,892z"/><path class="class1" d="M696,409c-63,0-126,0-196,0c-63,0-133,0-196,0c-14,0-35,0-42,21c0,21,21,21,35,21c133,0,266,0,399,0c14,0,35,0,35-21C731,402,710,409,696,409z"/><path class="class1" d="M696,556c-133,0-266,0-399,0c-14,0-35,0-35,21c0,21,21,21,35,21c63,0,126,0,196,0c70,0,140,0,203,0c14,0,35,0,35-21C731,556,710,556,696,556z"/><path class="class1" d="M696,703c-126,0-259,0-385,0c-14,0-35,0-42,21c0,28,21,21,42,21c63,0,126,0,196,0c63,0,126,0,196,0c14,0,35,0,42-21C731,696,710,703,696,703z"/></g>
</svg>