<svg id="Layer_1" height="512" viewBox="0 0 512 512" width="512" xmlns="http://www.w3.org/2000/svg" data-name="Layer 1">
<defs>
  <style type="text/css">
   <![CDATA[
    .class1 {fill:white}
   ]]>
  </style>
 </defs>
 <path class="class1" d="m413 369.2v32.8h12v-32.8c0-25.365-21.054-46.2-46.418-46.2h-116.582v-85h-12v85h-116.582c-25.364 0-46.418 20.833-46.418 46.2v32.8h12v-32.8c0-18.747 15.67-34.2 34.418-34.2h116.582v68h12v-68h116.582c18.748 0 34.418 15.451 34.418 34.2z"/><path  class="class1" d="m218 409h76v56h-76z"/><path class="class1" d="m382 409h75v56h-75z"/><path class="class1" d="m55 409h75v56h-75z"/><path class="class1" d="m295 167.578v-79.578h-58v80h57.491a5.117 5.117 0 0 0 .509-.422z"/><path class="class1" d="m213.251 185a5.071 5.071 0 0 0 5.366 5h70.383v-10h-70.383a5.071 5.071 0 0 0 -5.366 5z"/><path class="class1" d="m218.617 168h6.383v-80h-6.383a5.416 5.416 0 0 0 -5.617 5.154v75.272a19.688 19.688 0 0 1 5.617-.426z"/><path class="class1" d="m256 229.846c50.559 0 91.69-41.025 91.69-91.451s-41.131-91.451-91.69-91.451-91.69 41.025-91.69 91.456 41.131 91.446 91.69 91.446zm-55-136.692c0-9.576 8.041-17.154 17.617-17.154h82.014c3.313 0 6.369 2.474 6.369 5.787v91.791a6.7 6.7 0 0 1 -6.369 6.422h.369v16.311c0 3.313-3.119 5.689-6.433 5.689h-75.95a17.307 17.307 0 0 1 -17.429-17.211c0-.091-.061-.027-.06-.118 0-.065-.128-.129-.128-.194z"/></svg>