<?xml version="1.0" encoding="utf-8"?>
<!-- Svg Vector Icons : http://www.onlinewebfonts.com/icon -->
<!DOCTYPE svg PUBLIC "-//W3C//DTD SVG 1.1//EN" "http://www.w3.org/Graphics/SVG/1.1/DTD/svg11.dtd">
<svg version="1.1" xmlns="http://www.w3.org/2000/svg" xmlns:xlink="http://www.w3.org/1999/xlink" x="0px" y="0px" viewBox="0 0 1000 1000" enable-background="new 0 0 1000 1000" xml:space="preserve">
<defs>
  <style type="text/css">
   <![CDATA[
    .class1 {fill:#FFB347}
   ]]>
  </style>
</defs>
<g><g transform="translate(0.000000,511.000000) scale(0.100000,-0.100000)"><path class="class1" d="M1065.6,4032.1c-34.9-28.7-47.2-69.8-63.6-199c-39-342.6-182.6-1714.9-182.6-1743.6c0-26.7,488.2-30.8,4184.7-30.8h4184.7v47.2c-2,24.6-22.6,250.3-49.2,502.6c-41,408.2-51.3,461.5-92.3,502.6l-45.1,45.1l-2096.4,10.3l-2098.5,10.3l-428.7,379.5c-238,209.2-465.6,410.3-508.7,447.2l-78,65.6H2452.3C1199,4069,1108.7,4067,1065.6,4032.1z"/><path class="class1" d="M167.2,1792.1c-24.6-10.3-55.4-43.1-65.6-69.7c-12.3-34.9,49.2-882.1,203.1-2775.4c217.4-2654.4,223.6-2724.1,268.7-2759c43.1-34.9,244.1-36.9,4430.8-36.9c4178.5,0,4387.7,2,4430.8,36.9c43.1,34.9,51.3,108.7,266.7,2761.1c242.1,2962.1,237.9,2818.5,119,2851.3C9742.7,1820.8,220.5,1812.6,167.2,1792.1z"/></g></g>
</svg>