<?xml version="1.0" encoding="utf-8"?>
<!-- Svg Vector Icons : http://www.onlinewebfonts.com/icon -->
<!DOCTYPE svg PUBLIC "-//W3C//DTD SVG 1.1//EN" "http://www.w3.org/Graphics/SVG/1.1/DTD/svg11.dtd">
<svg version="1.1" xmlns="http://www.w3.org/2000/svg" xmlns:xlink="http://www.w3.org/1999/xlink" x="0px" y="0px" viewBox="0 0 1000 1000" enable-background="new 0 0 1000 1000" xml:space="preserve">
<metadata> Svg Vector Icons : http://www.onlinewebfonts.com/icon </metadata>
<g><path d="M754.6,526.3C503.6,989.1,500,990,500,990s-1.6-2.4-254.3-463.2c-43.1-54.3-69-122.6-69-197C176.7,153.1,321.5,10,500,10c178.5,0,323.3,143.1,323.3,319.7C823.2,403.9,797.5,472,754.6,526.3z M501.2,105.9c-125,0-226.3,100.2-226.3,223.8c0,123.6,101.3,223.8,226.3,223.8c125,0,226.3-100.2,226.3-223.8C727.5,206.2,626.2,105.9,501.2,105.9z"/></g>
</svg>