<?xml version="1.0" encoding="utf-8"?>
<!-- Generator: Adobe Illustrator 22.0.0, SVG Export Plug-In . SVG Version: 6.00 Build 0)  -->
<svg version="1.1" id="Layer_1" xmlns="http://www.w3.org/2000/svg" xmlns:xlink="http://www.w3.org/1999/xlink" x="0px" y="0px"
	 viewBox="-1337.4 341.3 326.7 340.2" style="enable-background:new -1337.4 341.3 326.7 340.2;" xml:space="preserve">
<style type="text/css">
	.st0{fill:#FFF;}
	.st1{fill:#FFF;}
	.st2{fill:#FFF;}
</style>
<g>
	<g>
		<path class="st0" d="M-1010.8,520.2c-0.1-45.7-19.6-86.9-50.8-116.2c0-0.3,0.1-0.6,0.1-0.9h-1.1c-17.6-16.2-38.8-28.7-62.4-36
			c2.1,2.4,4,5,5.7,7.7c19.3,7.1,36.8,17.7,51.7,31.2c-1.8,4.8-7.8,9.5-17.4,13.7c-8.4-14.6-18.5-27.1-29.9-36.8
			c1.6,3.5,2.8,7.1,3.8,10.8c7.9,8,15,17.4,21.1,28c-5.9,2.2-12.9,4.2-20.8,5.9c-0.3,1.9-0.7,3.8-1.2,5.7c5.8-1.2,11.4-2.6,16.5-4.1
			c2.9-0.9,5.6-1.8,8.2-2.8c9.7,18.1,16.6,39.3,20,62.3c-14.5,4.7-32.6,8.5-53.7,11c-0.5-12.5-1.5-24.6-2.9-36
			c-1.5,2.7-3.1,5.4-4.7,7.9c1,9.2,1.7,18.8,2.1,28.7c-8.6,0.9-17.6,1.5-27,1.9c-2.1,2.1-4.1,3.9-6,5.7c11.4-0.3,22.5-1.1,33.2-2.2
			c0.1,4.9,0.2,9.8,0.2,14.7c0,16.3-0.8,32.1-2.3,47c-13.7,1.3-28.1,2.1-42.9,2.2v-51.9c-1.7,1.3-2.7,2-2.7,2s-1-0.7-2.7-2.1v52
			c-14.8-0.1-29.2-0.8-42.9-2.2c-1.5-14.9-2.3-30.7-2.3-47c0-4.9,0.1-9.8,0.2-14.7c10.9,1.1,22.3,1.8,33.9,2.2
			c-1.8-1.7-3.8-3.6-5.8-5.6c-9.8-0.4-19.1-1-27.9-1.9c0.4-10.3,1.2-20.3,2.2-30c-1.6-2.5-3.2-5.2-4.7-7.9
			c-1.5,11.8-2.5,24.2-3,37.2c-21.1-2.4-39.2-6.3-53.7-10.9c3.4-23.2,10.4-44.4,20.1-62.6c2.7,1,5.6,2,8.7,3c5,1.5,10.4,2.9,16.1,4
			c-0.5-1.9-0.9-3.8-1.3-5.8c-7.9-1.7-14.9-3.8-20.8-6c6.1-10.5,13.2-19.9,21-27.8c0.9-3.8,2.2-7.4,3.8-10.8
			c-11.4,9.7-21.5,22.1-29.8,36.6c-9.5-4.2-15.4-9-17-13.8c14.8-13.3,32.1-23.8,51.1-30.8c1.7-2.7,3.6-5.3,5.7-7.7
			c-23.4,7.3-44.5,19.7-62,35.9h-0.7c0,0.2,0,0.4,0,0.6c-31.4,29.3-51,70.7-51.1,116.5h-0.3c0,1.1,0.1,2.3,0.3,3.4
			c0.5,25.6,7,49.7,18.3,71l-0.5,0.3c0.8,1.4,1.8,2.8,3,4.1c27.9,49,81.1,82.3,142.1,82.4c0.1,0,0.1,0,0.2,0c0,0,0,0,0,0
			c0,0,0,0,0.1,0c89.7,0,162.8-71.8,163.2-160.2C-1010.8,521-1010.8,520.6-1010.8,520.2L-1010.8,520.2z M-1215.3,624.1
			c-15.8-1.3-30.6-3.5-43.7-6.2c-9.1-16.1-16-34.8-20-55.2c15.8,4.4,34.1,7.8,54.2,9.9C-1222.7,591.7-1219.5,609.1-1215.3,624.1z
			 M-1279.7,495c15.1,4.6,33,8.1,52.4,10.3c-0.2,5-0.2,10.1-0.2,15.3c0,16.2,0.8,31.8,2.2,46.4c-20.4-2.3-39-5.9-54.8-10.4
			c-1.9-11.6-3-23.6-3-36c0-8.9,0.5-17.7,1.5-26.2C-1280.9,494.6-1280.3,494.8-1279.7,495z M-1284.4,409.7
			c2.8,5.4,9.1,10.3,18.7,14.6c-9.8,18.3-16.8,39.7-20.3,62.9c-21.4-7.7-33.5-17.2-33.5-26.5h0
			C-1311.3,441.4-1299.3,424.1-1284.4,409.7z M-1331.7,520.6c0-18.1,3.2-35.4,8.9-51.6c4.7,8.9,17,17.1,36,23.7
			c-1.1,9.1-1.7,18.4-1.7,27.9c0,11.8,0.9,23.2,2.6,34.3c-26.2-8.3-43.4-19.5-45.8-31.7C-1331.7,522.3-1331.7,521.5-1331.7,520.6z
			 M-1311.8,596.1c-10.3-18.1-17-38.5-19.1-60.2c8.4,9.8,24.5,18.4,46.1,25.1c3.7,20.3,10.2,39,18.9,55.4
			C-1288,611.2-1304.4,604.1-1311.8,596.1z M-1304.1,608.4c10.2,5.7,24.4,10.5,41.6,14.3c12.4,21.1,28.5,37.7,46.9,47.8
			C-1252,660.7-1283.2,638.3-1304.1,608.4z M-1255.3,624.2c12.6,2.4,26.7,4.3,41.6,5.5c6.3,20.6,14.3,36.2,23.5,44.7
			C-1215.9,668.9-1238.7,650.6-1255.3,624.2z M-1176.8,675.8c-11.9-2.3-22.8-19.4-31-45.6c10,0.7,20.3,1,31,1.1V675.8z
			 M-1176.8,625.8c-11.2-0.1-22.1-0.5-32.6-1.2c-4.2-14.9-7.5-32.3-9.7-51.3c13.4,1.3,27.6,2,42.3,2V625.8z M-1082.4,424.5
			c9.7-4.3,16.1-9.2,19-14.5c14.8,14.4,26.7,31.6,34.9,50.7h-0.6c0,9.2-12,18.7-33.1,26.4C-1065.7,464-1072.7,442.7-1082.4,424.5z
			 M-1120.7,520.6c0-5.2-0.1-10.3-0.2-15.3c19.3-2.2,37-5.7,52-10.3c0.7-0.2,1.5-0.4,2.2-0.7c1,8.5,1.6,17.3,1.6,26.3
			c0,12.4-1,24.5-3,36c-15.8,4.5-34.4,8.1-54.8,10.4C-1121.4,552.3-1120.7,536.8-1120.7,520.6z M-1123.4,572.6
			c20.1-2.1,38.5-5.5,54.2-9.9c-4,20.3-10.9,39-19.9,55c-13.1,2.8-27.9,4.9-43.8,6.3C-1128.7,609-1125.5,591.7-1123.4,572.6z
			 M-1171.4,575.2c14.7-0.1,28.9-0.8,42.3-2c-2.2,19-5.5,36.4-9.7,51.3c-10.5,0.8-21.4,1.2-32.6,1.3V575.2z M-1171.4,675.8v-44.6
			c10.6-0.1,21-0.5,31-1.1C-1148.5,656.3-1159.5,673.5-1171.4,675.8z M-1134.5,629.6c15-1.2,29-3.1,41.7-5.6
			c-16.6,26.5-39.4,44.9-65.2,50.4C-1148.8,665.9-1140.7,650.3-1134.5,629.6z M-1132.8,670.7c18.6-10.1,34.8-26.9,47.2-48.2
			c17.7-4,32.3-9.1,42.4-15.1C-1064.2,638-1095.8,660.8-1132.8,670.7z M-1034.2,592.5l-0.3-0.2c-5.2,9.5-22.7,17.8-47.6,23.8
			c8.6-16.3,15-35,18.8-55.2c21.8-6.7,38-15.4,46.3-25.4C-1019,556-1025,575.2-1034.2,592.5z M-1016.3,521.2
			c-0.8,12.9-18.4,24.8-46,33.6c1.7-11,2.6-22.5,2.6-34.3c0-9.6-0.6-18.9-1.7-28c19.2-6.7,31.5-15.1,36-24.2
			c5.9,16.3,9.2,33.9,9.2,52.2C-1016.3,520.8-1016.3,521-1016.3,521.2z"/>
	</g>
	<g>
		<path class="st1" d="M-1174.2,523.9l-1.9-1.4c-0.7-0.5-16.7-12.4-33-32.3c-21.7-26.4-33.2-54.4-33.2-80.7
			c0-37.6,30.6-68.2,68.2-68.2s68.2,30.6,68.2,68.2c0,27.8-11.5,56.2-33.2,82c-16.3,19.5-32.4,30.6-33.1,31L-1174.2,523.9z
			 M-1174.1,347.9c-34,0-61.6,27.7-61.6,61.6c0,54.4,51.2,97.9,61.7,106.3c10.6-7.9,61.6-49.1,61.6-106.3
			C-1112.5,375.5-1140.1,347.9-1174.1,347.9z"/>
	</g>
	<g>
		<path class="st2" d="M-1174.1,435.5c-14.5,0-26.3-11.8-26.3-26.3s11.8-26.3,26.3-26.3c14.5,0,26.3,11.8,26.3,26.3
			S-1159.6,435.5-1174.1,435.5z M-1174.1,389.4c-10.9,0-19.8,8.9-19.8,19.8c0,10.9,8.9,19.8,19.8,19.8c10.9,0,19.8-8.9,19.8-19.8
			C-1154.3,398.3-1163.2,389.4-1174.1,389.4z"/>
	</g>
</g>
</svg>
