<?xml version="1.0" encoding="utf-8"?>
<!-- Svg Vector Icons : http://www.onlinewebfonts.com/icon -->
<!DOCTYPE svg PUBLIC "-//W3C//DTD SVG 1.1//EN" "http://www.w3.org/Graphics/SVG/1.1/DTD/svg11.dtd">
<svg version="1.1" xmlns="http://www.w3.org/2000/svg" xmlns:xlink="http://www.w3.org/1999/xlink" x="0px" y="0px" viewBox="0 0 1000 1000" enable-background="new 0 0 1000 1000" xml:space="preserve">
<defs>
  <style type="text/css">
   <![CDATA[
    .class1 {fill:white}
   ]]>
  </style>
 </defs>
<g><g><path class="class1" d="M990,283.6h-0.1c0-60.6-49.1-109.6-109.6-109.6h-60c-3.2,0-6.2,0.6-9.4,0.9c2.6,8.8,4.3,18.4,4.7,29c0.5,11,0.4,22,0.7,33.1c1.3-0.1,2.6-0.4,4-0.4h60c25.8,0,46.9,21,46.9,47v163.1c-40.8-42.5-98-69-161.6-69c-87.8,0-163.7,50.6-200.4,124.2c-1.5,1.8-3.4,3.4-4.9,5.3c-36.4-23.9-84.1-23.8-120.4,0.3c-1.6-2.2-3.8-3.9-5.5-6.1c-36.8-73.3-112.6-123.8-200.2-123.8c-63.5,0-120.7,26.4-161.5,68.8v-163c0-26,21-47,46.9-47h60.1c1.3,0,2.6,0.2,4,0.4c0.3-11,0.2-22,0.7-33.1c0.5-10.5,2.1-20.1,4.7-29c-3.2-0.3-6.1-1-9.3-1h-60.1c-60.4,0-109.6,49.1-109.6,109.6v231.7c0,10,1.5,19.5,4,28.7c-2.4,8.9-4,18.1-4,27.8v27.2c0,1-0.2,2-0.2,3s0.2,2,0.2,3v10.6c0.2-0.1,0.4-0.1,0.5-0.1c7,117.5,104.3,210.8,223.5,210.8c123.8,0,224.2-100.4,224.2-224.2c0-8-0.5-15.9-1.3-23.7c1.3,0.4,2.7,0.6,4,1v-7.3l6.2-6.2c18.4-18.3,48.1-18.3,66.5,0l5.4,5.4c0,0.2-0.1,0.4-0.1,0.6v6.2c1.3-0.4,2.6-0.4,4-0.7c-0.9,8.1-1.4,16.4-1.4,24.7c0,123.8,100.4,224.2,224.2,224.2c123.8,0,224.2-100.4,224.2-224.2c0-9-0.7-17.9-1.7-26.6c0.5,0.2,1.1,0.3,1.7,0.6v-4.1c0-9.7-1.6-18.9-4-27.8c2.5-9.1,4-18.7,4-28.7V283.6z M234.2,771.4c-93.6,0-169.5-75.8-169.5-169.4c0-93.6,75.8-169.5,169.5-169.5c93.6,0,169.5,75.8,169.5,169.5C403.6,695.6,327.8,771.4,234.2,771.4z M765.7,771.4c-93.5,0-169.5-75.8-169.5-169.4c0-93.6,75.9-169.5,169.5-169.5c93.6,0,169.5,75.8,169.5,169.5C935.2,695.6,859.4,771.4,765.7,771.4z"/></g><g></g><g></g><g></g><g></g><g></g><g></g><g></g><g></g><g></g><g></g><g></g><g></g><g></g><g></g><g></g></g>
</svg>