<?xml version="1.0" encoding="utf-8"?>
<!-- Svg Vector Icons : http://www.onlinewebfonts.com/icon -->
<!DOCTYPE svg PUBLIC "-//W3C//DTD SVG 1.1//EN" "http://www.w3.org/Graphics/SVG/1.1/DTD/svg11.dtd">
<svg version="1.1" xmlns="http://www.w3.org/2000/svg" xmlns:xlink="http://www.w3.org/1999/xlink" x="0px" y="0px" viewBox="0 0 1000 1000" enable-background="new 0 0 1000 1000" xml:space="preserve">
<defs>
  <style type="text/css">
   <![CDATA[
    .class1 {fill:white}
   ]]>
  </style>
 </defs>
<g><path class="class1" d="M500,86.6c55.9,0,110,10.9,161,32.4c49.2,20.8,93.5,50.5,131.5,88.4c38,37.8,67.8,81.8,88.6,130.7c21.5,50.5,32.4,104.1,32.4,159.2c0,42.4-6.3,84.1-18.6,123.9c-12.4,39.9-30.6,77.3-54.2,111l-0.5,0.7l-0.5,0.7l-10.8,16.2l-17.3,25.9l5.7,30.6l11.5,61.8l-69.2-17.3l-30.8-7.7l-27.2,16.3l-11.9,7.2C632,897.2,566.5,913.4,500,913.4c-55.9,0-110-10.9-161-32.4c-49.2-20.8-93.4-50.6-131.4-88.6c-38-38-67.8-82.2-88.6-131.4C97.5,610,86.6,555.9,86.6,500c0-55.9,10.9-110,32.4-161c20.8-49.2,50.6-93.4,88.6-131.4c38-38,82.2-67.8,131.4-88.6C390,97.5,444.1,86.6,500,86.6 M500,10C229.3,10,10,229.3,10,500c0,270.7,219.3,490,490,490c78.5,0,157-18.9,227.4-56.9l13.5-8.1l184.8,46.3l-33.2-179l10.8-16.2c56.8-81.2,86.6-178.7,86.6-278.8C990,229.3,770.7,10,500,10L500,10z"/><path class="class1" d="M592.9,518.9c27.6-17.6,100.4-52.7,100.4-145.6c0-92.9-77.8-158.1-143.1-170.7c-65.3-12.5-138-5-188.2,50.2c-45.2,50.2-55.2,87.8-55.2,175.7h100.4v-20.1c0-45.2,5-95.4,70.3-107.9c35.1-7.5,70.3,5,90.3,22.6c22.6,22.6,22.6,72.8-12.5,97.9l-57.7,37.6c-32.6,22.6-45.2,45.2-45.2,80.3v118h100.4v-80.3C555.2,556.6,565.3,536.5,592.9,518.9L592.9,518.9L592.9,518.9L592.9,518.9z"/><path class="class1" d="M505,697.1c-27.6,0-52.7,22.6-52.7,52.7c0,27.6,22.6,52.7,52.7,52.7c27.6,0,52.7-22.6,52.7-52.7C557.7,719.7,532.6,697.1,505,697.1L505,697.1L505,697.1L505,697.1z"/></g>
</svg>