<svg height="512pt" viewBox="0 -64 512.001 512" width="512pt" xmlns="http://www.w3.org/2000/svg">
    <defs>
        <style type="text/css">
            <![CDATA[
    .class1 {fill:white}
   ]]>
        </style>
    </defs>

    <path class="class1" d="m79.640625 263.914062c9.683594 6.824219 19.449219 13.105469 29.257813 18.847657l-102.550782 76.753906 17.953125 23.984375 113.921875-85.261719c39.625 18.644531 79.539063 28.332031 117.777344 28.332031 57.230469 0 118.214844-21.667968 176.363281-62.65625 43.492188-30.660156 70.03125-61.074218 71.140625-62.355468l8.496094-9.808594-8.496094-9.808594c-1.109375-1.277344-27.648437-31.691406-71.140625-62.351562-9.871093-6.960938-19.824219-13.347656-29.824219-19.179688l102.113282-76.425781-17.953125-23.984375-113.535157 84.976562c-39.421874-18.460937-79.121093-28.042968-117.164062-28.042968-57.230469 0-118.214844 21.664062-176.359375 62.65625-43.496094 30.660156-70.035156 61.074218-71.144531 62.351562l-8.496094 9.808594 8.496094 9.808594c1.109375 1.277344 27.648437 31.695312 71.144531 62.355468zm71.5-72.164062c0-57.816406 47.039063-104.859375 104.859375-104.859375.988281 0 1.972656.03125 2.957031.046875 27.609375.765625 52.585938 12.261719 70.898438 30.453125l-24.347657 18.222656c-13.210937-11.664062-30.539062-18.761719-49.507812-18.761719-41.296875 0-74.898438 33.597657-74.898438 74.898438 0 11.324219 2.539063 22.058594 7.058594 31.691406l-24.355468 18.226563c-8.074219-14.851563-12.664063-31.859375-12.664063-49.917969zm149.800781 0c0 24.78125-20.160156 44.941406-44.941406 44.941406-9.328125 0-18.003906-2.863281-25.195312-7.746094l67.992187-50.890624c1.386719 4.320312 2.144531 8.921874 2.144531 13.695312zm-89.878906 0c0-24.777344 20.160156-44.9375 44.9375-44.9375 9.101562 0 17.574219 2.726562 24.660156 7.398438l-67.648437 50.628906c-1.265625-4.144532-1.949219-8.539063-1.949219-13.089844zm-5.03125 55.734375c13.265625 11.90625 30.78125 19.164063 49.96875 19.164063 41.300781 0 74.898438-33.597657 74.898438-74.898438 0-11.539062-2.625-22.476562-7.308594-32.25l24.3125-18.195312c8.253906 14.976562 12.957031 32.167968 12.957031 50.445312 0 57.820312-47.039063 104.859375-104.859375 104.859375-28.90625 0-55.222656-11.777344-74.285156-30.925781zm208.449219-103.847656c26.292969 18.464843 46.214843 37.128906 57.09375 48.109375-16.664063 16.789062-54.625 51.628906-104.65625 76.542968 15.0625-21.757812 23.902343-48.132812 23.902343-76.539062 0-25.003906-6.851562-48.433594-18.761718-68.527344l4.226562-3.160156c14.316406 7.667969 27.179688 15.839844 38.195313 23.574219zm-269.398438-28.425781c-15.0625 21.757812-23.902343 48.132812-23.902343 76.539062 0 24.789062 6.734374 48.03125 18.453124 68.007812l-4.5 3.367188c-14.082031-7.574219-26.746093-15.632812-37.613281-23.261719-26.292969-18.464843-46.21875-37.132812-57.097656-48.109375 16.667969-16.789062 54.632813-51.628906 104.660156-76.542968zm0 0"/></svg>