<?xml version="1.0" encoding="utf-8"?>
<!-- Svg Vector Icons : http://www.onlinewebfonts.com/icon -->
<!DOCTYPE svg PUBLIC "-//W3C//DTD SVG 1.1//EN" "http://www.w3.org/Graphics/SVG/1.1/DTD/svg11.dtd">
<svg version="1.1" xmlns="http://www.w3.org/2000/svg" xmlns:xlink="http://www.w3.org/1999/xlink" x="0px" y="0px" viewBox="0 0 1000 1000" enable-background="new 0 0 1000 1000" xml:space="preserve">
<defs>
  <style type="text/css">
   <![CDATA[
    .class1 {fill:white}
   ]]>
  </style>
 </defs>
<g><path class="class1" d="M536.1,100.1c23.6,15.7,45.9,39,66.9,71.4c59.2,89.6,22.8,182.5-32.3,276.8c120.8-3,235.1,12.1,290.3,121.6c13.3,25.8,21.4,52.9,22.3,81c1.6-1.4,3.3-2.8,4.9-4.2l54.3,64.9C795.7,837.8,642.3,915.3,714.8,875.1c72.1-43.3-70.7,50.3-253.9,114.9L432,910.4c2.1-0.7,4.1-1.5,6.2-2.2c-23.8-14.8-43.2-35.4-58.8-59.8c-67-102.6-23-209.4,40-312.6c-109.2,0.7-207.7-14.2-255.6-110.3c-17.5-34.4-26.6-65.4-28.3-93.7l-32.9,23.4l-45.1-68.4l38.5-27.9c125.2-92.3,191.5-129.6,191.5-129.6s17.2-14.3,205.4-99.9L536.3,10l36.6,73.2L536.1,100.1z M448.3,804.7c33.4,48.4,97.3,70.2,225.7-0.4C800.6,727.9,814,661.2,788.7,607.9c-41.2-80.9-156.5-81-270.4-75.3C456.5,628.5,399,728.5,448.3,804.7z M472.4,452.9c56.2-88,104.4-169.5,62.4-236.3c-51.1-75.9-120.8-64.9-207.3-16c-86.1,50.7-130.9,105.8-90.7,188.3C273.5,458.7,368.2,457.7,472.4,452.9z"/></g>
</svg>