<?xml version="1.0" encoding="utf-8"?>
<!-- Svg Vector Icons : http://www.onlinewebfonts.com/icon -->
<!DOCTYPE svg PUBLIC "-//W3C//DTD SVG 1.1//EN" "http://www.w3.org/Graphics/SVG/1.1/DTD/svg11.dtd">
<svg version="1.1" xmlns="http://www.w3.org/2000/svg" xmlns:xlink="http://www.w3.org/1999/xlink" x="0px" y="0px" viewBox="0 0 1000 1000" enable-background="new 0 0 1000 1000" xml:space="preserve">
<defs>
  <style type="text/css">
   <![CDATA[
    .class1 {fill:white}
   ]]>
  </style>
 </defs>
<g><g transform="translate(0.000000,512.000000) scale(0.100000,-0.100000)"><path class="class1" d="M4880.2,4999.2c-70.9-32.6-134.2-99.7-161-170.6c-15.4-38.3-21.1-985.4-21.1-3086.6v-3032.9l-521.5,521.5c-287.6,285.6-550.2,532.9-584.7,550.2c-184,92-402.6-38.3-421.8-251.1c-5.7-72.8,1.9-107.4,36.4-161c24.9-38.3,412.2-431.3,860.8-876.1c695.9-688.3,826.3-807.1,883.8-818.6c151.5-28.8,164.9-17.3,1008.4,822.4c435.2,433.3,814.8,824.4,841.6,870.4C6948.8-384,6668.9-90.7,6412-223c-40.3-21.1-302.9-268.4-582.8-548.3l-508-510l-9.6,3055.9c-9.6,3050.1-9.6,3057.8-49.8,3109.6c-21.1,28.8-61.3,70.9-88.2,90.1C5108.4,5022.2,4956.9,5035.6,4880.2,4999.2z"/><path class="class1" d="M1446.7,2545.3c-180.2-57.5-333.6-210.9-398.8-400.7c-26.8-82.4-30.7-385.3-30.7-3251.4c0-3519.8-9.6-3257.2,132.3-3445c44.1-59.4,113.1-115,193.6-159.1l124.6-69h3537.1H8542l120.8,65.2c134.2,72.8,191.7,132.3,268.4,278l51.8,97.8v3230.4v3230.3l-47.9,95.9c-59.4,122.7-176.4,237.7-297.2,299.1c-93.9,44.1-107.4,46-638.4,51.8l-540.6,5.8v-306.7v-306.7l362.3-5.8c396.8-5.8,414.1-11.5,508-138c40.3-51.8,40.3-53.7,40.3-2923.6v-2871.8l-51.8-67.1c-109.3-141.9,176.4-130.4-3335.8-126.5l-3153.7,5.8l-70.9,55.6c-136.1,103.5-126.5-118.9-122.7,3029c5.8,2841.2,5.8,2846.9,46,2898.7c93.9,126.5,111.2,132.3,508,138l362.3,5.8v306.7v304.8l-511.9-1.9C1676.7,2570.2,1502.3,2562.6,1446.7,2545.3z"/></g></g>
</svg>