<?xml version="1.0" encoding="utf-8"?>
<!-- Svg Vector Icons : http://www.onlinewebfonts.com/icon -->
<!DOCTYPE svg PUBLIC "-//W3C//DTD SVG 1.1//EN" "http://www.w3.org/Graphics/SVG/1.1/DTD/svg11.dtd">
<svg version="1.1" xmlns="http://www.w3.org/2000/svg" xmlns:xlink="http://www.w3.org/1999/xlink" x="0px" y="0px" viewBox="0 0 1000 1000" enable-background="new 0 0 1000 1000" xml:space="preserve">
<defs>
  <style type="text/css">
   <![CDATA[
    .class1 {fill:white}
   ]]>
  </style>
 </defs>
<g><g transform="translate(0.000000,511.000000) scale(0.100000,-0.100000)"><path class="class1" d="M4718.8,4872.6c-210.6-26.3-524.1-90.9-737.1-153.2c-148.4-43.1-198.6-98.1-174.7-193.8c21.5-86.2,102.9-90.9,375.7-23.9c402,98.1,583.9,119.7,1014.7,119.7c449.9,0,725.1-38.3,1117.6-155.6c1534-457.1,2685.1-1883.4,2788-3462.9c14.3-217.8,12-229.7-26.3-198.6c-21.5,19.1-344.6,301.5-715.5,629.4c-722.7,636.6-761,660.5-844.8,533.7c-35.9-55-35.9-64.6,0-119.7c21.5-31.1,406.8-382.9,856.7-777.8c835.2-732.3,897.4-777.8,971.6-686.8c31.1,35.9,555.2,2120.4,555.2,2201.7c0,31.1-12,67-28.7,83.8c-40.7,40.7-150.8,35.9-189.1-9.6c-19.2-21.5-105.3-320.7-191.4-665.3L9335.2,1369l-55.1,239.3c-392.5,1694.4-1713.5,2943.6-3424.6,3233.2C5597.1,4887,4967.7,4903.7,4718.8,4872.6z"/><path class="class1" d="M1069.2,3001.2L100,2419.6v-81.4c0-64.6,14.4-90.9,62.2-117.3c62.2-35.9,81.4-26.3,799.3,406.8c404.4,241.7,746.7,445.1,758.6,447.5c12,4.8-28.7-67-90.9-162.7c-59.8-93.3-162.7-280-225-414C870.6,1378.6,865.8,55.2,1389.9-1072c157.9-337.5,217.8-418.8,301.5-418.8c47.9,0,83.8,19.1,107.7,57.4c35.9,55.1,31.1,71.8-117.3,378.1c-83.8,174.7-174.7,382.9-203.4,464.3C1112.3,507.5,1215.2,1641.8,1768,2627.8c215.4,387.7,193.8,433.2,253.7-524.1c28.7-461.9,59.8-856.7,67-878.3c38.3-95.7,213-79,239.3,21.5c4.8,28.7-21.5,545.6-59.8,1151.1c-69.4,1050.6-74.2,1103.3-124.4,1143.9c-28.7,21.5-62.2,40.7-79,40.7C2050.4,3582.7,1602.9,3319.4,1069.2,3001.2z"/><path class="class1" d="M8713-1079.2c-14.4-9.6-76.6-100.5-136.4-201c-179.5-303.9-368.6-543.2-636.6-808.9c-495.4-485.8-1065-818.5-1708.7-990.8c-691.6-189-1512.5-179.5-2158.6,19.1c-344.6,105.3-428.4,138.8-392.5,158c19.1,12,351.8,100.5,739.5,201c387.7,100.5,729.9,191.4,758.6,205.8c114.9,47.9,79,239.3-43.1,239.3c-79,0-2151.5-543.2-2187.4-574.4c-93.3-79-55-134,624.6-897.4c847.2-952.5,849.6-954.9,928.5-935.7c71.8,16.7,119.7,93.3,98.1,155.5c-7.2,23.9-292,354.2-631.8,734.7c-339.8,380.5-617.4,694-612.7,698.8c2.4,2.4,74.2-26.3,157.9-64.6c205.8-90.9,560-203.4,849.6-268c368.5-79,1093.7-91,1490.9-23.9c923.8,157.9,1680,550.4,2330.9,1213.3c335,342.2,717.9,890.3,717.9,1031.5C8902-1091.2,8789.6-1026.6,8713-1079.2z"/></g></g>
</svg>