<?xml version="1.0" encoding="utf-8"?>
<!-- Svg Vector Icons : http://www.onlinewebfonts.com/icon -->
<!DOCTYPE svg PUBLIC "-//W3C//DTD SVG 1.1//EN" "http://www.w3.org/Graphics/SVG/1.1/DTD/svg11.dtd">
<svg version="1.1" xmlns="http://www.w3.org/2000/svg" xmlns:xlink="http://www.w3.org/1999/xlink" x="0px" y="0px" viewBox="0 0 1000 1000" enable-background="new 0 0 1000 1000" xml:space="preserve">
<defs>
  <style type="text/css">
   <![CDATA[
    .class1 {fill:white}
   ]]>
  </style>
 </defs>
<g><g transform="translate(0.000000,511.000000) scale(0.100000,-0.100000)"><path class="class1" d="M4492.9,4984.5c-916.8-94.3-1876-494.9-2587.8-1077.1c-198-165-579.8-546.8-735.3-742.4c-193.3-240.4-410.1-586.9-565.6-900.3c-1194.9-2420.5-193.3-5352.4,2239-6552c1649.8-813.1,3624.8-629.3,5100.2,478.4c223.9,167.3,643.4,572.7,841.4,808.4c464.3,556.2,839,1322.2,999.3,2043.4c487.9,2206-596.3,4459.1-2627.9,5460.8C6340.7,4906.7,5390.9,5078.8,4492.9,4984.5z M5435.6,4232.7c664.6-77.8,1272.7-294.6,1826.5-652.8c1291.5-839,2022.1-2363.9,1861.9-3891.1c-75.4-704.7-339.4-1404.7-749.5-1984.5c-202.7-285.2-683.5-768.3-971-973.4c-266.3-188.6-799-459.6-1100.6-558.6C4518.8-4416.9,2548.5-3724,1528-2154.3C361.4-353.7,743.2,1998.4,2418.9,3353.6C3234.4,4013.5,4393.9,4350.5,5435.6,4232.7z"/><path class="class1" d="M7120.8,1970.1c-33-14.1-692.9-657.6-1465.9-1432.9l-1409.4-1407l-664.6,664.6c-718.8,716.5-723.5,718.8-930.9,678.8c-115.5-21.2-256.9-162.6-278.1-278.1c-40.1-212.1-54.2-195.6,855.5-1105.4c733-733,853.2-843.7,928.6-855.5c221.5-40.1,129.6-120.2,1852.5,1597.9c1147.8,1147.8,1590.9,1605,1609.7,1663.9c51.9,157.9-4.7,327.6-148.5,433.7C7396.5,1984.3,7208,2005.5,7120.8,1970.1z"/></g></g>
</svg>