<?xml version="1.0" encoding="utf-8"?>
<!-- Svg Vector Icons : http://www.onlinewebfonts.com/icon -->
<!DOCTYPE svg PUBLIC "-//W3C//DTD SVG 1.1//EN" "http://www.w3.org/Graphics/SVG/1.1/DTD/svg11.dtd">
<svg version="1.1" xmlns="http://www.w3.org/2000/svg" xmlns:xlink="http://www.w3.org/1999/xlink" x="0px" y="0px" viewBox="0 0 1000 1000" enable-background="new 0 0 1000 1000" xml:space="preserve">
<defs>
  <style type="text/css">
   <![CDATA[
    .key-icon {fill:#757575}
   ]]>
  </style>
</defs>
<metadata> Svg Vector Icons : http://www.onlinewebfonts.com/icon </metadata>
<g><g transform="translate(0.000000,511.000000) scale(0.100000,-0.100000)">
	<path class="key-icon" d="M2254.5,2538.4C1199.7,2411.6,363.7,1636.9,136.8,576c-49-233-49-719.5,0-946.4c108.3-494.7,331.2-909.6,674.6-1251c476.3-474.2,1054.8-713.4,1729.3-713.4c645.9,0,1216.3,224.9,1686.4,666.4c249.4,233,490.6,594.8,598.9,899.4l55.2,159.4h997.5h995.5v-457.9c0-588.7-22.5-551.9,345.5-560.1c261.6-8.2,267.8-6.2,318.9,45l51.1,51.1v462v459.9h439.5h439.5v-439.5c0-464,10.2-521.2,96.1-560.1c67.5-30.7,1171.3-30.7,1238.7,0c28.6,12.3,61.3,45,73.6,73.6c30.7,69.5,30.7,2191.3,0,2260.8c-12.3,28.6-45,61.3-73.6,73.6c-34.7,16.4-744,22.5-2485.6,22.5H4881.2L4826,980.7c-69.5,192.2-204.4,433.4-355.7,631.6C3963.4,2274.7,3092.6,2638.5,2254.5,2538.4z M2853.4,1504C3389,1383.4,3795.7,980.7,3932.7,435c85.9-339.3,24.5-750.2-159.4-1062.9c-100.2-169.7-329.1-398.6-498.8-498.8c-417-243.3-940.3-261.7-1377.7-45C1212-834.4,917.6,7.8,1242.7,708.9C1522.7,1316,2201.3,1649.2,2853.4,1504z"/></g></g>
</svg>