<?xml version="1.0" encoding="utf-8"?>
<!-- Svg Vector Icons : http://www.onlinewebfonts.com/icon -->
<!DOCTYPE svg PUBLIC "-//W3C//DTD SVG 1.1//EN" "http://www.w3.org/Graphics/SVG/1.1/DTD/svg11.dtd">
<svg version="1.1" xmlns="http://www.w3.org/2000/svg" xmlns:xlink="http://www.w3.org/1999/xlink" x="0px" y="0px" viewBox="0 0 1000 1000" enable-background="new 0 0 1000 1000" xml:space="preserve">
<defs>
  <style type="text/css">
   <![CDATA[
    .class1 {fill:white}
   ]]>
  </style>
 </defs>
<g><path class="class1" d="M161.4,504.3l20.9,74.4c0,0,0.8-39.1,20.2-55.4C176.5,523,161.4,504.3,161.4,504.3z"/><path class="class1" d="M220.8,523.2c19.5,16.4,20.3,55.4,20.3,55.4l20.9-74.4C262.1,504.3,247,523,220.8,523.2z"/><path class="class1" d="M229.5,558.9c0-15.1-7.6-27.2-17-27.2c-9.4,0-17.1,12.2-17.1,27.2c0,8.6,2.4,16.2,6.3,21.1l0.1,2.1l-10.7,91.2l20.9,16.1l21.7-16.1l-12.2-91.5C226.3,577,229.5,568.6,229.5,558.9z"/><path class="class1" d="M790.2,280.7H85.1c-41.4,0-75.1,33.6-75.1,75.1v413.1c0,41.4,33.7,75,75.1,75h705.1c41.5,0,75-33.6,75-75V355.8C865.3,314.3,831.7,280.7,790.2,280.7z M510.2,378.1h188.2c2,0,3.6,7,3.6,15.6c0,8.6-1.6,15.6-3.6,15.6H510.2c-2,0-3.7-7-3.7-15.6C506.5,385.1,508.1,378.1,510.2,378.1z M211.7,356.5c36.3,0,65.7,29.4,65.7,65.8c0,36.3-29.5,65.7-65.7,65.7c-36.4,0-65.7-29.5-65.7-65.7C145.9,385.9,175.3,356.5,211.7,356.5z M211.7,706.2c-79.8,0-144.5,118.2-144.5-4.9c0-96.3,39.5-178.3,95-209.4c13.4,11.2,30.7,17.9,49.5,17.9s36.1-6.7,49.5-17.9c55.4,31.1,94.9,113.2,94.9,209.4C356.2,824.3,291.5,706.2,211.7,706.2z M794.8,744.2H413.8c-4.1,0-7.3-4.9-7.3-11.1s3.3-11.1,7.3-11.1h380.9c4.2,0,7.4,4.9,7.4,11.1S799,744.2,794.8,744.2z M794.8,699.8H413.8c-4.1,0-7.3-4.9-7.3-11.1s3.3-11.1,7.3-11.1h380.9c4.2,0,7.4,4.9,7.4,11.1S799,699.8,794.8,699.8z M794.8,655.6H413.8c-4.1,0-7.3-4.9-7.3-10.9c0-6.2,3.3-11.1,7.3-11.1h380.9c4.2,0,7.4,4.9,7.4,11.1C802.2,650.6,799,655.6,794.8,655.6z M794.8,568.5H413.8c-4.1,0-7.3-5-7.3-11.1c0-6.1,3.2-11.1,7.3-11.1h380.9c4.2,0,7.4,5,7.4,11.1C802.2,563.5,799,568.5,794.8,568.5z M794.8,524.2H413.8c-4.1,0-7.3-5-7.3-11.1c0-6,3.3-11.1,7.3-11.1h380.9c4.2,0,7.4,5,7.4,11.1C802.2,519.2,799,524.2,794.8,524.2z"/><path class="class1" d="M915,156H209.8c-37.6,0-68.5,27.6-74.1,63.5c3.9-0.5,7.6-0.9,11.6-0.9h705c41.5,0,75.1,33.6,75.1,75.1v413c0,4-0.4,7.8-1,11.6c36-5.6,63.6-36.6,63.6-74.2v-413C990,189.6,956.4,156,915,156z"/></g>
</svg>