<?xml version="1.0" encoding="UTF-8"?>
<!DOCTYPE svg PUBLIC "-//W3C//DTD SVG 1.1//EN" "http://www.w3.org/Graphics/SVG/1.1/DTD/svg11.dtd">
<!-- Creator: CorelDRAW 2018 (64-Bit) -->
<svg xmlns="http://www.w3.org/2000/svg" xml:space="preserve" width="351" height="158" version="1.1" style="shape-rendering:geometricPrecision; text-rendering:geometricPrecision; image-rendering:optimizeQuality; fill-rule:evenodd; clip-rule:evenodd"
viewBox="1000 3234.2 8500 3568"
 xmlns:xlink="http://www.w3.org/1999/xlink">
 <defs>
  <style type="text/css">
   <![CDATA[
    .str0 {stroke:#1A1A18;stroke-width:100;}
    .fil3 {fill:none}
    .fil2 {fill:#1f66b9}
    .fil0 {fill:#1A1A18}
    .fil1 {fill:#1f66b9}
   ]]>
  </style>
 </defs>
 <g id="Слой_x0020_1">
  <metadata id="CorelCorpID_0Corel-Layer"/>
  <path fill="red" class="fil0" d="M5714.95 5394.96l335.35 0 -318.74 795.22 -360.26 -894.82 -107.91 0 468.17 1162.1 466.5 -1162.1 -418.36 0 -64.75 99.6zm632.52 1062.5l99.61 -151.07 0 -1011.03 -99.61 0 0 1162.1zm431.64 -99.61l0 -431.64 0 -531.25 483.1 0 64.75 -99.6 -647.46 0 0 1162.1 597.65 0 66.41 -99.61 -564.45 0zm429.98 -531.25l-363.57 0 -66.41 99.61 363.57 0 66.41 -99.61zm1177.04 -431.64l343.65 0 -272.26 765.33 -308.79 -864.93 -308.79 864.93 -307.13 -864.93 -106.25 0 413.38 1162.1 308.79 -864.94 308.79 864.94 413.37 -1162.1 -418.35 0 -66.41 99.6z"/>
  <path class="fil1" d="M6072.12 3916.69c-125,-121.38 -297.11,-166.68 -471.03,-166.68l-336.96 0 0 1268.15 336.96 0c173.92,0 346.03,-45.29 471.03,-166.67 125.01,-121.37 173.92,-289.86 173.92,-467.4 0,-175.73 -48.91,-346.02 -173.92,-467.4zm-76.09 856.91c-103.26,101.44 -251.82,135.86 -394.94,135.86l-228.27 0 0 -1050.75 228.27 0c143.12,0 291.68,34.43 394.94,135.88 105.08,101.45 141.31,244.57 141.31,389.5 0,144.93 -36.23,288.05 -141.31,389.51zm1041.7 -1032.64c-336.97,0 -610.53,288.05 -610.53,643.13 0,355.09 273.56,643.13 610.53,643.13 336.96,0 610.51,-288.04 610.51,-643.13 0,-355.08 -273.55,-643.13 -610.51,-643.13zm0 1177.56c-277.18,0 -501.83,-239.13 -501.83,-534.43 0,-295.3 224.65,-534.43 501.83,-534.43 277.17,0 501.82,239.13 501.82,534.43 0,295.3 -224.65,534.43 -501.82,534.43zm1402.21 -1068.86c139.5,0 269.93,61.59 364.14,166.67l81.52 -72.47c-115.94,-128.63 -275.37,-202.9 -445.66,-202.9 -336.97,0 -610.53,288.05 -610.53,643.13 0,355.09 273.56,643.13 610.53,643.13 170.29,0 329.72,-74.28 445.66,-202.91l-81.52 -72.45c-94.21,105.06 -224.64,166.66 -364.14,166.66 -277.18,0 -501.83,-239.13 -501.83,-534.43 0,-295.3 224.65,-534.43 501.83,-534.43z"/>
  <g id="_906108768">
   <g>
    <g>
     <path class="fil2" d="M2969.18 3254.75c-979.74,0 -1774,794.29 -1774,1774.03 0,979.75 794.26,1774.03 1774,1774.03 979.74,0 1774.09,-794.32 1774.09,-1774.03 -0.01,-979.77 -794.35,-1774.03 -1774.09,-1774.03zm794.9 2568.87c0,119.05 -96.5,215.55 -215.53,215.55l-1158.66 0c-119.08,0 -215.55,-96.5 -215.55,-215.55l0 -1589.72c0,-119.05 96.5,-215.55 215.55,-215.55l909.41 0 0 431.1 464.78 0 0 1374.17zm-372.76 -1466.22l0 -339.07 372.76 339.07 -372.76 0z"/>
    </g>
   </g>
   <g>
   </g>
   <g>
   </g>
   <g>
   </g>
   <g>
   </g>
   <g>
   </g>
   <g>
   </g>
   <g>
   </g>
   <g>
   </g>
   <g>
   </g>
   <g>
   </g>
   <g>
   </g>
   <g>
   </g>
   <g>
   </g>
   <g>
   </g>
   <g>
   </g>
  </g>
  <g id="_906109984">
   <line class="fil3 str0" x1="5256.39" y1="5152.39" x2="8864.09" y2= "5152.39" />
  </g>
 </g>
</svg>
