<svg xmlns="http://www.w3.org/2000/svg" xmlns:xlink="http://www.w3.org/1999/xlink" xml:space="preserve" width="300" height="300" version="1.1" style="shape-rendering:geometricPrecision; text-rendering:geometricPrecision; image-rendering:optimizeQuality; fill-rule:evenodd; clip-rule:evenodd" viewBox="1380 3350 3300 3300">
 <defs>
  <style type="text/css">
   <![CDATA[
    .str0 {stroke:#90C8D8;stroke-width:100;stroke-miterlimit:22.9256}
    .fil3 {fill:none}
    .fil2 {fill:#FEFEFE}
    .fil0 {fill:#90C8D8;fill-rule:nonzero}
    .fil1 {fill:white;fill-rule:nonzero}
   ]]>
  </style>
 </defs>
 <g id="Слой_x0020_1">
  <metadata id="CorelCorpID_0Corel-Layer"/>
  
  
  <g id="_900543088">
   <g>
    <g>
     <path class="fil2" d="M3023.12 3392.13c-893.33,0 -1617.53,724.23 -1617.53,1617.55 0,893.33 724.2,1617.55 1617.53,1617.55 893.32,0 1617.6,-724.26 1617.6,-1617.55 -0.01,-893.35 -724.28,-1617.55 -1617.6,-1617.55zm724.78 2342.28c0,108.55 -87.99,196.54 -196.52,196.54l-1056.46 0c-108.57,0 -196.53,-87.99 -196.53,-196.54l0 -1449.5c0,-108.55 87.98,-196.53 196.53,-196.53l829.19 0 0 393.07 423.79 0 0 1252.96zm-339.88 -1336.89l0 -309.16 339.88 309.16 -339.88 0z"/>
    </g>
   </g>
   <g>
   </g>
   <g>
   </g>
   <g>
   </g>
   <g>
   </g>
   <g>
   </g>
   <g>
   </g>
   <g>
   </g>
   <g>
   </g>
   <g>
   </g>
   <g>
   </g>
   <g>
   </g>
   <g>
   </g>
   <g>
   </g>
   <g>
   </g>
   <g>
   </g>
  </g>
  
 </g>
</svg>