<?xml version="1.0" encoding="UTF-8"?>
<!DOCTYPE svg PUBLIC "-//W3C//DTD SVG 1.1//EN" "http://www.w3.org/Graphics/SVG/1.1/DTD/svg11.dtd">
<!-- Creator: CorelDRAW 2018 (64-Bit) -->
<svg xmlns="http://www.w3.org/2000/svg" xml:space="preserve" width="351" height="158" version="1.1" style="shape-rendering:geometricPrecision; text-rendering:geometricPrecision; image-rendering:optimizeQuality; fill-rule:evenodd; clip-rule:evenodd"
viewBox="1000 3234.2 8500 3568"
 xmlns:xlink="http://www.w3.org/1999/xlink">
 <defs>
  <style type="text/css">
   <![CDATA[
    .str0 {stroke:#90C8D8;stroke-width:100;stroke-miterlimit:22.9256}
    .fil3 {fill:none}
    .fil2 {fill:#FEFEFE}
    .fil0 {fill:#90C8D8;fill-rule:nonzero}
    .fil1 {fill:white;fill-rule:nonzero}
   ]]>
  </style>
 </defs>
 <g id="Слой_x0020_1">
  <metadata id="CorelCorpID_0Corel-Layer"/>
  <path class="fil0" d="M5526.69 5343.57l305.77 0 -290.63 725.06 -328.47 -815.89 -98.4 0 426.87 1059.6 425.35 -1059.6 -381.45 0 -59.04 90.83zm576.73 968.77l90.82 -137.75 0 -921.85 -90.82 0 0 1059.6zm393.56 -90.82l0 -393.57 0 -484.38 440.49 0 59.04 -90.83 -590.35 0 0 1059.6 544.94 0 60.54 -90.82 -514.66 0zm392.05 -484.39l-331.5 0 -60.55 90.82 331.5 0 60.55 -90.82zm1073.23 -393.56l313.34 0 -248.25 697.82 -281.55 -788.65 -281.55 788.65 -280.04 -788.65 -96.88 0 376.92 1059.6 281.55 -788.64 281.55 788.64 376.91 -1059.6 -381.45 0 -60.55 90.83z"/>
  <path class="fil1" d="M5852.35 3995.68c-113.98,-110.67 -270.9,-151.97 -429.48,-151.97l-307.24 0 0 1156.29 307.24 0c158.58,0 315.5,-41.3 429.48,-151.97 113.98,-110.67 158.58,-264.29 158.58,-426.17 0,-160.23 -44.6,-315.51 -158.58,-426.18zm-69.38 781.32c-94.15,92.5 -229.6,123.89 -360.1,123.89l-208.13 0 0 -958.07 208.13 0c130.5,0 265.95,31.39 360.1,123.89 95.81,92.5 128.85,223 128.85,355.15 0,132.14 -33.04,262.64 -128.85,355.14zm949.81 -941.55c-307.24,0 -556.67,262.65 -556.67,586.41 0,323.76 249.43,586.4 556.67,586.4 307.24,0 556.67,-262.64 556.67,-586.4 0,-323.76 -249.43,-586.41 -556.67,-586.41zm0 1073.7c-252.73,0 -457.56,-218.04 -457.56,-487.29 0,-269.25 204.83,-487.3 457.56,-487.3 252.73,0 457.56,218.05 457.56,487.3 0,269.25 -204.83,487.29 -457.56,487.29zm1278.51 -974.59c127.19,0 246.13,56.17 332.02,151.97l74.33 -66.07c-105.71,-117.28 -251.07,-185.01 -406.35,-185.01 -307.23,0 -556.66,262.65 -556.66,586.41 0,323.76 249.43,586.4 556.66,586.4 155.28,0 300.64,-67.73 406.35,-185.01l-74.33 -66.07c-85.89,95.81 -204.83,151.97 -332.02,151.97 -252.73,0 -457.55,-218.04 -457.55,-487.29 0,-269.25 204.82,-487.3 457.55,-487.3z"/>
  <g id="_900543088">
   <g>
    <g>
     <path class="fil2" d="M3023.12 3392.13c-893.33,0 -1617.53,724.23 -1617.53,1617.55 0,893.33 724.2,1617.55 1617.53,1617.55 893.32,0 1617.6,-724.26 1617.6,-1617.55 -0.01,-893.35 -724.28,-1617.55 -1617.6,-1617.55zm724.78 2342.28c0,108.55 -87.99,196.54 -196.52,196.54l-1056.46 0c-108.57,0 -196.53,-87.99 -196.53,-196.54l0 -1449.5c0,-108.55 87.98,-196.53 196.53,-196.53l829.19 0 0 393.07 423.79 0 0 1252.96zm-339.88 -1336.89l0 -309.16 339.88 309.16 -339.88 0z"/>
    </g>
   </g>
   <g>
   </g>
   <g>
   </g>
   <g>
   </g>
   <g>
   </g>
   <g>
   </g>
   <g>
   </g>
   <g>
   </g>
   <g>
   </g>
   <g>
   </g>
   <g>
   </g>
   <g>
   </g>
   <g>
   </g>
   <g>
   </g>
   <g>
   </g>
   <g>
   </g>
  </g>
  <g id="_900543152">
   <line class="fil3 str0" x1="5108.58" y1="5122.39" x2="8398.05" y2= "5122.39" />
  </g>
 </g>
</svg>
