<?xml version="1.0" encoding="utf-8"?>
<!-- Svg Vector Icons : http://www.onlinewebfonts.com/icon -->
<!DOCTYPE svg PUBLIC "-//W3C//DTD SVG 1.1//EN" "http://www.w3.org/Graphics/SVG/1.1/DTD/svg11.dtd">
<svg version="1.1" xmlns="http://www.w3.org/2000/svg" xmlns:xlink="http://www.w3.org/1999/xlink" x="0px" y="0px" viewBox="0 0 1000 1000" enable-background="new 0 0 1000 1000" xml:space="preserve">
<defs>
  <style type="text/css">
   <![CDATA[
    .class1 {fill:white}
   ]]>
  </style>
 </defs>
<g><g transform="translate(0.000000,511.000000) scale(0.100000,-0.100000)"><path class="class1" d="M3156.3,4995.9c-1153.9-157.6-2147.9-849.5-2669-1861.1c-148.9-289-260.6-604.3-332.8-941.5c-72.3-335-72.3-956.8-2.2-1309.3c223.3-1110.1,917.4-2012.2,1915.8-2489.5c280.3-135.7,488.3-205.8,807.9-278.1c199.2-43.8,282.4-50.4,707.2-50.4c529.9,2.2,696.3,26.3,1110.1,164.2c383.2,129.2,801.4,359.1,1101.3,608.7c59.1,50.4,116,92,127,92s858.3-836.4,1885.2-1861.1c1664-1657.5,1874.2-1861.1,1935.5-1861.1c78.8,0,157.6,85.4,157.6,168.6c0,39.4-431.3,483.9-1869.9,1929L6160.3-817.3l98.5,120.4c260.5,313.1,497,742.3,628.4,1142.9c137.9,418.2,155.4,547.4,155.4,1079.4c0,540.8-28.5,724.7-177.3,1156.1C6458.1,3850.7,5464,4709,4237.9,4952.1C3968.6,5006.8,3397.1,5028.7,3156.3,4995.9z M4218.2,4623.6c606.5-129.2,1134.2-418.2,1587.4-873.6c448.8-453.2,729.1-963.4,864.9-1578.6c56.9-258.4,67.9-862.7,21.9-1142.9C6493.1-175.8,5623.9-1158.9,4459.1-1496.1c-302.1-87.6-538.6-120.4-864.9-122.6c-523.3-2.2-924,89.8-1394.7,319.7C1288.6-854.6,660.2-24.7,471.9,978.1c-59.1,317.5-54.7,860.5,8.8,1164.8c295.6,1381.6,1399.1,2380,2796,2533.3C3478.2,4698.1,4003.6,4667.4,4218.2,4623.6z"/></g></g>
</svg>