<?xml version="1.0" encoding="utf-8"?>
<!-- Svg Vector Icons : http://www.onlinewebfonts.com/icon -->
<!DOCTYPE svg PUBLIC "-//W3C//DTD SVG 1.1//EN" "http://www.w3.org/Graphics/SVG/1.1/DTD/svg11.dtd">
<svg version="1.1" xmlns="http://www.w3.org/2000/svg" xmlns:xlink="http://www.w3.org/1999/xlink" x="0px" y="0px" viewBox="0 0 1000 1000" enable-background="new 0 0 1000 1000" xml:space="preserve">
<defs>
  <style type="text/css">
   <![CDATA[
    .class1 {fill: #FFF}
   ]]>
  </style>
 </defs>
<g><path class="class1" d="M500,10C229.4,10,10,229.4,10,500s219.4,490,490,490s490-219.4,490-490S770.6,10,500,10z M500,924.7C265.8,924.7,75.3,734.2,75.3,500C75.3,265.8,265.8,75.3,500,75.3c234.2,0,424.7,190.5,424.7,424.7C924.7,734.2,734.2,924.7,500,924.7z"/><path class="class1" d="M761.3,271.3H238.7c-18,0-32.7,14.6-32.7,32.7v392c0,18,14.6,32.7,32.7,32.7h522.7c18,0,32.7-14.6,32.7-32.7V304C794,286,779.3,271.3,761.3,271.3z M682.5,336.7L500,519.1L317.5,336.7H682.5z M271.3,382.9l117.3,117.3c-0.3,0.3-0.8,0.4-1.1,0.7L271.3,617.1V382.9z M317.5,663.3l116.2-116.2c0.3-0.3,0.4-0.8,0.7-1.1l42.9,42.9c6.4,6.4,14.8,9.5,23.1,9.5s16.7-3.2,23.1-9.5c0.8-0.8,1.2-2,2-3.1l39.7-39.7l117.1,117.1H317.5z M728.7,617.1L611.5,500l117.1-117.1V617.1z"/></g>
</svg>