<?xml version="1.0" encoding="utf-8"?>
<!-- Svg Vector Icons : http://www.onlinewebfonts.com/icon -->
<!DOCTYPE svg PUBLIC "-//W3C//DTD SVG 1.1//EN" "http://www.w3.org/Graphics/SVG/1.1/DTD/svg11.dtd">
<svg version="1.1" xmlns="http://www.w3.org/2000/svg" xmlns:xlink="http://www.w3.org/1999/xlink" x="0px" y="0px" viewBox="0 0 1000 1000" enable-background="new 0 0 1000 1000" xml:space="preserve">
<defs>
  <style type="text/css">
   <![CDATA[
    .class1 {fill:white}
   ]]>
  </style>
 </defs>
<g><g><g><g><path class="class1" d="M677.1,597.1L677.1,597.1c-8,0-15.6,1.5-21.2-4.2L408.8,347.5c-11.7-11.7-11.7-29.5,0-41.2L667.9,47.9c22-22,52.9-34.3,84.9-34.3c30.5,0,58.5,11.4,78.9,31.8l124.1,124.2c20.9,20.9,33.4,51.3,34.1,83.4c0.8,32.8-10.8,63.7-31.9,84.8L698.3,593C692.6,598.6,685,597.1,677.1,597.1z M472.3,328.7l204.8,205.3l238.6-238.6c9.6-9.5,14.8-24.5,14.4-41c-0.4-16.6-6.6-32.4-16.6-42.4L789.3,87.9c-9.1-9.1-22.1-14.1-36.5-14.1c-16.3,0-31.8,6.2-42.6,17L472.3,328.7z"/></g><g><path class="class1" d="M586,305.2c-3.9,0-7.7-1.5-10.6-4.4c-5.9-5.9-5.8-15.3,0-21.2l5.8-5.8c5.8-5.9,15.3-5.8,21.2,0c5.8,5.9,5.8,15.3,0,21.2l-5.8,5.8C593.6,303.7,589.8,305.2,586,305.2z"/></g><g><path class="class1" d="M621.2,269.9c-3.8,0-7.7-1.5-10.6-4.4c-5.8-5.8-5.8-15.3,0-21.2l97.7-97.7c23-23,61.3-23.7,83.5-1.5l63.7,63.7c5.8,5.8,5.8,15.3,0,21.2c-5.9,5.8-15.3,5.8-21.2,0l-63.7-63.7c-10.4-10.3-30-9.6-41.2,1.5l-97.7,97.6C628.8,268.5,625,269.9,621.2,269.9z"/></g><g><path class="class1" d="M580.3,986.4L580.3,986.4c-8,0-15.6-3.2-21.2-8.8c-30.1-30.1-72.5-72.8-121.6-122.3C311.7,728.3,139.2,554.5,19,437.5c-5.7-5.6-9-13.3-9-21.3c-0.1-8,3.1-15.7,8.8-21.4c115.1-115.1,287.6-151.8,439.6-93.2c15.4,5.9,23.1,23.3,17.2,38.7c-5.9,15.4-23.3,23.1-38.7,17.2C316.5,311.1,181,334.6,83.4,416.7C202.3,533,361.7,693.8,480.1,813.1c38,38.4,72,72.7,99.4,100.1C658.9,819.3,683.7,692,644,573.8c-5.3-15.7,3.2-32.7,18.8-37.9c15.7-5.3,32.6,3.2,37.9,18.9c50.2,149.4,12.1,311.4-99.3,422.8C595.9,983.2,588.3,986.4,580.3,986.4z"/></g><g><path class="class1" d="M51.3,968.1c-7.7,0-15.4-3-21.3-8.9c-11.6-11.8-11.5-30.7,0.3-42.3l257.2-253.6c11.8-11.6,30.7-11.5,42.4,0.3c11.6,11.8,11.5,30.7-0.3,42.3L72.3,959.5C66.5,965.3,58.9,968.1,51.3,968.1z"/></g></g></g><g></g><g></g><g></g><g></g><g></g><g></g><g></g><g></g><g></g><g></g><g></g><g></g><g></g><g></g><g></g></g>
</svg>