<?xml version="1.0" encoding="utf-8"?>
<!-- Svg Vector Icons : http://www.onlinewebfonts.com/icon -->
<!DOCTYPE svg PUBLIC "-//W3C//DTD SVG 1.1//EN" "http://www.w3.org/Graphics/SVG/1.1/DTD/svg11.dtd">
<svg version="1.1" xmlns="http://www.w3.org/2000/svg" xmlns:xlink="http://www.w3.org/1999/xlink" x="0px" y="0px" viewBox="0 0 1000 1000" enable-background="new 0 0 1000 1000" xml:space="preserve">
<defs>
  <style type="text/css">
   <![CDATA[
    .class1 {fill:white}
   ]]>
  </style>
 </defs>
<g><g transform="translate(0.000000,511.000000) scale(0.100000,-0.100000)"><path class="class1" d="M3300.2,2692.5c-173.5-35.9-339-93.7-472.6-165.5c-57.8-29.9-574.2-402.8-1150.5-829.5C1100.9,1272.9,610.4,921.9,588.5,918c-273.2-55.8-273.2-55.8-356.9-137.6C123.9,670.7,100,585,100,289.9c0-323,37.9-418.7,203.4-502.5c41.9-21.9,85.7-57.8,97.7-81.8c14-23.9,35.9-217.3,49.8-428.7c15.9-213.3,41.9-444.6,57.8-518.4c133.6-572.2,566.3-1016.9,1152.5-1184.4c217.3-61.8,1114.6-93.7,1373.8-47.9c323,55.8,584.2,185.4,817.5,404.8c183.4,173.5,253.2,277.2,592.2,875.3c155.5,275.2,301.1,516.4,325,538.4c33.9,29.9,73.8,35.9,237.3,35.9c169.5,0,201.4-6,235.3-39.9c21.9-21.9,177.4-283.1,346.9-582.2c169.5-297.1,350.9-596.2,402.8-662c239.3-305.1,630.1-524.4,1030.8-580.2c233.3-31.9,1122.6,6,1316,57.8c560.3,147.5,1008.9,598.2,1150.5,1162.4c23.9,93.7,49.8,299.1,63.8,528.4c14,205.4,31.9,394.8,39.9,418.7c8,23.9,59.8,71.8,111.7,105.7c53.8,35.9,119.6,95.7,147.5,135.6C9898-7.2,9900,10.7,9900,295.9c0,313-12,370.9-107.7,478.5c-51.8,59.8-179.5,113.7-289.1,125.6c-99.7,10-147.5,43.9-1168.4,795.6c-618.1,454.6-1124.6,813.5-1206.3,853.4c-287.1,141.6-608.1,195.4-913.2,151.5c-289.1-39.9-410.8-129.6-426.7-313c-14-137.6,41.9-243.3,159.5-305.1c87.7-45.9,91.7-45.9,293.1-19.9c255.2,33.9,430.7,10,610.1-85.7c67.8-35.9,396.8-265.2,731.8-512.4l608.1-448.6l-183.4-15.9c-582.2-49.8-1066.7-129.6-1535.3-253.2C6011.9,624.8,5541.3,567,5005,567c-562.3,0-953.1,51.8-1603.1,209.4c-430.7,105.7-751.7,163.5-1078.7,191.4c-131.6,12-299.1,25.9-372.9,33.9l-133.6,14l622.1,458.6c341,253.2,670,482.5,731.8,512.4c137.6,67.8,341,105.7,480.5,87.7c329-37.9,342.9-37.9,414.7,12c97.7,65.8,143.6,137.6,155.5,239.3c12,103.7-43.9,235.3-123.6,287.1C3964.2,2700.5,3549.4,2742.4,3300.2,2692.5z M2548.5,258c458.6-47.9,897.3-125.6,1010.9-177.5c157.5-73.8,259.2-175.5,343-346.9c69.8-137.6,75.8-165.5,73.8-311c0-131.6-12-191.4-63.8-321c-105.7-269.2-319-552.3-546.3-727.8c-95.7-73.8-342.9-179.5-494.5-211.3c-123.6-25.9-223.3-29.9-564.3-17.9c-259.2,8-458.6,23.9-528.4,41.9c-241.3,63.8-442.6,231.3-558.3,464.6l-73.8,149.5l2,490.5c2,297.1,12,522.4,25.9,572.2c49.8,183.4,247.2,346.9,480.5,396.8C1810.8,293.9,2205.6,293.9,2548.5,258z M8452.4,232.1c209.4-81.8,333-205.4,378.8-374.9c10-43.9,25.9-275.2,31.9-516.4c12-404.8,10-448.6-25.9-562.3c-99.7-311-341-534.4-654-604.1c-53.8-12-309.1-23.9-566.3-25.9c-466.6-4-468.6-4-628.1,51.8c-265.2,93.7-460.6,231.3-628.1,442.7c-117.7,147.5-241.3,372.9-299.1,548.3C5946.1-463.8,6115.6-71,6448.6,80.5c107.7,47.9,398.8,103.7,829.5,157.5c378.8,45.8,384.8,45.8,737.7,41.9C8296.9,275.9,8360.7,267.9,8452.4,232.1z"/></g></g>
</svg>