<?xml version="1.0" encoding="utf-8"?>
<!-- Svg Vector Icons : http://www.onlinewebfonts.com/icon -->
<!DOCTYPE svg PUBLIC "-//W3C//DTD SVG 1.1//EN" "http://www.w3.org/Graphics/SVG/1.1/DTD/svg11.dtd">
<svg version="1.1" xmlns="http://www.w3.org/2000/svg" xmlns:xlink="http://www.w3.org/1999/xlink" x="0px" y="0px" viewBox="0 0 1000 1000" enable-background="new 0 0 1000 1000" xml:space="preserve">
<defs>
  <style type="text/css">
   <![CDATA[
    .class1 {fill:white}
   ]]>
  </style>
 </defs>
<g><path class="class1" d="M500,10C229.4,10,10,229.4,10,500c0,270.6,219.4,490,490,490c270.6,0,490-219.4,490-490C990,229.4,770.6,10,500,10z M500,920C268.1,920,80,731.9,80,500C80,268,268.1,80,500,80c231.9,0,420,188,420,420C920,731.9,731.9,920,500,920z M605,605H395c-19.3,0-35,15.7-35,35c0,19.3,15.7,35,35,35h210c19.3,0,35-15.7,35-35C640,620.7,624.3,605,605,605z M395,395h70c19.3,0,35-15.7,35-35c0-19.3-15.7-35-35-35h-70c-19.3,0-35,15.7-35,35C360,379.3,375.7,395,395,395z M395,465c-19.3,0-35,15.7-35,35c0,19.3,15.7,35,35,35h210c19.3,0,35-15.7,35-35c0-19.3-15.7-35-35-35H395z M570,185H325c-38.7,0-70,31.3-70,70v490c0,38.7,31.3,70,70,70h350c38.7,0,70-31.3,70-70V360C745,321.3,608.7,185,570,185z M675,690.6c0,30.1-24.6,54.4-55,54.4H380c-30.4,0-55-24.4-55-54.4V309.5c0-30.1,24.6-54.4,55-54.4h155v70c0,65.6,5.4,67.1,70,70h70V690.6L675,690.6z"/></g>
</svg>