<?xml version="1.0" encoding="utf-8"?>
<!-- Svg Vector Icons : http://www.onlinewebfonts.com/icon -->
<!DOCTYPE svg PUBLIC "-//W3C//DTD SVG 1.1//EN" "http://www.w3.org/Graphics/SVG/1.1/DTD/svg11.dtd">
<svg version="1.1" xmlns="http://www.w3.org/2000/svg" xmlns:xlink="http://www.w3.org/1999/xlink" x="0px" y="0px" viewBox="0 0 1000 1000" enable-background="new 0 0 1000 1000" xml:space="preserve">
<defs>
  <style type="text/css">
   <![CDATA[
    .class1 {fill:white}
   ]]>
  </style>
 </defs>
<g><g transform="translate(0.000000,512.000000) scale(0.100000,-0.100000)"><path class="class1" d="M7989,4990.8c-254.6-53.6-572.4-252.7-819.3-511.1c-101.5-103.4-120.6-135.9-120.6-191.4c0-88.1,49.8-145.5,137.8-158.9c65.1-11.5,78.5-5.7,210.6,118.7c388.6,365.6,603,465.2,959.1,440.3c526.4-36.4,978.2-388.6,1154.3-901.7c68.9-201,76.6-511.1,19.1-687.3c-51.7-153.1-183.8-350.3-375.2-555.2c-149.3-160.8-157-172.3-145.5-239.3c13.4-86.1,70.8-135.9,158.9-135.9c53.6,0,86.1,19.1,172.3,101.5c269.9,252.7,476.7,583.9,532.2,846.1c70.8,342.7,1.9,740.9-187.6,1081.6c-109.1,197.2-409.7,497.7-606.9,606.9C8739.5,4994.6,8327.9,5065.5,7989,4990.8z"/><path class="class1" d="M6723.7,4020.2c-61.3-30.6-99.6-105.3-86.2-166.6c7.7-30.6,367.6-403.9,953.3-991.6l941.9-941.9l-2795-2791.1L2942.8-3662l-867.2-266.1l-867.2-264.2l-112.9,111c-97.6,95.7-124.4,113-183.8,113c-53.6,0-80.4-13.4-116.8-55.5c-82.3-93.8-55.5-162.7,134-348.4c137.8-135.9,170.4-158.9,225.9-158.9c36.4,0,492,130.2,1012.7,291l947.6,289.1l2894.5,2892.6c2019.6,2015.8,2898.3,2906,2906,2942.4c7.7,30.6,0,74.7-17.2,107.2c-32.5,63.2-1973.7,2002.4-2035,2033C6809.8,4050.9,6783,4050.9,6723.7,4020.2z"/><path class="class1" d="M3589.9,901.8C1246.7-1441.4,938.5-1755.4,913.6-1831.9C827.5-2099.9,100-4598.2,100-4630.7c0-49.8,101.5-149.3,151.2-149.3c21.1,0,134,23,250.8,49.8c168.5,40.2,218.2,59.4,248.9,97.7c53.6,68.9,49.8,149.3-11.5,210.6c-42.1,42.1-61.3,47.9-143.6,40.2c-80.4-7.7-93.8-5.8-86.1,21.1c13.4,45.9,624.1,2130.7,637.5,2172.8c7.7,28.7,143.6-97.6,664.3-616.4C2223-3216,2483.4-3461,2514-3468.7c107.2-26.8,208.7,74.7,191.4,191.4c-1.9,21-314,348.4-693,727.5c-377.1,379.1-687.3,698.7-687.3,708.3c0,11.5,1119.9,1139,2488.7,2507.8L6302.5,3155l693-693c440.3-438.4,714-696.8,744.7-704.5c126.4-30.6,235.5,109.1,180,227.8c-17.2,34.5-367.6,398.2-781.1,811.7c-735.1,733.2-754.3,750.4-827,750.4C6237.4,3547.4,6208.7,3520.6,3589.9,901.8z"/><path class="class1" d="M4307.7,316C2380-1609.9,2224.9-1770.6,2224.9-1828.1c0-45.9,17.2-80.4,55.5-120.6c116.8-116.8-34.5-252.7,2255.1,2035c1998.6,1998.6,2092.4,2094.3,2092.4,2161.3c0,91.9-63.2,151.2-164.6,151.2C6390.5,2398.8,6363.7,2373.9,4307.7,316z"/><path class="class1" d="M4966.3-344.5C2678.6-2634,2814.5-2482.8,2931.3-2599.6c40.2-38.3,74.7-55.5,120.6-55.5c57.4,0,218.2,155.1,2144.1,2082.8c2082.8,2080.9,2082.8,2080.9,2082.8,2159.4c0,99.5-59.3,160.8-155.1,160.8C7062.5,1747.9,6932.3,1621.6,4966.3-344.5z"/></g></g>
</svg>