<?xml version="1.0" encoding="utf-8"?>
<!-- Svg Vector Icons : http://www.onlinewebfonts.com/icon -->
<!DOCTYPE svg PUBLIC "-//W3C//DTD SVG 1.1//EN" "http://www.w3.org/Graphics/SVG/1.1/DTD/svg11.dtd">
<svg version="1.1" xmlns="http://www.w3.org/2000/svg" xmlns:xlink="http://www.w3.org/1999/xlink" x="0px" y="0px" viewBox="0 0 1000 1000" enable-background="new 0 0 1000 1000" xml:space="preserve">
<defs>
  <style type="text/css">
   <![CDATA[
    .class1 {fill:white}
   ]]>
  </style>
 </defs>
<g><path class="class1" d="M980.3,458.2C818.5,105.7,503.1,117.5,503.1,117.5c-341.2,0-483.9,343.2-483.9,343.2c-19.6,39.2-1.5,79.9-1.5,79.9c177.3,366.9,485.5,341.5,485.5,341.5c362.5-19.2,477.2-342,477.2-342C994.7,508.7,991.7,484.5,980.3,458.2z M919.7,534.3c0,0-89.8,276.1-416.9,292.6c0,0-264.4,21.7-424.4-292.1c0,0-16.3-34.8,1.4-68.3c0,0,115.1-293.6,423-293.6c0,0,270.9-10.1,416.9,291.4C930,486.7,932.7,507.4,919.7,534.3z"/><path class="class1" d="M499.1,267.3c-128.7,0-233,104.3-233,233c0,128.7,104.3,233,233,233c128.7,0,233-104.3,233-233C732.1,371.6,627.8,267.3,499.1,267.3z M499.1,677.8c-98,0-177.5-79.5-177.5-177.5c0-98,79.5-177.5,177.5-177.5c98,0,177.5,79.5,177.5,177.5C676.6,598.3,597.1,677.8,499.1,677.8z"/><path class="class1" d="M499.1,420c-44.3,0-80.3,35.9-80.3,80.3c0,44.3,35.9,80.3,80.3,80.3c44.3,0,80.3-35.9,80.3-80.3C579.3,456,543.4,420,499.1,420z M499.1,524.9c-13.6,0-24.6-11-24.6-24.6c0-13.6,11-24.6,24.6-24.6c13.6,0,24.6,11,24.6,24.6C523.7,513.9,512.7,524.9,499.1,524.9z"/></g>
</svg>