<svg xmlns="http://www.w3.org/2000/svg" xmlns:xlink="http://www.w3.org/1999/xlink" version="1.1" x="0px" y="0px" viewBox="0 0 24 30" enable-background="new 0 0 24 24" xml:space="preserve">
<defs>
  <style type="text/css">
   <![CDATA[
    .class1 {fill:white}
   ]]>
  </style>
</defs>

    <g><path class="class1" d="M0.849,16.972l1.362-8.598c0.181-1.146,1.3-2.114,2.443-2.114h15.86c0.008,0.001,0.016,0,0.02,0c0.222,0,0.4-0.179,0.4-0.4   c0-0.082-0.024-0.158-0.066-0.221c-0.283-0.921-1.271-2.182-2.998-2.182h-4.989C12.684,2.501,12.22,1.62,10.751,1.62h-8.58   c-0.544,0-1.061,0.218-1.456,0.615C0.294,2.656,0.053,3.248,0.053,3.856V16.91c0,0.208,0.161,0.382,0.369,0.399   c0.011,0,0.021,0.001,0.031,0.001C0.649,17.31,0.818,17.168,0.849,16.972z M0.854,3.855C0.853,3.457,1.009,3.072,1.281,2.8   c0.244-0.245,0.561-0.38,0.89-0.38h8.58c0.9,0,1.228,0.35,1.4,1.498c0.029,0.196,0.197,0.34,0.396,0.34h5.324   c1.108,0,1.744,0.664,2.049,1.203H4.655c-1.54,0-2.991,1.251-3.234,2.789l-0.566,3.58V3.855z"/><path class="class1" d="M2.961,10.309L1.123,21.917c-0.018,0.116,0.016,0.233,0.092,0.322c0.075,0.089,0.187,0.14,0.304,0.14h20.159   c0.196,0,0.364-0.143,0.396-0.337l1.838-11.608c0.122-0.776-0.072-1.509-0.547-2.064c-0.468-0.548-1.147-0.849-1.914-0.849H6.195   C4.655,7.521,3.204,8.771,2.961,10.309z M22.756,8.889c0.32,0.375,0.45,0.879,0.364,1.42L21.336,21.58H1.987l1.765-11.146   c0.181-1.146,1.3-2.114,2.443-2.114H21.45C21.978,8.32,22.442,8.522,22.756,8.889z"/><path class="class1" d="M11.949,16.114c-0.271-0.296-0.657-0.485-1.088-0.485c-0.817,0-1.482,0.665-1.482,1.481c0,0.817,0.665,1.482,1.482,1.482   c0.816,0,1.481-0.665,1.481-1.482c0-0.097-0.011-0.191-0.029-0.282l1.062-0.642c0.271,0.29,0.653,0.474,1.08,0.474   c0.817,0,1.482-0.665,1.482-1.481s-0.665-1.481-1.482-1.481c-0.528,0-0.989,0.28-1.252,0.698l-0.968-0.644   c0.067-0.169,0.107-0.352,0.107-0.545c0-0.817-0.665-1.481-1.481-1.481c-0.817,0-1.482,0.665-1.482,1.481s0.665,1.481,1.482,1.481   c0.333,0,0.637-0.115,0.885-0.301l1.231,0.819c0.002,0.093,0.01,0.184,0.027,0.271L11.949,16.114z M10.861,17.793   c-0.376,0-0.682-0.306-0.682-0.682s0.306-0.682,0.682-0.682s0.681,0.306,0.681,0.682S11.237,17.793,10.861,17.793z M14.456,14.498   c0.376,0,0.682,0.306,0.682,0.682s-0.306,0.682-0.682,0.682s-0.681-0.306-0.681-0.682S14.08,14.498,14.456,14.498z M10.861,13.888   c-0.376,0-0.682-0.306-0.682-0.682s0.306-0.682,0.682-0.682s0.681,0.306,0.681,0.682S11.237,13.888,10.861,13.888z"/></g><text x="0" y="39" fill="#000000" font-size="5px" font-weight="bold" font-family="'Helvetica Neue', Helvetica, Arial-Unicode, Arial, Sans-serif">Created by Atif Arshad</text><text x="0" y="44" fill="#000000" font-size="5px" font-weight="bold" font-family="'Helvetica Neue', Helvetica, Arial-Unicode, Arial, Sans-serif">from the Noun Project</text></svg>