<svg xmlns="http://www.w3.org/2000/svg" xmlns:xlink="http://www.w3.org/1999/xlink" version="1.1" x="0px" y="0px" viewBox="0 0 65 81.25" style="enable-background:new 0 0 65 65;" xml:space="preserve">
<defs>
  <style type="text/css">
   <![CDATA[
    .class1 {fill:white}
   ]]>
  </style>
</defs>

    <g><g><path class="class1" d="M18.4,33.5c2.1,0,3.7-1.7,3.7-3.7c0-2.1-1.7-3.7-3.7-3.7s-3.7,1.7-3.7,3.7C14.7,31.8,16.4,33.5,18.4,33.5z M18.4,28    c1,0,1.7,0.8,1.7,1.7s-0.8,1.7-1.7,1.7s-1.7-0.8-1.7-1.7S17.5,28,18.4,28z"/><path class="class1" d="M46.6,33.5c2.1,0,3.7-1.7,3.7-3.7c0-2.1-1.7-3.7-3.7-3.7s-3.7,1.7-3.7,3.7C42.8,31.8,44.5,33.5,46.6,33.5z M46.6,28    c1,0,1.7,0.8,1.7,1.7s-0.8,1.7-1.7,1.7c-1,0-1.7-0.8-1.7-1.7S45.6,28,46.6,28z"/><path class="class1" d="M46.6,34.6c-1.9,0-3.7,0.7-5.1,1.9c-1.9-2.9-5.2-4.9-8.9-4.9c-3.7,0-7,2-8.9,4.9c-1.4-1.2-3.2-1.9-5.1-1.9    c-4.4,0-7.9,3.6-7.9,7.9v2.2c0,0.6,0.4,1,1,1h10.4c0.1,0.5,0.5,0.8,1,0.8h19.3c0.5,0,0.9-0.4,1-0.8h10.4c0.6,0,1-0.4,1-1v-2.2    C54.5,38.1,51,34.6,46.6,34.6z M32.5,33.6c4.8,0,8.6,3.9,8.6,8.6v2.3H23.9v-2.3C23.9,37.5,27.7,33.6,32.5,33.6z M12.5,42.5    c0-3.3,2.7-5.9,5.9-5.9c1.6,0,3,0.6,4.2,1.7c-0.5,1.2-0.8,2.5-0.8,3.9v1.5h-9.4V42.5z M52.5,43.7h-9.3v-1.5c0-1.4-0.3-2.7-0.8-3.9    c1.1-1.1,2.6-1.7,4.2-1.7c3.3,0,5.9,2.7,5.9,5.9V43.7z"/><path class="class1" d="M32.5,30.5c2.6,0,4.8-2.2,4.8-4.8s-2.2-4.8-4.8-4.8s-4.8,2.2-4.8,4.8S29.9,30.5,32.5,30.5z M32.5,22.9    c1.5,0,2.8,1.3,2.8,2.8s-1.3,2.8-2.8,2.8s-2.8-1.3-2.8-2.8S31,22.9,32.5,22.9z"/><path class="class1" d="M64.3,15.9c-0.2-0.2-0.5-0.3-0.8-0.3h-3.8V3.9c0-0.6-0.4-1-1-1h-18c-0.2,0-0.5,0.1-0.6,0.2l-7,5.8H6.3c-0.6,0-1,0.4-1,1    v5.6H1.5c-0.3,0-0.6,0.1-0.8,0.3c-0.2,0.2-0.3,0.5-0.2,0.8L5.3,51c0.1,0.5,0.5,0.9,1,0.9h25.2v4.2h-7c-0.6,0-1,0.4-1,1v1H12.6    c-0.6,0-1,0.4-1,1s0.4,1,1,1h10.9v1c0,0.6,0.4,1,1,1h16c0.6,0,1-0.4,1-1v-1h10.9c0.6,0,1-0.4,1-1s-0.4-1-1-1H41.5v-1    c0-0.6-0.4-1-1-1h-7v-4.2h25.2c0.5,0,0.9-0.4,1-0.9l4.8-34.3C64.5,16.4,64.4,16.1,64.3,15.9z M39.5,60.1h-14v-2h14V60.1z     M7.3,10.9h26.1c0.2,0,0.5-0.1,0.6-0.2l7-5.8h16.7v10.7H7.3V10.9z M57.8,49.9c-6.2,0-37.3,0-50.6,0L2.6,17.5c4.4,0,55.3,0,59.7,0    L57.8,49.9z"/></g></g></svg>