<svg xmlns="http://www.w3.org/2000/svg" xmlns:xlink="http://www.w3.org/1999/xlink" version="1.1" x="0px" y="0px" viewBox="0 0 56 70" style="enable-background:new 0 0 56 56;" xml:space="preserve">
  <defs>
  <style type="text/css">
   <![CDATA[
    .class1 {fill:white}
   ]]>
  </style>
</defs>

    <path class="class1" d="M3,45.3789062v6.625c0,0.5527344,0.4477539,1,1,1h18c0.5522461,0,1-0.4472656,1-1v-6.625  c0-3.4462891-2.8037109-6.25-6.25-6.25H13H9.25C5.8037109,39.1289062,3,41.9326172,3,45.3789062z M16.75,41.1289062  c2.3432617,0,4.25,1.90625,4.25,4.25v5.625H5v-5.625c0-2.34375,1.9067383-4.25,4.25-4.25H16.75z"/><path class="class1" d="M46.75,39.1289062H43h-3.75c-3.4462891,0-6.25,2.8037109-6.25,6.25v6.625c0,0.5527344,0.4477539,1,1,1h18  c0.5522461,0,1-0.4472656,1-1v-6.625C53,41.9326172,50.1962891,39.1289062,46.75,39.1289062z M51,51.0039062H35v-5.625  c0-2.34375,1.9067383-4.25,4.25-4.25h7.5c2.3432617,0,4.25,1.90625,4.25,4.25V51.0039062z"/><path class="class1" d="M48.7167969,33.4121094c0-3.1523438-2.5644531-5.7167969-5.7167969-5.7167969  c-2.8106689,0-5.1486206,2.0405273-5.6235352,4.7167969h-8.3769531v-7.1582031h6.8920898c0.5522461,0,1-0.4472656,1-1V3.9960938  c0-0.5527344-0.4477539-1-1-1H23.4648438c-0.2651367,0-0.5195312,0.1054688-0.7070312,0.2929688l-3.3569336,3.3564453  c-0.1870117,0.1875-0.2924805,0.4423828-0.2924805,0.7070312v16.9013672c0,0.5527344,0.4477539,1,1,1h6.8911133v7.1582031  h-8.3759766C18.1486206,29.7358398,15.8106689,27.6953125,13,27.6953125c-3.1523438,0-5.7167969,2.5644531-5.7167969,5.7167969  S9.8476562,39.1289062,13,39.1289062c2.8106689,0,5.1486206-2.0405273,5.6235352-4.7167969h9.3759766h9.3769531  C37.8513794,37.0883789,40.1893311,39.1289062,43,39.1289062C46.1523438,39.1289062,48.7167969,36.5644531,48.7167969,33.4121094z   M13,37.1289062c-2.0493164,0-3.7167969-1.6669922-3.7167969-3.7167969S10.9506836,29.6953125,13,29.6953125  s3.7167969,1.6669922,3.7167969,3.7167969S15.0493164,37.1289062,13,37.1289062z M21.1083984,23.2539062V7.7666016  l2.7705078-2.7705078h11.0126953v18.2578125H21.1083984z M43,37.1289062c-2.0493164,0-3.7167969-1.6669922-3.7167969-3.7167969  S40.9506836,29.6953125,43,29.6953125s3.7167969,1.6669922,3.7167969,3.7167969S45.0493164,37.1289062,43,37.1289062z"/></svg>