<?xml version="1.0" encoding="utf-8"?>
<!-- Svg Vector Icons : http://www.onlinewebfonts.com/icon -->
<!DOCTYPE svg PUBLIC "-//W3C//DTD SVG 1.1//EN" "http://www.w3.org/Graphics/SVG/1.1/DTD/svg11.dtd">
<svg version="1.1" xmlns="http://www.w3.org/2000/svg" xmlns:xlink="http://www.w3.org/1999/xlink" x="0px" y="0px" viewBox="0 0 1000 1000" enable-background="new 0 0 1000 1000" xml:space="preserve">
<defs>
  <style type="text/css">
   <![CDATA[
    .class1 {fill:white}
   ]]>
  </style>
 </defs>
<g><g transform="translate(0.000000,511.000000) scale(0.100000,-0.100000)"><path class="class1" d="M1938.9,4991.1c-91-27.7-1743-1663.8-1800.3-1786.5c-47.5-95-51.4-239.4-9.9-336.3c65.3-158.3,459-508.4,706.3-629.1c298.7-146.4,680.6-189.9,1014.9-116.7l152.3,31.6L3620.5,535.7l1618.3-1618.3l-164.2-178.1c-261.1-280.9-366-520.3-366-844.8c0-197.8,39.6-362,134.5-544.1c61.3-120.7,146.4-213.7,654.8-724.1c593.5-591.5,789.4-761.7,1090.1-949.6c941.7-583.6,2071.4-629.2,2763.8-108.8c225.5,170.1,397.6,455,494.6,817.1c47.5,174.1,53.4,229.5,53.4,550c2,401.6-19.8,540.1-142.4,910.1c-118.7,362-324.5,732-595.5,1068.3c-59.3,77.1-368,397.6-684.5,714.2c-502.5,502.5-591.5,583.6-714.2,646.9c-186,95-336.3,132.6-542.1,132.6c-326.4,0-567.8-104.9-846.7-368L6200.3-125L4576,1501.2L2953.8,3127.4l27.7,89c41.5,126.6,55.4,498.6,27.7,662.8c-31.7,180-120.7,405.6-223.6,563.8c-122.7,191.9-461,520.3-561.9,550C2126.8,5020.7,2033.8,5020.7,1938.9,4991.1z M2326.6,4532.1c201.8-207.7,316.5-401.6,373.9-623.2c49.5-193.9,33.6-516.4-35.6-712.2l-53.4-148.4L3956.8,1703L5302.1,357.7l-271-273l-273-271L3412.8,1158.9L2067.5,2504.2l-138.5-53.4c-124.6-47.5-166.2-53.4-395.7-55.4c-211.7,0-280.9,7.9-395.7,43.5c-199.8,63.3-366,170.1-565.8,362c-146.4,138.5-176.1,178.1-176.1,227.5c0,51.4,106.8,166.2,817.1,874.4c708.3,710.2,823,817.1,874.4,817.1C2136.7,4720,2178.3,4688.4,2326.6,4532.1z M5810.6-150.8c265.1-271,282.9-292.8,391.7-510.4c63.3-124.6,187.9-368,280.9-540.1c91-174.1,164.2-318.5,160.2-322.5c-4-3.9-118.7,51.4-255.2,122.7c-134.5,69.2-373.9,191.9-532.2,271l-286.9,142.5l-290.8,284.9c-162.2,158.3-292.8,294.8-292.8,306.7c0,27.7,498.6,526.3,524.3,526.3C5521.7,130.2,5656.2,3.6,5810.6-150.8z M7577.2,37.2C7690-18.2,7779.1-101.3,8329-655.2c674.6-678.6,785.4-813.1,977.3-1193c225.5-441.2,322.5-850.7,302.7-1293.9c-11.9-298.7-47.5-451.1-154.3-680.6c-140.5-302.7-397.6-510.4-769.6-617.3c-207.7-61.3-668.7-77.2-929.8-31.7c-251.2,43.5-500.5,128.6-761.7,261.1c-383.8,191.9-536.1,314.6-1222.6,997.1c-761.7,753.8-755.8,745.9-755.8,1107.9c0,302.7,37.6,387.8,288.8,643l180,184l170.1-83.1c95-43.5,328.4-164.2,520.3-263.1c393.7-205.8,500.5-241.4,619.2-199.8c110.8,37.6,160.2,110.8,158.3,243.3c-2,116.7,2,108.8-364,821l-195.9,385.8l162.3,164.2c263.1,267.1,387.8,322.5,696.4,314.6C7424.9,98.5,7462.5,90.6,7577.2,37.2z"/></g></g>
</svg>