<?xml version="1.0" encoding="utf-8"?>
<!-- Svg Vector Icons : http://www.onlinewebfonts.com/icon -->
<!DOCTYPE svg PUBLIC "-//W3C//DTD SVG 1.1//EN" "http://www.w3.org/Graphics/SVG/1.1/DTD/svg11.dtd">
<svg version="1.1" xmlns="http://www.w3.org/2000/svg" xmlns:xlink="http://www.w3.org/1999/xlink" x="0px" y="0px" viewBox="0 0 1000 1000" enable-background="new 0 0 1000 1000" xml:space="preserve">
<defs>
  <style type="text/css">
   <![CDATA[
    .class1 {fill:white}
   ]]>
  </style>
 </defs>
<g><g transform="translate(0.000000,512.000000) scale(0.100000,-0.100000)"><path class="class1" d="M7215.1,4761.1c-1.9-141.9-1.9-1825.8-1.9-3739.7c0-1914,0-3528.8,1.9-3586.3v-105.5h508.2h508.2v3845.2V5020h-508.2h-508.2V4761.1z"/><path class="class1" d="M429.9,4429.3C247.7,4114.8,100,3850.1,100,3844.4c0-7.7,117-13.4,258.9-13.4h258.9V-215.6v-4046.6h4046.6H8711v-258.9c0-141.9,5.8-258.9,13.4-258.9c21.1,0,1156.4,659.7,1156.4,671.2c0,11.5-1135.3,671.2-1156.4,671.2c-7.7,0-13.4-117-13.4-258.9v-258.9H4817.8H924.7V-62.2V3831h258.9c141.9,0,258.9,5.8,258.9,13.4c0,21.1-659.7,1156.4-671.2,1156.4C765.5,5000.8,612.1,4743.8,429.9,4429.3z"/><path class="class1" d="M5540.8,3280.5c-7.7-5.7-13.4-1348.2-13.4-2982.2v-2968.8h517.8H6563V311.8V3294h-504.4C5780.5,3294,5546.6,3288.2,5540.8,3280.5z"/><path class="class1" d="M3872.3,1554.5c-7.7-5.7-13.4-960.8-13.4-2119.2v-2105.7h517.8h517.8v2119.2v2119.2h-504.4C4112.1,1567.9,3878.1,1562.2,3872.3,1554.5z"/><path class="class1" d="M8877.8,1554.5c-7.7-5.7-13.4-960.8-13.4-2119.2v-2105.7h517.8H9900v2119.2v2119.2h-504.4C9117.5,1567.9,8883.6,1562.2,8877.8,1554.5z"/><path class="class1" d="M2190.4-1327.9v-1342.5h517.8H3226v1342.5V14.5h-517.8h-517.8V-1327.9z"/></g></g>
</svg>