<?xml version="1.0" encoding="utf-8"?>
<!-- Svg Vector Icons : http://www.onlinewebfonts.com/icon -->
<!DOCTYPE svg PUBLIC "-//W3C//DTD SVG 1.1//EN" "http://www.w3.org/Graphics/SVG/1.1/DTD/svg11.dtd">
<svg version="1.1" xmlns="http://www.w3.org/2000/svg" xmlns:xlink="http://www.w3.org/1999/xlink" x="0px" y="0px" viewBox="0 0 1000 1000" enable-background="new 0 0 1000 1000" xml:space="preserve">
<defs>
  <style type="text/css">
   <![CDATA[
    .class1 {fill:white}
   ]]>
  </style>
 </defs>
<g><g transform="translate(0.000000,511.000000) scale(0.100000,-0.100000)"><path class="class1" d="M4244.4,4694.3c-92-23-254.9-118.8-306.6-180.2c-26.8-32.6-70.9-101.6-99.6-155.2l-51.7-97.8V111.9v-4149.2l69-124.6c80.5-145.6,203.1-249.1,354.6-297.1c84.3-26.8,170.6-30.7,529-24.9l427.4,5.7l120.7,65.2c134.2,72.8,191.7,132.2,268.3,277.9l51.7,97.7l5.7,4110.9c5.7,4578.5,15.3,4210.5-126.5,4398.3c-46,61.3-113.1,116.9-195.5,161l-124.6,69l-431.2,3.8C4497.4,4707.7,4277,4701.9,4244.4,4694.3z"/><path class="class1" d="M6229.9,2871.7V1643.2l1309,5.7l1307.1,5.8l92,46c107.3,51.8,253,184,599.9,540.5c318.1,325.8,362.2,402.5,362.2,630.5c0,228.1-36.4,293.2-354.6,622.9c-341.1,354.6-496.4,494.4-607.5,548.1l-92,46l-1307.1,5.7l-1309,5.8V2871.7z"/><path class="class1" d="M1139.7,3458.1c-44.1-13.4-116.9-51.7-162.9-82.4c-107.3-74.7-688-661.2-774.3-780c-116.9-166.7-136.1-412-46-599.9c28.8-55.6,145.7-195.5,295.1-350.7c339.2-352.6,506-504,617.1-557.7l92-46l1002.3-5.7l1000.4-5.8v1228.5V3485l-971.7-1.9C1455.9,3483,1199.1,3477.3,1139.7,3458.1z"/><path class="class1" d="M6229.9-194.7v-1228.5l695.7,5.7c688,5.7,693.8,5.7,789.6,51.7c69,32.6,201.2,149.5,471.4,421.6c452.3,452.3,486.8,502.1,486.8,749.3c0,231.9-34.5,293.2-362.2,630.5c-352.6,364.1-490.6,486.8-601.8,542.4c-88.2,44.1-101.6,44.1-783.8,49.8l-695.7,5.8V-194.7z"/></g></g>
</svg>