<?xml version="1.0" encoding="utf-8"?>
<!-- Svg Vector Icons : http://www.onlinewebfonts.com/icon -->
<!DOCTYPE svg PUBLIC "-//W3C//DTD SVG 1.1//EN" "http://www.w3.org/Graphics/SVG/1.1/DTD/svg11.dtd">
<svg version="1.1" xmlns="http://www.w3.org/2000/svg" xmlns:xlink="http://www.w3.org/1999/xlink" x="0px" y="0px" viewBox="0 0 1000 1000" enable-background="new 0 0 1000 1000" xml:space="preserve">
<defs>
  <style type="text/css">
   <![CDATA[
    .class1 {fill: #0da335}
   ]]>
  </style>
 </defs>
<g><g transform="translate(0.000000,511.000000) scale(0.100000,-0.100000)"><path class="class1" d="M4447.4,4990.5C2430.3,4743.1,798.6,3352.3,264.3,1425.1C130.7,945.4,100,700.1,100,108.8c2.2-591.3,35-860.7,164.3-1322.8c464.3-1649.2,1756.5-2943.5,3401.2-3405.6c468.7-131.4,738.1-164.3,1329.4-166.4c591.3,0,854.1,32.9,1329.4,166.4c1644.7,462.1,2943.5,1763,3399,3405.6c199.3,720.5,232.1,1557.2,87.6,2275.5C9616,2031.7,9158.2,2888,8466.2,3580.1c-733.7,733.7-1649.1,1200.2-2704.8,1381.9C5516.1,5003.7,4694.8,5021.2,4447.4,4990.5z M7154.3,2353.7c273.8-81,409.6-418.3,269.4-668c-41.6-74.5-2253.6-2987.3-2794.6-3681.6c-216.8-280.3-521.2-315.4-753.4-89.8C3731.2-1943.3,2633.9-640.2,2590.2-559.2c-120.5,230-28.5,532.2,197.1,648.3c129.2,65.7,311,63.5,446.8-4.4c87.6-43.8,181.8-140.1,523.4-543.1c230-271.6,424.9-492.8,433.6-492.8c6.6-2.2,551.9,703,1211.1,1563.7c657,860.7,1215.5,1590,1241.8,1616.3c76.7,83.2,227.8,151.1,346,155.5C7020.7,2386.5,7095.2,2371.2,7154.3,2353.7z"/></g></g>
</svg>