<?xml version="1.0" encoding="utf-8"?>
<!-- Svg Vector Icons : http://www.onlinewebfonts.com/icon -->
<!DOCTYPE svg PUBLIC "-//W3C//DTD SVG 1.1//EN" "http://www.w3.org/Graphics/SVG/1.1/DTD/svg11.dtd">
<svg version="1.1" xmlns="http://www.w3.org/2000/svg" xmlns:xlink="http://www.w3.org/1999/xlink" x="0px" y="0px" viewBox="0 0 1000 1000" enable-background="new 0 0 1000 1000" xml:space="preserve">
<defs>
  <style type="text/css">
   <![CDATA[
    .class1 {fill:white}
   ]]>
  </style>
 </defs>
<g><path class="class1" d="M834.9,330.1l-42.7,610.4c0,27.3-21.4,49.5-47.8,49.5H255.7c-26.4,0-47.8-22.2-47.8-49.5l-42.7-610.4v-49.5h669.8V330.1L834.9,330.1z M356.5,429.1c0-27.4-21.5-49.5-47.8-49.5c-26.4,0-47.8,22.1-47.8,49.5v412.4c0,27.3,21.4,49.5,47.8,49.5c26.4,0,47.8-22.2,47.8-49.5V429.1L356.5,429.1z M547.9,429.1c0-27.4-21.4-49.5-47.8-49.5c-26.4,0-47.8,22.1-47.8,49.5v412.4c0,27.3,21.4,49.5,47.8,49.5c26.4,0,47.8-22.2,47.8-49.5V429.1L547.9,429.1z M739.2,429.1c0-27.4-21.5-49.5-47.8-49.5c-26.4,0-47.8,22.1-47.8,49.5v412.4c0,27.3,21.4,49.5,47.8,49.5c26.4,0,47.8-22.2,47.8-49.5V429.1L739.2,429.1z"/><path class="class1" d="M125.4,237.2c1-21.5-0.3-42.7,3.6-62.9c5.1-26.5,23.1-43.9,50.7-45.9c32.4-2.4,64.9-1.8,97.3-2.4c9.4-0.2,18.7,0,31,0c0-18-0.3-32.7,0-47.4c0.9-39.5,23.6-66.7,62.2-67.4c92.1-1.5,184.3-1.6,276.4-0.1c38.9,0.7,59.9,25.5,61.1,64.8c0.4,15.6,0.1,31.2,0.1,50.1c26,0,48.7,1.1,71.1-0.2c83.9-4.9,103.9,38.2,93.1,111.4C624.5,237.2,376.8,237.2,125.4,237.2L125.4,237.2z M365.6,128c92.4,0,181.7,0.3,271.1-0.1c27.8-0.1,14.9-22.2,17.1-35.3c2.6-15.8-1-26.5-21.7-26.2c-65.8,1-131.5,0.4-197.3,0.4c-22.6,0-45.2,0-69.2,0C365.6,88.2,365.6,106.2,365.6,128L365.6,128z"/></g>
</svg>