<?xml version="1.0" encoding="utf-8"?>
<!-- Svg Vector Icons : http://www.onlinewebfonts.com/icon -->
<!DOCTYPE svg PUBLIC "-//W3C//DTD SVG 1.1//EN" "http://www.w3.org/Graphics/SVG/1.1/DTD/svg11.dtd">
<svg version="1.1" xmlns="http://www.w3.org/2000/svg" xmlns:xlink="http://www.w3.org/1999/xlink" x="0px" y="0px" viewBox="0 0 1000 1000" enable-background="new 0 0 1000 1000" xml:space="preserve">
<defs>
  <style type="text/css">
   <![CDATA[
    .class1 {fill:white}
   ]]>
  </style>
 </defs>
<g><path class="class1" d="M806.3,653.1C806.3,638.6,805.6,653.7,806.3,653.1 M990,714.4c0-33.6-12.7-85.4-69.7-117.8c-23.7-13.5-51-2.7-83.4,25.9l-30.6,30.6v183.8h122.5c46.3,0,61.3-16.8,61.3-61.2C990,775.2,990,714.9,990,714.4 M193.7,653.1C194.4,653.7,193.7,638.6,193.7,653.1 M79.7,596.6C22.7,629,10,680.8,10,714.4c0,0.5-0.1,60.8,0,61.3c0,44.4,14.9,61.2,61.3,61.2h122.5V653.1l-30.6-30.6C130.7,593.9,103.4,583.1,79.7,596.6 M806.5,530.2c24.6,0,91.8-31.9,91.8-98v-49c0-66.1-48.5-98-91.8-98c-41.9,0-91.8,31.9-91.8,98v49C714.7,498.4,783.2,530.2,806.5,530.2 M743.9,652.8c-0.1-0.5-0.2-0.9-0.2-1.4c-0.7-5.8-1.8-11.4-3.3-16.9c0-0.1,0-0.1,0-0.2c-3.2-11.8-8.6-23.1-16.7-34.2v0c-13.3-18.3-33.3-37-65.7-55.3c-17.2-9.6-24.7-14-35.4-14c-16.9,0-31.6,13.1-56.5,35.9h0l-22.6,20.8c-0.8,0.7-25.2,35.2-43.4,35.2c-18.2,0-42.6-34.4-43.4-35.2L434,566.6h0c-24.8-22.8-39.6-35.9-56.5-35.9c-10.6,0-20.1,4.4-35.4,14c-31.5,19.9-52.5,37-65.7,55.3h0c0,0.1,0,0.1-0.1,0.2c-8,11.1-13.4,22.3-16.5,34c-0.1,0.1-0.1,0.2-0.2,0.4c-1.5,5.5-2.6,11-3.3,16.7c0,0.5-0.2,1.1-0.2,1.6c-0.7,6.1-1.1,12.3-1.1,18.7c0,0.7,0,134.1,0,134.7c0,43.6,16.4,61.3,61.3,61.3h367.5c45.2,0,61.3-16.7,61.3-61.3c0-0.6,0-134,0-134.7C745,665.1,744.6,658.9,743.9,652.8 M194,530.2c24.5,0,91.8-31.9,91.8-98v-49c0-66.1-48.5-98-91.8-98c-41.9,0-91.8,31.9-91.8,98v49C102.2,498.4,170.8,530.2,194,530.2 M500,500.4c85.9,0,152.7-89.1,152.7-181.3v-28.9c0-92.2-66.8-157.7-152.7-157.7c-85.9,0-152.7,65.5-152.7,157.7v28.9C347.3,411.3,414.1,500.4,500,500.4"/></g>
</svg>