<?xml version="1.0" encoding="utf-8"?>
<!-- Svg Vector Icons : http://www.onlinewebfonts.com/icon -->
<!DOCTYPE svg PUBLIC "-//W3C//DTD SVG 1.1//EN" "http://www.w3.org/Graphics/SVG/1.1/DTD/svg11.dtd">
<svg version="1.1" xmlns="http://www.w3.org/2000/svg" xmlns:xlink="http://www.w3.org/1999/xlink" x="0px" y="0px" viewBox="0 0 1000 1000" enable-background="new 0 0 1000 1000" xml:space="preserve">
<defs>
  <style type="text/css">
   <![CDATA[
    .class1 {fill: #555}
   ]]>
  </style>
 </defs>
<g><path class="class1" d="M500,10C229.2,10,10,230,10,500.4C10,770.8,229.2,990,500,990c270.6,0,490-219.2,490-489.6C990,230,770.6,10,500,10z M513.6,594.5c-3,2.6-11.6,3.8-13.6,3.8c-54.2,0-98.1-43.8-98.1-97.9c0-32.9,16.7-61.6,41.5-79.4V189.9c0-31.2,25.3-56.5,56.6-56.5c31.3,0,56.4,25.2,56.4,56.5V421c25,17.8,41.5,46.5,41.5,79.4c0,1.8-0.6,12.5-1.2,14.3c24.4,26.7,24.4,26.7,42.6,45.4l69.8,69c22.2,22.2,22.2,58.2,0,80.2c-22.1,22.2-57.2,22.2-79.4,0"/></g>
</svg>

