<?xml version="1.0" encoding="UTF-8"?>
<!DOCTYPE svg PUBLIC "-//W3C//DTD SVG 1.1//EN" "http://www.w3.org/Graphics/SVG/1.1/DTD/svg11.dtd">
<!-- Creator: CorelDRAW 2018 (64-Bit) -->
<svg xmlns="http://www.w3.org/2000/svg" xml:space="preserve" width="2000px" height="800px" version="1.1" style="shape-rendering:geometricPrecision; text-rendering:geometricPrecision; image-rendering:optimizeQuality; fill-rule:evenodd; clip-rule:evenodd"
viewBox="21000 20000 16500 1000"
 xmlns:xlink="http://www.w3.org/1999/xlink">
 <defs>
  <style type="text/css">
   <![CDATA[
    .str0 {stroke:#FECC0B;stroke-width:7.62;stroke-miterlimit:22.9256}
    .fil4 {fill:#FDD837}
    .fil3 {fill:#FECC0B}
    .fil1 {fill:#FFF;fill-rule:nonzero}
    .fil0 {fill:#E52944;fill-rule:nonzero}
    .fil2 {fill:#FFF;fill-rule:nonzero}
   ]]>
  </style>
 </defs>
 <g id="Слой_x0020_1">
  <metadata id="CorelCorpID_0Corel-Layer"/>
  <path class="fil0" d="M23402.85 18917.01c23.43,-166.4 79.91,-327.9 156.49,-479.39 77.44,-151.23 182.21,-290.33 310.73,-405.94 127.78,-116.59 281.23,-205.98 445.38,-264.51 82.27,-28.4 166.58,-52.25 252.41,-66.39 85.59,-16.3 171.81,-24.84 259.08,-28.47 174.24,-7.13 351.72,12.59 521.41,63.07 170,49.5 331.43,128.8 476.74,229.84 145.67,100.93 275.21,223.24 388.24,358.28 56.72,67.45 108.26,138.99 156.06,213.11 23.89,37.08 46.68,74.93 68.34,113.7 10.83,19.41 21.38,39.06 31.61,59.09 10.51,20.71 19.65,38.92 30.55,63.93l-214.81 1.87c13.44,-34.26 25.33,-59.38 38.88,-87.84 13.47,-27.31 27.37,-54.23 42.01,-80.61 29.07,-52.85 60.43,-104.07 94.09,-153.71 66.67,-99.8 142.49,-193.25 225.14,-280.56 165.45,-174.28 361.77,-321.98 579.05,-428.84 108.37,-53.83 221.44,-98.35 337.36,-131.97 115.71,-34.01 233.82,-60.22 352.89,-75.04 59.4,-9.56 119.13,-12.63 178.82,-18.13 59.76,-2.65 119.13,-5.47 179.25,-5.47 120.19,0.07 241.08,9.24 361.17,28.86 239.82,38.55 477.2,120.5 687.81,251.6 210.93,129.89 394.62,305.96 532.55,511.95 278.7,412.57 373.42,929.53 296.94,1409.27 -18.21,120.37 -46.64,238.84 -83.51,354.26 -18.27,57.93 -39.37,114.23 -62.01,170.93 -24.73,59.09 -52.36,116.06 -83.15,170.1 -123.69,216.08 -281.1,396.63 -445.92,563.21 -165.31,166.44 -342.08,316.52 -522.92,458.86 -180.9,142.35 -366.04,277.11 -553.01,407.99 -187.08,130.7 -375.85,257.7 -565.61,382.26l-570.23 368.88c-189.02,123.15 -377.09,247.01 -557.95,377.18 -90.24,65.08 -179.53,131.02 -262.51,201.24 -41.62,34.91 -81.49,71.03 -117.82,108.3 -36.16,37.13 -69.22,76.16 -92.01,113.83l-57.89 95.78 -79.94 -66.42c-100.15,-83.22 -190.43,-166.76 -282.47,-252.56 -91.16,-85.62 -179.49,-173.96 -267.44,-262.36 -173.6,-179.08 -351.22,-353.55 -519.43,-537.53 -168.52,-183.52 -333.02,-370.92 -486.59,-567.26 -76.44,-98.39 -150.49,-198.69 -219.32,-302.55 -69.04,-103.57 -133.91,-210.18 -188.45,-321.84 127.14,213.51 281.69,407.89 445.7,592.95 162.91,186.17 336.2,363.08 513.22,535.81 178.51,171.3 357.05,342.75 546.13,502.57 93.63,80.73 188.74,159.7 283.71,238.22 94.58,77.79 192.05,156.77 287.51,226.41l-137.86 29.32c32.88,-61.07 72.1,-110.17 112.43,-156.21 40.5,-45.82 82.76,-87.84 125.9,-127.84 86.29,-80.12 175.4,-153.82 266.07,-224.73 181.79,-140.76 367.52,-272.55 553.3,-403.12l556.93 -388.62c185.27,-128.94 369.95,-257.81 551.03,-390.49 361.88,-264.72 714.06,-543.13 1022.07,-853.19 152.19,-155.43 292.42,-321.73 392.4,-500.06 24.97,-44.45 46.28,-89.75 65.01,-135.12 18.95,-48.54 37.36,-98.35 52.71,-148.52 31.29,-100.33 55.14,-202.84 70.03,-306.42 29.77,-206.97 27.09,-417.97 -12.25,-621.28 -39.37,-203.2 -117.4,-397.86 -230.68,-568.53 -112.89,-170.96 -262.43,-316.27 -436.14,-424.99 -173.88,-108.59 -370.62,-181.97 -576.58,-219.85 -103.01,-19.02 -208.31,-29.32 -314.43,-31.51 -53.02,-1.09 -106.82,0.67 -160.09,1.87 -53.06,4.17 -106.61,5.65 -159.14,13.3 -105.83,11.08 -209.83,32.46 -311.64,60.33 -102.02,27.44 -201.12,64.48 -296.23,109.68 -190.36,89.85 -366.43,211.24 -516.82,361.24 -75.17,74.82 -145.02,155.65 -206.69,242.32 -31.18,43.11 -60.32,87.67 -87.21,133.18 -13.47,22.72 -26.24,45.75 -38.48,68.82 -11.61,22.23 -24.28,48.16 -32.14,66.29l-112.86 260.84 -101.95 -258.97c-5.36,-13.62 -14.14,-33.27 -22.12,-50.16 -8.25,-17.54 -16.97,-35.11 -25.96,-52.6 -18.06,-34.96 -37.4,-69.57 -57.79,-103.61 -40.57,-68.23 -85.83,-133.81 -133.77,-197.17 -96.38,-126.33 -207.72,-241.34 -333.48,-337.19 -125.59,-95.92 -265.5,-172.82 -415.33,-223.91 -149.68,-51.22 -308.32,-78.38 -469.01,-81.42 -80.19,-1.34 -161.58,2.01 -241.41,12.49 -80.26,8.36 -158.96,25.86 -236.43,47.49 -154.02,45.79 -301.2,117.72 -429.05,218.29 -128.55,99.52 -237.35,225.61 -324.45,366.05 -86.89,140.61 -154.55,295.17 -194.17,458.04z"/>
  <path class="fil1" d="M22462.01 18623.41c-42.22,-49.25 -135.91,-75.55 -198.87,-20.74 -148.51,129.62 -476.26,1424.72 -478.12,1440.27 -1.85,-3.7 -48.51,-214.06 -63.32,-282.57 -10.74,-50.37 -22.97,-155.55 -62.59,-209.99 -30,-40.36 -63.7,-40.73 -111.1,-24.44 -24.08,8.52 -65.19,112.96 -93.7,194.8 -69.63,200.36 -115.18,326.64 -126.66,344.05 -5.18,-8.15 4.44,-272.94 39.26,-451.45 22.59,-115.92 77.4,-198.13 38.51,-217.39 -62.59,-31.48 -156.28,38.89 -178.5,77.4 -56.29,96.29 -65.55,303.31 -67.41,326.64 -11.48,152.96 -28.88,686.25 47.41,726.99 34.81,18.52 71.48,24.07 109.99,14.44 27.78,-6.66 37.04,-17.03 59.63,-104.43 7.03,-28.15 130.36,-510.34 153.32,-570.7 1.48,9.25 138.51,775.12 251.83,849.19 109.62,71.85 237.02,-6.29 148.14,-55.18 -107.4,-58.51 169.62,-1401.38 455.89,-1911.71 62.22,-110.36 97.77,-99.99 76.29,-125.18l0 0zm63.34 685.88c-105.92,-13.7 -76.67,12.96 -174.44,-19.26 -17.03,-5.92 -27.77,-1.48 -36.29,13.33 -14.44,25.19 -185.91,25.56 -139.99,98.89 14.81,23.7 37.04,39.99 61.11,52.58 37.77,19.63 -235.91,615.14 -131.47,1262.51 2.96,19.99 -42.22,12.59 -87.41,33.33 -74.06,34.07 -17.03,116.65 96.29,108.88 26.3,-1.85 1.86,-20 18.89,-27.41 158.51,-67.4 262.2,-76.29 201.84,-122.21 -16.67,-12.22 -34.81,-24.81 -56.66,-17.78 -61.85,21.11 -57.41,10.74 -55.93,-8.15 46.67,-598.1 216.28,-1107.69 222.21,-1248.79 0.37,-11.11 7.78,-17.04 18.15,-19.63 48.88,-11.85 94.06,-28.15 124.8,-14.82 8.15,3.71 17.78,1.12 23.33,-7.03 18.15,-25.56 -34.07,-77.77 -84.43,-84.44l0 0zm161.83 1484.71c12.59,22.59 61.48,44.44 90.74,40.73 54.07,-6.66 -15.56,41.85 164.43,-673.65 36.66,-146.66 180.36,-667.36 193.32,-671.8 177.39,-62.59 309.24,-116.29 502.92,-100 21.86,1.86 29.63,18.52 40.37,31.48 21.11,24.82 57.41,18.89 40,-19.25 -92.96,-205.55 -529.96,-97.41 -594.4,-77.41 -30,9.26 -67.03,-52.21 -111.1,14.82 -33.34,50.73 -420.71,146.65 -582.93,376.27 -28.88,41.1 6.67,78.14 54.45,100.73 23.7,11.11 34.07,8.89 53.32,-8.89 91.85,-84.07 331.83,-206.65 353.31,-212.21 21.48,-5.18 2.59,17.04 -20.74,91.85 -175.17,563.29 -210.72,1058.07 -183.69,1107.33l0 0zm708.47 -825.13c6.66,-30.37 17.4,-59.62 24.07,-89.99 6.67,-29.63 15.55,-58.89 23.7,-88.14 7.41,-25.19 5.56,-52.59 13.33,-77.41 10.74,-34.81 10,-69.99 8.89,-105.17 -0.37,-19.63 -5.18,-38.15 -16.66,-54.07 -23.7,-32.22 -54.07,-56.3 -91.48,-70.37 -42.59,-16.29 -60.73,-8.15 -72.58,36.3 -11.86,43.7 -20.37,87.77 -32.59,131.47 -9.63,35.92 -11.86,74.07 -18.15,111.1 -7.78,45.92 -8.52,92.59 -18.52,138.14 -9.26,42.22 -15.92,85.55 -23.7,128.14 -4.44,24.81 -9.63,49.25 -12.96,73.7 -4.08,27.77 -3.71,57.4 -40.37,63.69 -1.48,0.37 -2.96,1.86 -4.07,2.6 -39.63,24.81 -75.18,54.07 -107.03,87.77 -11.85,12.59 -22.22,26.66 -30,42.59 -9.26,19.26 -2.96,39.25 18.52,59.99 37.77,36.3 70.36,39.63 111.84,11.48 4.81,-3.33 9.63,-7.4 17.78,-6.29 -2.23,21.48 -5.93,42.96 -6.67,64.81 -1.48,32.59 -1.48,65.55 -1.11,98.14 0.37,32.22 4.44,63.7 18.89,93.7 11.11,23.7 27.03,42.59 44.81,60.36 17.77,17.41 39.25,29.63 64.81,32.59 17.03,1.85 26.66,-5.92 24.81,-22.22 -3.7,-31.85 0,-62.59 3.7,-94.44 6.3,-55.18 12.6,-110.36 23.34,-165.17 6.29,-31.48 9.63,-63.33 15.18,-94.81 3.33,-21.48 12.59,-41.85 9.63,-64.44 -1.11,-9.63 4.44,-17.4 15.18,-21.11 14.45,-4.81 27.41,-12.96 41.11,-19.62 48.15,-23.34 97.77,-43.71 148.14,-61.85 10,-3.71 21.48,-17.04 29.26,-9.26 7.4,7.04 1.48,22.59 -1.12,34.07 -12.59,49.26 -22.59,99.62 -31.47,149.99 -8.89,50.37 -21.11,99.99 -29.26,150.36 -10.37,65.18 -20.74,130.36 -26.3,195.91 -4.44,51.85 -6.66,104.44 0.74,156.66 6.3,46.29 24.08,85.18 62.22,112.58 30.37,21.85 63.7,37.41 102.59,31.11 19.63,-2.96 24.44,-19.26 9.63,-31.85 -20.74,-18.15 -25.93,-41.11 -28.15,-67.03 -3.33,-40 0.37,-79.63 4.07,-119.25 2.23,-27.04 5.93,-54.07 10,-81.11 5.19,-35.55 10.74,-71.1 18.15,-106.29 7.04,-34.44 8.15,-69.99 18.89,-104.06 4.44,-14.45 9.26,-29.26 11.48,-44.07 4.44,-34.45 11.11,-68.15 19.63,-101.48 18.14,-72.96 34.07,-146.28 55.18,-218.5 15.55,-52.59 27.03,-106.29 42.59,-158.88 10.74,-36.29 20,-73.33 31.11,-109.99 9.63,-32.22 19.62,-64.44 29.99,-96.66 8.15,-26.29 17.41,-52.22 24.82,-79.25 9.63,-35.19 23.7,-68.89 34.44,-103.7 7.04,-22.22 16.66,-43.7 23.7,-66.29 11.48,-35.55 23.33,-71.48 33.7,-107.4 10,-34.44 24.07,-68.14 32.22,-102.96 4.82,-21.1 10.74,-42.96 3.34,-66.29 -14.45,-44.44 -95.18,-79.25 -137.4,-70.73 -12.59,2.59 -23.7,10.74 -28.15,21.11 -11.11,26.29 -25.92,50.73 -36.29,77.03 -13.33,34.44 -26.3,68.88 -39.63,103.32 -7.04,18.89 -16.66,37.04 -20.74,56.3 -7.78,34.44 -20.74,67.03 -28.88,101.1 -9.63,41.48 -22.6,81.85 -33.71,122.95 -15.55,55.56 -29.25,111.85 -42.96,167.77 -15.55,63.7 -31.1,127.03 -43.7,191.47 -1.48,8.89 -2.22,22.59 -14.81,22.59 -22.22,0 -43.33,6.29 -64.44,11.11 -49.63,11.11 -99.99,18.15 -147.4,37.77 -3.7,1.86 -8.14,3.34 -13.33,0.74 8.15,-32.96 10.74,-67.03 18.15,-100.36l0 0z"/>
  <path class="fil2" d="M31528.73 18558.89c65.84,0 111.11,19.55 135.79,58.63 24.69,39.1 37.04,75.1 37.04,108.02l0 4055.13 -308.62 0c-49.37,0 -81.26,-10.29 -95.66,-30.86 -14.4,-20.58 -23.66,-41.15 -27.78,-61.72l0 -4129.2 259.23 0z"/>
  <path class="fil2" d="M34806.06 19207.79c0,-82.29 -22.63,-138.87 -67.89,-169.73 -45.27,-30.86 -98.76,-46.3 -160.48,-46.3l-228.37 0 0 1481.33 228.37 0c61.72,0 115.21,-17.48 160.48,-52.46 45.26,-34.97 67.89,-99.79 67.89,-194.42l0 -1018.42zm0 1907.21c0,-94.64 -22.63,-159.44 -67.89,-194.42 -45.27,-34.98 -98.76,-52.47 -160.48,-52.47l-228.37 0 0 1481.33 228.37 0c61.72,0 115.21,-15.43 160.48,-46.29 45.26,-30.86 67.89,-87.44 67.89,-169.74l0 -1018.41zm188.25 -444.4c45.26,16.46 85.38,41.15 122.42,74.07 31.89,28.8 60.69,64.81 85.38,108.02 23.66,43.2 36.01,97.72 36.01,163.55l0 1234.44c0,148.14 -52.47,273.64 -156.37,376.51 -104.93,102.87 -230.43,154.3 -378.56,154.3l-785.93 0 0 -2098.55 0 -12.34 0 -6.17 0 -6.17 0 -2098.55 785.93 0c74.06,0 144.02,13.38 209.85,40.13 64.81,26.74 121.39,63.78 168.71,111.09 46.3,47.32 84.36,102.88 113.16,166.65 28.8,63.78 43.21,132.7 43.21,206.77l0 1240.61c0,69.95 -12.35,125.5 -36.01,166.65 -24.69,41.15 -53.49,76.12 -85.38,104.93 -37.04,32.92 -77.16,57.6 -122.42,74.06z"/>
  <path class="fil2" d="M37006.16 22278.12c0,144.02 -50.41,267.46 -151.23,370.33 -100.81,102.87 -223.22,158.42 -367.24,166.65l-271.58 0c-148.13,0 -273.63,-52.46 -376.5,-157.39 -102.87,-104.93 -154.31,-231.45 -154.31,-379.59l0 -1598.6 0 -6.17 0 -1598.59c0,-148.14 51.44,-274.67 154.31,-379.6 102.87,-104.93 228.37,-157.39 376.5,-157.39l271.58 0c144.02,8.23 266.43,63.78 367.24,166.65 100.82,102.87 151.23,226.31 151.23,370.34l0 635.73c0,69.95 -12.35,122.41 -37.04,157.39 -24.69,34.97 -51.43,60.69 -80.24,77.15 -20.57,8.23 -63.77,27.78 -129.61,58.64 -65.84,30.86 -127.56,58.63 -185.17,83.33l0 -944.36c0,-61.72 -22.63,-112.12 -67.89,-151.21 -45.26,-39.1 -98.76,-58.64 -160.48,-58.64 -65.83,0 -120.36,19.54 -163.56,58.64 -43.21,39.09 -64.81,89.49 -64.81,151.21l0 1530.71 0 6.17 0 1530.71c0,61.72 21.6,115.21 64.81,160.47 43.2,45.26 97.73,67.9 163.56,67.9 61.72,0 115.22,-22.64 160.48,-67.9 45.26,-45.26 67.89,-98.75 67.89,-160.47l0 -567.84c0,-69.96 12.35,-122.42 37.04,-157.39 24.68,-34.98 51.43,-60.7 80.23,-77.16 20.57,-8.23 64.81,-27.77 132.7,-58.63 67.9,-30.86 128.59,-58.64 182.09,-83.33l0 1012.24z"/>
  <path class="fil2" d="M33798.01 18556.53c-24.68,54.53 -52.46,116.25 -83.32,185.17 -30.87,68.93 -50.41,111.11 -58.64,127.56 -12.35,29.83 -36,56.58 -70.98,81.27 -34.98,25.72 -87.44,38.06 -157.39,38.06l-339.47 0c-32.92,0 -58.63,10.29 -77.15,30.86 -18.52,20.57 -27.78,45.27 -27.78,74.07l0 3684.8 -333.3 0c-49.37,0 -81.26,-11.32 -95.66,-33.95 -14.41,-22.63 -23.67,-42.17 -27.78,-58.63l0 -3697.15 -604.87 0 0 -300.38c0,-38.06 12.34,-68.92 37.03,-93.61 24.69,-25.72 55.55,-38.07 92.58,-38.07l1746.73 0z"/>
  <path class="fil3" d="M26079.98 19693.61c-21.34,22.75 -107.85,61.6 -174.61,133.12 -75.82,81.24 -111.11,163.14 -124.57,177.17 -15.11,49.37 -53.99,131.38 -52.26,188.84 1.98,32.2 9.23,15.08 39.37,28.57 15.22,-21.83 23.86,-42.37 73.49,-33.33 0.01,0 17.4,4.98 18.56,5.53 5.99,2.8 10.17,5.98 15.28,10.73l14.45 16.09c1.11,-1.64 2.33,-6.44 2.7,-5.3 0.35,1.04 1.99,-3.9 2.42,-4.95 10.33,-24.78 4.23,-11.35 4.48,-12.01 0.55,-1.47 5.07,-12.65 7.73,-16.47l21.77 5.74c0.82,0.22 2.88,1.03 4.38,1.06l1.35 -24.76c16.02,-0.36 19.78,1.58 32.08,5.46l5.4 -14.03c5.52,-9.87 -11.92,-5.12 7.42,-7.7 6.49,21.33 -8.29,-21.17 -0.88,11.3 4.35,19.04 -9.53,0.97 7.29,15.47 35.25,-6.22 -19.75,-9.18 23.98,-10.04 -3.77,31.9 -12.58,55.02 36.23,52.2 5.57,-8.99 15.79,-19.46 4.84,-34.08 17.83,14.28 -1.27,14.43 24.68,28.36 0.95,-1.25 1.6,-5.34 1.82,-4.31l6.39 -14.81c27.85,-25.81 -27.74,14.24 7.31,-2.64 15.33,-7.38 14.79,-6.11 21.03,-27.79l1.91 -9.17c13.7,12.27 -0.92,2.94 17.59,11.85 0.03,0.12 27.8,5.99 -10.84,25.73l28.03 -1.74c-8.41,7.76 -3.53,-4.7 -4.12,19.51l1.38 29.24c8.67,7.49 16.2,6.5 29.01,8.81l-10.52 -40.07c13.76,-3.83 34.62,-0.38 53.44,1.98l-4.12 32.39c0.37,9.59 5.02,7.05 5.41,29.47 1.51,-1.5 3.17,-6.43 3.72,-5.22 0.5,1.13 2.71,-3.83 3.34,-4.98l7.55 -27.48c0.02,-1.41 -0.07,-5.79 -0.12,-7.34l7.37 -45.8c-39.73,3.05 -17.44,1.58 -35.37,-0.01 -43.63,-3.85 -3.95,-0.82 -28.96,6.32 -10.06,-19.25 11.51,-4.87 -5.5,-21.88 -10.21,-10.21 -25.77,-12.2 -36.22,-18.19l36.57 -11.5c-24.77,-19.84 -20.69,-6.42 -35.69,-9.43 -18.34,-3.69 -20.03,-18.2 -20.15,-23.56 -0.24,-11.16 -1.39,-18.4 15.13,-14.5 21.19,4.99 14.4,12.83 27.94,32.24l57.68 -13.93 1.99 27.18c1.6,-1.57 4.04,-6.7 5.19,-4.99 4.69,6.96 3.53,-20.41 25.36,-8.69 -6.9,18.85 2.47,32.47 -1.69,51.07 -0.52,2.35 -1.06,3.61 -1.79,6.01l-9.2 21.35c8.07,-0.45 13.87,-2.4 21.33,1.1l11.35 24.6c0.41,6.16 -0.38,6.29 -4.59,19.52 24.93,-4.78 28.67,-6.48 46.41,4.76l11 6.77c4.64,-29.61 10.9,-24.68 23.58,-46.84l31.7 -5.02c-7.96,-1.7 -15.46,8.61 -13.22,19.58l38.46 -18.99c5.19,28.82 11.01,18.65 0,56.72l-11.78 -21.05c-10.72,-7.74 10.35,-6.59 -13.95,-4.54 -22.48,1.89 -8.77,8.26 -24.86,21.16 -26.24,21.05 -15.95,-3.32 -32.61,24.48 29.74,9.93 12.07,-0.07 21.25,1.11 -3.32,4.03 -5.61,7.15 -9.85,11.02 -0.85,0.78 -2.47,1.99 -3.41,2.83l-11.11 9.53c-7.96,8.62 -14.95,20.5 -16.23,37l-20.95 -9.05c-18.3,-7.21 -27.91,-12.24 -49.21,-11.33l-1.35 27.84c-1.02,13.66 -9.44,9.6 -16.73,12.23 -1.48,0.53 -6.11,2.84 -7.59,3.55l-6.92 4.33c-0.79,0.36 -2.49,1.33 -3.26,1.6l-20.05 0.26c-0.55,-0.03 -2.48,-0.55 -3.57,-0.06l29.59 30.55c-0.3,1.18 -1.34,3.83 -1.6,5.21 -0.23,1.19 -0.82,3.4 -0.96,4.6 -2.53,23.66 -7.42,2 2.95,13.24 -26.04,7.66 -28.89,5.08 -50.18,20.17l-18.89 14.54c32.23,15.75 15.84,4.1 35.61,0.07 -0.75,0.44 -14.24,-20.34 -2.22,7.91 6.12,14.38 -8.96,3.25 10.73,10.61 -36.11,11.16 -6.8,12.77 -31.27,19.19l-33.24 12.6c-4.94,-3.87 -7.23,-5.68 -10.99,-8.57l-12.56 -9.33c-0.62,-0.42 -2.19,-1.32 -2.8,-1.74 -6.63,-4.55 2.11,9.67 -14.15,-11.84 -8.57,-11.35 -5.72,-6.38 -11.03,-21.48l-9.33 -75.32c-20.71,10.13 8.79,-17.4 -5.71,5.91 -11.12,17.89 8.36,4.42 -14.81,27.3 -13.38,13.22 -20.91,7.4 -40.36,16.89 43.43,12.41 60.45,-23.21 48.68,7.91 -2.97,7.86 -30.04,8.84 -36.89,12.5l-0.67 32.55c11.91,3.42 73.8,37.5 82.72,46.79 -14.93,29.88 -38.88,15.5 -60.89,31.4l-7.49 6.01c-6.26,4.76 3.01,2.94 -15.83,11.76 2.56,-23.12 6.41,-31.19 20.63,-42.76 -1.23,-1.16 -3.21,-4.5 -3.74,-3.38l-20.26 -25.77c-7.74,-10.64 -14.23,-20.36 -30.34,-16.82l-5.15 -22.14c15.81,-18.23 -14.38,-2.48 26.27,-16.56 -28.34,-12.88 -13.91,3.84 -19.49,-20.12 -6.36,5.46 -5.01,4.16 -17.37,6.12l5.13 16.28c-0.97,1.04 -5.57,6.11 -6.78,7.36 -11.55,11.96 3.89,2.16 -13.03,11.88 -12.2,-12.57 -21.34,-34.02 -39.74,-44.1l-2.45 27.13c-14.49,-10.51 25.24,-4.74 -9.89,-3.79 -20.18,0.55 -1.86,-1.48 -13.4,3.2 3.38,20.37 1.53,9.16 9.31,22.31l20.75 23.48c5.35,4.93 20.58,0.6 4.58,16.79 -14.37,14.54 -16.8,11.48 -40.53,24.5 17.85,-1.18 8.9,-1.48 22.97,3.89l12.36 6.22c1.65,0.79 11.89,5.36 11.91,5.37l-3.89 16.53c-11.71,5 15.45,-6.38 -14.36,-1.15 -0.69,0.12 -2.99,0.43 -4.22,1.23 5.46,8.8 6.53,8.56 4.89,12.85 24.12,8.77 48.8,-4.57 74.31,-6.92l-4.34 -34.27c39.67,6.68 -7.25,21.13 39.46,29.18 -1.63,1.42 -4.43,0.63 -5.5,3.45 -9.35,24.79 1.14,-0.9 -15.41,9.54l-89.52 57.04c-13.61,16.6 -1.84,4.02 -2.15,4.86l0 4.64c-19.36,-5.73 -23.41,-8.34 -35.29,-25.8 -7.22,10.18 -3.07,-1.47 -10.56,19.6 -4.28,12.06 -2.84,6.8 -5.35,23.85l0.2 10.92c14.95,6.28 38.6,46.48 57.2,64.21 72.87,69.44 119.12,115.96 229.11,162.19 125.08,52.58 288.02,74.66 435.75,30.03l19.95 -18.95 -31.5 -17.96c-6.39,15.74 -1.67,2 -3.92,16.36 -3.16,20.15 4.41,-4.49 -1.82,14.33 -23.97,-7.65 -13.43,-9.1 -7.92,-28.04 -16.39,3.4 -18.05,13.86 -27,6.12l-16.36 -20.71 -6.41 26.47c-8.72,-29.1 -32.26,-16.32 -33.96,-16.07 0.42,-0.66 1.01,-2.64 0.94,-2.18l-9.48 -27.76c25.17,-1.01 28.82,-4.63 45.85,-19.42l7.09 -6.75c0.79,-0.75 2.41,-2.3 3.54,-3.52 -33.27,-9.08 -6.12,-14.2 -40.36,-4.5 22.43,0.67 11.67,-1.3 22.43,12.81 -27.19,-3.13 -10.34,-5.81 -21.87,0.95 -0.7,0.41 -1.99,1.8 -2.63,2.32l-5.12 6.13c-0.96,1.09 -3.96,5.91 -5.78,7.04 -12.26,-3.28 -8.11,-8.25 -15.9,-27.64l-21.66 35.81c-8.57,-15.59 3.45,-25.54 -10.16,-53.35 -0.65,-1.34 -1.72,-2.91 -2.38,-4.24 -3.58,-7.23 -5.17,-11.43 -7.71,-17.54 16.36,3.6 32.77,3.58 44.81,13.36l-7.11 -25.32 -40.15 2.25c-2.33,18.99 -2.8,9.72 -0.31,27.43l8.16 26.43c-1.73,1.33 -4.34,0.98 -5.32,3.79l-21.57 12.73c-20.1,-23.72 15.96,-9.58 -18.95,-22.81 1.14,17.64 1.14,28.63 10.87,38.85 37.89,-17.65 30.05,-3.4 49.13,5.56 -25.46,12.29 -22.35,-0.01 -35.83,22.13 31.17,-19.29 -5.13,-20.44 -5.86,-20.74 -24.67,13.93 -7.87,4.16 -13.77,16.03 -0.17,0.35 -0.71,2.11 -0.82,2.38 -0.12,0.27 -0.2,1.71 -0.72,2.34 -6.19,-4.44 -5.89,-3.57 -17.49,-4.38 8.28,-12.6 9.06,-32.6 2.47,-48.54 -10.95,-26.46 -12.12,0.65 -43.81,-18.26 -0.65,-21.2 7.64,-47.34 24.6,-60.03 11.45,-8.59 -15.61,-7.03 26.79,-11.22 -1.44,-1.62 -3.89,-5.95 -4.52,-4.65l-11.07 -19.44c17.29,10.73 21.86,6.13 40.06,0.46 -6.37,-14.33 -17.41,-11.03 -20.31,-16.97l-13.13 -13.03c4.01,-29.69 17.95,-13.31 34.31,-33.92 8.02,-10.1 1.46,3.3 4.01,-7.62 4.98,-21.34 6.71,2.14 -2.85,-9.04 -14.8,-17.31 -2.15,4.29 -11.59,-2.45 15.96,-6.79 5.2,4.98 14.31,-20.32 0.65,-1.8 1.12,-3.52 1.62,-5.42 10.7,-40.56 5.97,-17.18 -9.76,-39.86 52.39,-2.55 -8.04,-15.61 44.07,-7.22l55.4 3.64c11.6,-19.73 4.6,-18.59 21.49,-40.56 12.88,10.44 24.98,7.89 31.49,22.84l0.56 19.25c49.99,2.01 -2.98,-9.83 46.75,-17.06 6.72,-0.98 55.02,21.14 34.15,-17.6 -9.15,-16.98 -22.25,-14.68 -42.44,-4.38 -5.92,-27.32 -38.08,-13.91 -51.13,-18.59 -1.44,-0.51 -3,-1.5 -4.46,-2.07l-25.09 -8.68c7.71,-21.26 4.72,2.8 17.02,-22.4 -40.83,-7.68 -29.78,-11.9 -28.55,-33.56l-1 -11.57c-6.05,-15.32 -13.68,-15.85 -22.81,-23.4 -5.33,7.95 -7.44,20.07 -0.51,30.49 -27.49,-6.08 -30.48,-7.08 -50.12,-16.24l0 23.36c-19.53,-4.99 -22.48,-2.74 -48.91,-3.45 10.87,-10.97 13.02,-12.08 33.56,-14.77 -1.5,-1.29 -4,-5.16 -4.51,-3.86 -0.46,1.19 -3.35,-2.97 -3.86,-3.8 -8.92,-14.47 -12.28,5.62 8.55,-23.16 20.26,24.09 0.85,14.39 21.09,18.26 15.4,2.95 13.42,-2.6 35.15,-6.42 -1.26,-1.3 -2.83,-5.36 -3.43,-4.22l-21.83 -20.65c-15.53,-9.64 -14.54,-2.22 -29.75,-14.88 3.21,-2.48 10.14,-6.26 18.53,-11.48 1.18,-0.73 2.99,-1.47 4.19,-2.29 12.01,-8.23 14,-1.61 21.08,-24.69 -13.85,-7.59 -26.06,-0.14 -45.25,1.17 14.41,-38.91 9.97,11.34 12.73,-39.64l-16.35 -8.63c-0.14,-0.26 -0.56,-1.7 -0.64,-2.03 -0.1,-0.4 -0.37,-2.13 -0.41,-2.61 -0.1,-1.16 -0.17,-5.44 0.03,-6.91 1.81,-13.41 8.63,-22.48 7.21,-40.33l50.67 35.58c-1.33,0.48 -3.53,-0.61 -4.14,0.85l-34.56 -1.04 11.38 17.89c4.3,8.58 -0.72,-2.04 3.7,9.59l3.16 8.59c0.36,0.99 0.85,3.43 1.84,4.85 2.29,-2.93 15.11,5.46 9.06,-23.71 2.75,14.09 8.02,23.11 16.57,34.78 20.8,0.97 53.25,-9.48 63.45,-18.67 -11.85,24.29 -34.22,24.35 -55.36,26.38 -1.53,0.15 -17.26,2.48 -17.55,2.53l53.5 27 -21.88 16.6c-0.89,0.59 -2.95,1.58 -4.24,2.63 20.71,13 18.86,2.97 37.08,15.62l12.6 16.49c0.33,0.77 0.82,2.72 1.06,3.45 0.23,0.68 0.65,2.65 0.81,3.24l1.04 5.96c19.38,2.49 15,2.89 29.39,1.61 20.94,-1.86 49.64,-2.92 57.53,28.22l-17.38 -9.18c-0.98,-0.82 -2.82,-2.83 -3.62,-3.56 -0.85,-0.76 -2.28,-2.74 -3.65,-3.85 -1.71,36.26 -3.88,5.09 -10.89,18.22l-9.43 31.23c18.26,-6.2 13.74,-8.39 22.14,-20.44l16.19 6.44c0.5,0.42 1.67,1.83 2.15,2.31l37.37 38.86c-3.76,20.5 2.62,-5.69 -4.99,11.19l-8.32 18.92c16.67,-3.75 28.5,-8.42 45.08,-1.88 17.75,7.01 12.14,23.14 17.82,14.93 38.03,10.77 9.22,1 20.49,-9.56 -15.6,-10.42 -5.42,-5.49 -25.96,-14.37 13.45,-7.21 5.72,0.58 15.55,-13.63l-4.7 24.37 69.38 -13.63c12.07,-6.34 13.55,-5.61 27.64,-9.68 -8.96,20.38 -7.27,4.09 -22.68,25.3 17.33,6.07 10.2,7.32 23.34,2.13l12.95 -11.03c22.09,-21.47 6.9,-23.47 46.74,-29.44l-14.34 21.95c-5.51,8.69 -6.18,1.56 -8.69,15.64 12.66,-14.71 21.97,-15.76 30.62,-30.12 18.6,10.25 -8.85,15.25 12.79,-28.7l32.95 22.33c17.33,11.4 4.23,-0.89 6.28,7.79l-0.49 7.23c-0.02,0.28 -0.69,1.79 -0.28,2.54 23.29,-14.32 52.85,-14.93 57.25,-44.34 -10.28,-0.56 1.31,0.46 -19.36,5.6 0.54,-1.51 4.74,-14.34 4.74,-15.07l-0.93 -8.95c-9.26,-27.24 -36.53,-7.29 -38.54,-6.57l-55.56 4.85c-17.1,13.11 -15.35,-1.54 -42.8,8.55 -23.55,8.66 -21.26,-8.34 -44.77,-5.61 -12.8,1.49 -6.86,-3.85 -15.14,11.27 -17.49,-16.36 -1.2,-2.14 -11.54,-25.06 -22.49,15.95 -27.59,13.93 -57.68,15.68 -0.8,1.05 -1.7,1.74 -1.94,3.44l-11.03 14.43c-10.64,7.45 -0.05,7.16 -3.84,0.68l2.95 -6.39c0.02,-0.45 0.08,-2.36 0.06,-2.87 -0.44,-9.49 -5.19,-25.89 -14.64,-27.43 13.24,-7.66 -1.06,-3.03 19.45,1.78 -3.52,-43.75 2.76,-28.09 21.58,-46.17l4.55 -5.27c0.36,-0.42 1.35,-1.99 2.09,-2.95 14.22,12.03 -23.16,7.85 13.09,5.26 20.38,-1.45 9.31,1.45 21.05,-8.48 0.13,0.86 -0.1,1.48 -0.06,2.61l4.37 16.93 39.18 -13.59c-27.39,-15.63 -23.6,-5.89 -38.93,-37.29 29.25,31.19 31.03,10.75 51.56,0.83l-18.78 -23.08c-6.34,-7.48 -10.05,-11.83 -16.37,-19.86 28.96,-2.73 -10.25,9.47 15.38,3.27 19.95,-4.82 1.49,6.42 12.17,-15.85 10.82,-22.56 2.66,-25.08 29.96,-26.1 1.81,-0.07 13.88,1.73 20.09,1.25l1.89 -32.55c-22.19,-14 -8.89,2.15 -24.96,-17.87 22.09,-9.64 19.78,5.83 38.41,10.8l42.71 -1.49c1.61,-0.33 5.51,-1.74 7.06,-2.05 0.87,-0.17 2.62,-0.71 3.52,-0.85 0.96,-0.14 2.77,-0.46 3.79,-0.56l76.12 -13.27c10.4,-7.68 2.29,1.48 10.72,-11.23 -7.46,-16.28 -0.16,-4.5 -10.48,-12.82 -0.2,-0.16 -12.47,-5.9 -13.59,-6.41 23.2,-8.9 10.76,-13.79 45.1,-19.27 -5.36,-6.53 13.07,-32.21 -26.04,-14.22 16.1,-9.09 8.84,-12.19 14.38,-24.98 7.71,-17.84 -20.86,2.93 6.31,-9.98l-13.87 68.4c-0.97,1.74 -2.44,4.01 -3.54,6.07 76.91,-2.17 0.66,-24.09 66.54,-7.31l-4.24 -32.93c5.25,-84.86 -64.14,-180.63 -90.48,-247.38 -13.04,-5.83 -22.82,-27.43 -34.08,-42.5 -132.46,-177.23 -365.97,-281.43 -597.68,-257.59 -150.39,15.47 -187.05,57.32 -241.2,66.75z"/>
  <path class="fil3" d="M27411.69 20901.5c-28.14,55.39 -148.34,197.77 -198.41,239.77 -217.44,182.46 -401.23,277.18 -706.3,311.95 -94.69,10.79 -96.5,34.43 -174.08,121.52 -49.81,55.91 -79.62,86.83 -167.6,120.86 -255.37,98.81 -93.14,72.29 -178.88,116.68 -21.54,20.99 -34.95,35.19 -23.56,80.97 34.75,-19.39 17.08,-25.74 52.58,-15.81 22.94,6.41 17.47,-0.15 44.33,0.79 32.68,-27.41 271.91,-19.29 336.27,-17.02l115.95 -5.81c-49.13,-8.9 -102.09,-2.08 -154.45,-7.25 -26.19,-2.59 -45.13,-13.11 -68.83,-11.58 -36.94,2.38 -36.64,5.77 -74.73,0.71 6.25,-22.95 14.24,-28.62 28.3,-39.03 -7.34,-18.93 -10.45,-4.92 -16.78,-22.66 20.46,-14.15 24.1,-15.62 39.8,-32.98l-138.03 27.43c-7.69,31.71 -19.41,62.79 -66.04,36.79 -11.7,-6.53 -3.58,-0.43 -13.02,-9.27 41.84,-16.53 16.41,-5.62 43.24,2.89 21.88,-30.93 -13.61,-13.1 26.62,-36.57 39.3,-22.92 33.89,-7.17 125.31,-67.01 93.45,-61.17 63.63,-36.03 149.89,-112.95 67.27,-60 374.43,-99.22 428.13,-96.78 12.47,-12.8 14.71,-8.22 29.97,-21.97 27.64,-24.9 27.7,-37 78.22,-75.71 34.11,-26.13 87.27,-55.83 133.59,-78.12 44.13,-21.23 178.59,-72.89 198.54,-114.81l43.89 -68.66c16.14,-29.85 87.18,-94.56 116.06,-118.06 41.71,-33.94 97.36,-64.11 171.78,-55.99 4.12,65.06 -39.71,88 -57.61,131.2l74.61 -14.06c7.28,51.04 -46.33,88.05 -73.14,104.78 12.76,9.43 34.94,14.24 53.17,18.32 -8.09,11.54 -0.9,2.76 -10.58,11.87l-119.47 73.63 -12.6 11.96c7.71,6.14 7.76,4.7 11.21,7.49 15.42,12.43 -16.75,-15.21 7.69,6.45l-82.38 51.33c-0.82,29.72 3.49,7.96 5.07,37.39 -22.97,11.1 -53.59,24.65 -80.69,34.47 12.74,27.53 13.19,1.26 17.59,36.95 -21.66,10.57 -39.15,16.1 -71.14,17.81l10.11 53.54c-28.72,11.09 -82.33,52.82 -120.79,74.17 -41.68,23.13 -112.01,34.21 -141.24,51.88l136.31 -9.29c61.82,-7.84 188.17,-63.06 231.33,-98.44 13.28,-10.88 4.55,-0.82 13.58,-14.83 -24.7,-9.15 -60.47,-19.3 -75.83,-35.95 55.94,-34.1 124.23,-21.07 187.8,-43.09 -4.4,-11.17 2.29,-1.32 -7.48,-14.94 -24.59,0.48 -66.25,-1.7 -83.89,-13.54 53.49,-25.81 132.18,-15.76 178.55,-57.69 -24.5,-16.85 -56.62,-4.57 -107.19,-16.54 51.26,-23.92 184.47,-38.06 197.41,-94.51l-91.08 -0.25c5.53,-16.68 -3.93,-2.38 12.28,-16.33l128.12 -83.69c41.28,-28.54 101.98,-66.9 98.56,-132.9 -54.63,-0.69 -114.83,77.15 -160.35,55.75l127.33 -113.56c21.73,-21.66 37.99,-40.48 59.64,-62.22 40.58,-40.74 33.1,-48.14 54.11,-58.11 13.17,-35.41 40.59,-39.84 33.76,-81.85 -46.6,-13.25 -54.83,3.5 -78.27,27.85 -19.77,20.54 -36.22,39.7 -56.3,59.12 -23.96,23.19 -92.21,89.14 -129.84,100.51 12.76,-21.13 50.5,-59.54 70.07,-83.41 21.91,-26.73 42.98,-54.52 63.58,-83.68 22.81,-32.3 111.19,-147.7 99.05,-196.65 -75.83,-76.68 -147.75,156.47 -244.28,223.11 5.81,-15.84 218.88,-441.52 62.57,-421.76 -16.58,28.78 -41.01,133.32 -50.84,171.73 -14.02,54.74 -33.09,123.75 -63.57,157.72 -2.59,-76.69 41.87,-153.77 4.33,-234.71l-34.91 3.03c-12.44,18.77 -60.63,263.96 -160.79,401.39 -0.46,0.64 -2.31,4.09 -2.65,3.16 -0.33,-0.91 -1.74,2.08 -2.68,3.07z"/>
  <path class="fil3" d="M24846.88 20819.91l107.55 127.83c21.74,10.5 55.84,48.85 79.79,71.54l79.03 67.48c-38.39,22.04 -105.73,-47.35 -163.16,-54.74 14.2,105.69 200.61,163.06 264.11,198.21 1.59,0.88 6.53,4.19 7.61,4.89l6.77 5.49c-46.59,16.73 -102.21,-8 -150.84,1.21 36.08,65.49 140.37,45.28 188.97,70.33l7.48 5.39c-28.03,18.97 -83.67,11.17 -106.13,32.05 31.05,25.47 99.62,29.26 141.49,35.31l-38.25 20c-19.34,5.84 -20.43,3.63 -33.41,15.2 26.67,27.35 106.47,37.68 153.3,45.02 -29.65,22.72 -46.61,7.72 -67.68,33.75l302.76 118.74c61,11.88 103.43,31.95 174.58,34.57 -1.4,-1.01 -3.7,-3.98 -4.48,-2.63 -0.77,1.35 -3.44,-2.02 -4.53,-2.51 -5.81,-2.66 -7.99,-3.78 -14.39,-6.02l-328.2 -126.16c-22.85,-13.05 -10.1,-0.8 -21.79,-20.2l51.3 -33.98c0.93,-0.97 2.54,-2.76 3.62,-4.28 -57.86,-5.83 -83.55,-22.24 -124.81,-42.3 15.27,-25.95 26.78,-12.14 33.44,-44.14l-73.06 -24.48c-2.25,-38.39 4.76,-24.4 20.05,-48.17l-42.7 -19.44 1.54 -45.84c-45.04,-15.86 -118.36,-45.67 -130.05,-78.43l53.2 -5.49c-24.34,-27.48 -80.29,-70.4 -93.61,-108.1l61.79 -1.35c7.08,-62.69 -61.47,-118.2 -55.68,-138.57 27.5,-13.69 33.15,-2.3 58.56,5.07l17.34 -29.18c128.69,56.48 192.11,253.64 370.88,368.7 95.41,51.92 78.13,5.23 174.04,87.43 49.05,42.03 81.39,86.64 139.46,123.44 57.33,36.33 143.31,36.65 221.49,40.75 151.73,7.96 137.73,31.9 206.54,59.37 9.84,-23.76 37.69,-70.55 42.5,-95.37 -464.93,-21.87 -812,-231.26 -1038.99,-620.55 -105.88,-189.36 -103.27,-341.39 -141.34,-348.92 -33.23,-6.57 -35.14,26.52 -36.26,57.29 -2.02,55.36 11.6,120.71 19.94,174.65l-24.58 -36.21c-36.62,-77.9 -56.84,-207.28 -87.72,-289.93 -101.14,-17.06 -45.52,163.7 -29.12,215.19 25.65,80.47 64.07,137.7 89.5,206.5 -74.72,-32.35 -170.38,-296.97 -240.49,-228.34 -31.99,31.32 72.35,169.19 91.33,196.81l135.86 173.08c-40.78,-13.68 -104.22,-77.09 -129.98,-102.23 -63.69,-62.14 -80.83,-107.04 -131.77,-83.32 -5.03,23.44 -0.47,25.83 7.2,45.59z"/>
  <path class="fil3 str0" d="M26560.75 20939.31l103.03 -29.83 40.93 -26.84c18.48,-9.61 26.73,-14.26 44.55,-25.96 83.77,-55.01 150.81,-118.89 206.56,-210.05 89.12,-145.72 109.14,-254.36 95.62,-457.28l-8.02 -15.02 4.24 32.93c-65.88,-16.78 10.37,5.14 -66.54,7.31 1.1,-2.06 2.57,-4.33 3.54,-6.07l13.87 -68.4c-27.17,12.91 1.4,-7.86 -6.31,9.98 -5.54,12.79 1.72,15.89 -14.38,24.98 39.11,-17.99 20.68,7.69 26.04,14.22 -34.34,5.48 -21.9,10.37 -45.1,19.27 1.12,0.51 13.39,6.25 13.59,6.41 10.32,8.32 3.02,-3.46 10.48,12.82 -8.43,12.71 -0.32,3.55 -10.72,11.23l-76.12 13.27c-1.02,0.1 -2.83,0.42 -3.79,0.56 -0.9,0.14 -2.65,0.68 -3.52,0.85 -1.55,0.31 -5.45,1.72 -7.06,2.05l-42.71 1.49c-18.63,-4.97 -16.32,-20.44 -38.41,-10.8 16.07,20.02 2.77,3.87 24.96,17.87l-1.89 32.55c-6.21,0.48 -18.28,-1.32 -20.09,-1.25 -27.3,1.02 -19.14,3.54 -29.96,26.1 -10.68,22.27 7.78,11.03 -12.17,15.85 -25.63,6.2 13.58,-6 -15.38,-3.27 6.32,8.03 10.03,12.38 16.37,19.86l18.78 23.08c-20.53,9.92 -22.31,30.36 -51.56,-0.83 15.33,31.4 11.54,21.66 38.93,37.29l-39.18 13.59 -4.37 -16.93c-0.04,-1.13 0.19,-1.75 0.06,-2.61 -11.74,9.93 -0.67,7.03 -21.05,8.48 -36.25,2.59 1.13,6.77 -13.09,-5.26 -0.74,0.96 -1.73,2.53 -2.09,2.95l-4.55 5.27c-18.82,18.08 -25.1,2.42 -21.58,46.17 -20.51,-4.81 -6.21,-9.44 -19.45,-1.78 9.45,1.54 14.2,17.94 14.64,27.43 0.02,0.51 -0.04,2.42 -0.06,2.87l-2.95 6.39c3.79,6.48 -6.8,6.77 3.84,-0.68l11.03 -14.43c0.24,-1.7 1.14,-2.39 1.94,-3.44 30.09,-1.75 35.19,0.27 57.68,-15.68 10.34,22.92 -5.95,8.7 11.54,25.06 8.28,-15.12 2.34,-9.78 15.14,-11.27 23.51,-2.73 21.22,14.27 44.77,5.61 27.45,-10.09 25.7,4.56 42.8,-8.55l55.56 -4.85c2.01,-0.72 29.28,-20.67 38.54,6.57l0.93 8.95c0,0.73 -4.2,13.56 -4.74,15.07 20.67,-5.14 9.08,-6.16 19.36,-5.6 -4.4,29.41 -33.96,30.02 -57.25,44.34 -0.41,-0.75 0.26,-2.26 0.28,-2.54l0.49 -7.23c-2.05,-8.68 11.05,3.61 -6.28,-7.79l-32.95 -22.33c-21.64,43.95 5.81,38.95 -12.79,28.7 -8.65,14.36 -17.96,15.41 -30.62,30.12 2.51,-14.08 3.18,-6.95 8.69,-15.64l14.34 -21.95c-39.84,5.97 -24.65,7.97 -46.74,29.44l-12.95 11.03c-13.14,5.19 -6.01,3.94 -23.34,-2.13 15.41,-21.21 13.72,-4.92 22.68,-25.3 -14.09,4.07 -15.57,3.34 -27.64,9.68l-69.38 13.63 4.7 -24.37c-9.83,14.21 -2.1,6.42 -15.55,13.63 20.54,8.88 10.36,3.95 25.96,14.37 -11.27,10.56 17.54,20.33 -20.49,9.56 -5.68,8.21 -0.07,-7.92 -17.82,-14.93 -16.58,-6.54 -28.41,-1.87 -45.08,1.88l8.32 -18.92c7.61,-16.88 1.23,9.31 4.99,-11.19l-37.37 -38.86c-0.48,-0.48 -1.65,-1.89 -2.15,-2.31l-16.19 -6.44c-8.4,12.05 -3.88,14.24 -22.14,20.44l9.43 -31.23c7.01,-13.13 9.18,18.04 10.89,-18.22 1.37,1.11 2.8,3.09 3.65,3.85 0.8,0.73 2.64,2.74 3.62,3.56l17.38 9.18c-7.89,-31.14 -36.59,-30.08 -57.53,-28.22 -14.39,1.28 -10.01,0.88 -29.39,-1.61l-1.04 -5.96c-0.16,-0.59 -0.58,-2.56 -0.81,-3.24 -0.24,-0.73 -0.73,-2.68 -1.06,-3.45l-12.6 -16.49c-18.22,-12.65 -16.37,-2.62 -37.08,-15.62 1.29,-1.05 3.35,-2.04 4.24,-2.63l21.88 -16.6 -53.5 -27c0.29,-0.05 16.02,-2.38 17.55,-2.53 21.14,-2.03 43.51,-2.09 55.36,-26.38 -10.2,9.19 -42.65,19.64 -63.45,18.67 -8.55,-11.67 -13.82,-20.69 -16.57,-34.78 6.05,29.17 -6.77,20.78 -9.06,23.71 -0.99,-1.42 -1.48,-3.86 -1.84,-4.85l-3.16 -8.59c-4.42,-11.63 0.6,-1.01 -3.7,-9.59l-11.38 -17.89 34.56 1.04c0.61,-1.46 2.81,-0.37 4.14,-0.85l-50.67 -35.58c1.42,17.85 -5.4,26.92 -7.21,40.33 -0.2,1.47 -0.13,5.75 -0.03,6.91 0.04,0.48 0.31,2.21 0.41,2.61 0.08,0.33 0.5,1.77 0.64,2.03l16.35 8.63c-2.76,50.98 1.68,0.73 -12.73,39.64 19.19,-1.31 31.4,-8.76 45.25,-1.17 -7.08,23.08 -9.07,16.46 -21.08,24.69 -1.2,0.82 -3.01,1.56 -4.19,2.29 -8.39,5.22 -15.32,9 -18.53,11.48 15.21,12.66 14.22,5.24 29.75,14.88l21.83 20.65c0.6,-1.14 2.17,2.92 3.43,4.22 -21.73,3.82 -19.75,9.37 -35.15,6.42 -20.24,-3.87 -0.83,5.83 -21.09,-18.26 -20.83,28.78 -17.47,8.69 -8.55,23.16 0.51,0.83 3.4,4.99 3.86,3.8 0.51,-1.3 3.01,2.57 4.51,3.86 -20.54,2.69 -22.69,3.8 -33.56,14.77 26.43,0.71 29.38,-1.54 48.91,3.45l0 -23.36c19.64,9.16 22.63,10.16 50.12,16.24 -6.93,-10.42 -4.82,-22.54 0.51,-30.49 9.13,7.55 16.76,8.08 22.81,23.4l1 11.57c-1.23,21.66 -12.28,25.88 28.55,33.56 -12.3,25.2 -9.31,1.14 -17.02,22.4l25.09 8.68c1.46,0.57 3.02,1.56 4.46,2.07 13.05,4.68 45.21,-8.73 51.13,18.59 20.19,-10.3 33.29,-12.6 42.44,4.38 20.87,38.74 -27.43,16.62 -34.15,17.6 -49.73,7.23 3.24,19.07 -46.75,17.06l-0.56 -19.25c-6.51,-14.95 -18.61,-12.4 -31.49,-22.84 -16.89,21.97 -9.89,20.83 -21.49,40.56l-55.4 -3.64c-52.11,-8.39 8.32,4.67 -44.07,7.22 15.73,22.68 20.46,-0.7 9.76,39.86 -0.5,1.9 -0.97,3.62 -1.62,5.42 -9.11,25.3 1.65,13.53 -14.31,20.32 9.44,6.74 -3.21,-14.86 11.59,2.45 9.56,11.18 7.83,-12.3 2.85,9.04 -2.55,10.92 4.01,-2.48 -4.01,7.62 -16.36,20.61 -30.3,4.23 -34.31,33.92l13.13 13.03c2.9,5.94 13.94,2.64 20.31,16.97 -18.2,5.67 -22.77,10.27 -40.06,-0.46l11.07 19.44c0.63,-1.3 3.08,3.03 4.52,4.65 -42.4,4.19 -15.34,2.63 -26.79,11.22 -16.96,12.69 -25.25,38.83 -24.6,60.03 31.69,18.91 32.86,-8.2 43.81,18.26 6.59,15.94 5.81,35.94 -2.47,48.54 11.6,0.81 11.3,-0.06 17.49,4.38 0.52,-0.63 0.6,-2.07 0.72,-2.34 0.11,-0.27 0.65,-2.03 0.82,-2.38 5.9,-11.87 -10.9,-2.1 13.77,-16.03 0.73,0.3 37.03,1.45 5.86,20.74 13.48,-22.14 10.37,-9.84 35.83,-22.13 -19.08,-8.96 -11.24,-23.21 -49.13,-5.56 -9.73,-10.22 -9.73,-21.21 -10.87,-38.85 34.91,13.23 -1.15,-0.91 18.95,22.81l21.57 -12.73c0.98,-2.81 3.59,-2.46 5.32,-3.79l-8.16 -26.43c-2.49,-17.71 -2.02,-8.44 0.31,-27.43l40.15 -2.25 7.11 25.32c-12.04,-9.78 -28.45,-9.76 -44.81,-13.36 2.54,6.11 4.13,10.31 7.71,17.54 0.66,1.33 1.73,2.9 2.38,4.24 13.61,27.81 1.59,37.76 10.16,53.35l21.66 -35.81c7.79,19.39 3.64,24.36 15.9,27.64 1.82,-1.13 4.82,-5.95 5.78,-7.04l5.12 -6.13c0.64,-0.52 1.93,-1.91 2.63,-2.32 11.53,-6.76 -5.32,-4.08 21.87,-0.95 -10.76,-14.11 0,-12.14 -22.43,-12.81 34.24,-9.7 7.09,-4.58 40.36,4.5 -1.13,1.22 -2.75,2.77 -3.54,3.52l-7.09 6.75c-17.03,14.79 -20.68,18.41 -45.85,19.42l9.48 27.76c0.07,-0.46 -0.52,1.52 -0.94,2.18 1.7,-0.25 25.24,-13.03 33.96,16.07l6.41 -26.47 16.36 20.71c8.95,7.74 10.61,-2.72 27,-6.12 -5.51,18.94 -16.05,20.39 7.92,28.04 6.23,-18.82 -1.34,5.82 1.82,-14.33 2.25,-14.36 -2.47,-0.62 3.92,-16.36l31.5 17.96 -19.95 18.95z"/>
  <path class="fil3 str0" d="M25728.54 20192.74c-49.82,110.29 36.65,415.02 109.95,479.22 2.51,-17.05 1.07,-11.79 5.35,-23.85 7.49,-21.07 3.34,-9.42 10.56,-19.6 11.88,17.46 15.93,20.07 35.29,25.8l0 -4.64c0.31,-0.84 -11.46,11.74 2.15,-4.86l89.52 -57.04c16.55,-10.44 6.06,15.25 15.41,-9.54 1.07,-2.82 3.87,-2.03 5.5,-3.45 -46.71,-8.05 0.21,-22.5 -39.46,-29.18l4.34 34.27c-25.51,2.35 -50.19,15.69 -74.31,6.92 1.64,-4.29 0.57,-4.05 -4.89,-12.85 1.23,-0.8 3.53,-1.11 4.22,-1.23 29.81,-5.23 2.65,6.15 14.36,1.15l3.89 -16.53c-0.02,-0.01 -10.26,-4.58 -11.91,-5.37l-12.36 -6.22c-14.07,-5.37 -5.12,-5.07 -22.97,-3.89 23.73,-13.02 26.16,-9.96 40.53,-24.5 16,-16.19 0.77,-11.86 -4.58,-16.79l-20.75 -23.48c-7.78,-13.15 -5.93,-1.94 -9.31,-22.31 11.54,-4.68 -6.78,-2.65 13.4,-3.2 35.13,-0.95 -4.6,-6.72 9.89,3.79l2.45 -27.13c18.4,10.08 27.54,31.53 39.74,44.1 16.92,-9.72 1.48,0.08 13.03,-11.88 1.21,-1.25 5.81,-6.32 6.78,-7.36l-5.13 -16.28c12.36,-1.96 11.01,-0.66 17.37,-6.12 5.58,23.96 -8.85,7.24 19.49,20.12 -40.65,14.08 -10.46,-1.67 -26.27,16.56l5.15 22.14c16.11,-3.54 22.6,6.18 30.34,16.82l20.26 25.77c0.53,-1.12 2.51,2.22 3.74,3.38 -14.22,11.57 -18.07,19.64 -20.63,42.76 18.84,-8.82 9.57,-7 15.83,-11.76l7.49 -6.01c22.01,-15.9 45.96,-1.52 60.89,-31.4 -8.92,-9.29 -70.81,-43.37 -82.72,-46.79l0.67 -32.55c6.85,-3.66 33.92,-4.64 36.89,-12.5 11.77,-31.12 -5.25,4.5 -48.68,-7.91 19.45,-9.49 26.98,-3.67 40.36,-16.89 23.17,-22.88 3.69,-9.41 14.81,-27.3 14.5,-23.31 -15,4.22 5.71,-5.91l9.33 75.32c5.31,15.1 2.46,10.13 11.03,21.48 16.26,21.51 7.52,7.29 14.15,11.84 0.61,0.42 2.18,1.32 2.8,1.74l12.56 9.33c3.76,2.89 6.05,4.7 10.99,8.57l33.24 -12.6c24.47,-6.42 -4.84,-8.03 31.27,-19.19 -19.69,-7.36 -4.61,3.77 -10.73,-10.61 -12.02,-28.25 1.47,-7.47 2.22,-7.91 -19.77,4.03 -3.38,15.68 -35.61,-0.07l18.89 -14.54c21.29,-15.09 24.14,-12.51 50.18,-20.17 -10.37,-11.24 -5.48,10.42 -2.95,-13.24 0.14,-1.2 0.73,-3.41 0.96,-4.6 0.26,-1.38 1.3,-4.03 1.6,-5.21l-29.59 -30.55c1.09,-0.49 3.02,0.03 3.57,0.06l20.05 -0.26c0.77,-0.27 2.47,-1.24 3.26,-1.6l6.92 -4.33c1.48,-0.71 6.11,-3.02 7.59,-3.55 7.29,-2.63 15.71,1.43 16.73,-12.23l1.35 -27.84c21.3,-0.91 30.91,4.12 49.21,11.33l20.95 9.05c1.28,-16.5 8.27,-28.38 16.23,-37l11.11 -9.53c0.94,-0.84 2.56,-2.05 3.41,-2.83 4.24,-3.87 6.53,-6.99 9.85,-11.02 -9.18,-1.18 8.49,8.82 -21.25,-1.11 16.66,-27.8 6.37,-3.43 32.61,-24.48 16.09,-12.9 2.38,-19.27 24.86,-21.16 24.3,-2.05 3.23,-3.2 13.95,4.54l11.78 21.05c11.01,-38.07 5.19,-27.9 0,-56.72l-38.46 18.99c-2.24,-10.97 5.26,-21.28 13.22,-19.58l-31.7 5.02c-12.68,22.16 -18.94,17.23 -23.58,46.84l-11 -6.77c-17.74,-11.24 -21.48,-9.54 -46.41,-4.76 4.21,-13.23 5,-13.36 4.59,-19.52l-11.35 -24.6c-7.46,-3.5 -13.26,-1.55 -21.33,-1.1l9.2 -21.35c0.73,-2.4 1.27,-3.66 1.79,-6.01 4.16,-18.6 -5.21,-32.22 1.69,-51.07 -21.83,-11.72 -20.67,15.65 -25.36,8.69 -1.15,-1.71 -3.59,3.42 -5.19,4.99l-1.99 -27.18 -57.68 13.93c-13.54,-19.41 -6.75,-27.25 -27.94,-32.24 -16.52,-3.9 -15.37,3.34 -15.13,14.5 0.12,5.36 1.81,19.87 20.15,23.56 15,3.01 10.92,-10.41 35.69,9.43l-36.57 11.5c10.45,5.99 26.01,7.98 36.22,18.19 17.01,17.01 -4.56,2.63 5.5,21.88 25.01,-7.14 -14.67,-10.17 28.96,-6.32 17.93,1.59 -4.36,3.06 35.37,0.01l-7.37 45.8c0.05,1.55 0.14,5.93 0.12,7.34l-7.55 27.48c-0.63,1.15 -2.84,6.11 -3.34,4.98 -0.55,-1.21 -2.21,3.72 -3.72,5.22 -0.39,-22.42 -5.04,-19.88 -5.41,-29.47l4.12 -32.39c-18.82,-2.36 -39.68,-5.81 -53.44,-1.98l10.52 40.07c-12.81,-2.31 -20.34,-1.32 -29.01,-8.81l-1.38 -29.24c0.59,-24.21 -4.29,-11.75 4.12,-19.51l-28.03 1.74c38.64,-19.74 10.87,-25.61 10.84,-25.73 -18.51,-8.91 -3.89,0.42 -17.59,-11.85l-1.91 9.17c-6.24,21.68 -5.7,20.41 -21.03,27.79 -35.05,16.88 20.54,-23.17 -7.31,2.64l-6.39 14.81c-0.22,-1.03 -0.87,3.06 -1.82,4.31 -25.95,-13.93 -6.85,-14.08 -24.68,-28.36 10.95,14.62 0.73,25.09 -4.84,34.08 -48.81,2.82 -40,-20.3 -36.23,-52.2 -43.73,0.86 11.27,3.82 -23.98,10.04 -16.82,-14.5 -2.94,3.57 -7.29,-15.47 -7.41,-32.47 7.37,10.03 0.88,-11.3 -19.34,2.58 -1.9,-2.17 -7.42,7.7l-5.4 14.03c-12.3,-3.88 -16.06,-5.82 -32.08,-5.46l-1.35 24.76c-1.5,-0.03 -3.56,-0.84 -4.38,-1.06l-21.77 -5.74c-2.66,3.82 -7.18,15 -7.73,16.47 -0.25,0.66 5.85,-12.77 -4.48,12.01 -0.43,1.05 -2.07,5.99 -2.42,4.95 -0.37,-1.14 -1.59,3.66 -2.7,5.3l-14.45 -16.09c-5.11,-4.75 -9.29,-7.93 -15.28,-10.73 -1.16,-0.55 -18.55,-5.53 -18.56,-5.53 -49.63,-9.04 -58.27,11.5 -73.49,33.33 -30.14,-13.49 -37.39,3.63 -39.37,-28.57z"/>
  <path class="fil3" d="M26590.38 22015.39l29.98 -56.32c25.11,21.87 6.02,32.64 38.47,53.12 46.77,-4.15 42.47,-30.23 70.5,-53.36 19.95,15.08 32.24,49.47 71.37,27.02 16.08,-9.22 34.85,-42.22 50.41,-58.84l4.81 7.97c0.59,1.06 1.59,2.94 2.26,4.12 20.8,36.87 -12.56,-17.75 4.38,8.53 38.18,59.22 64.29,-35.91 84.69,-59.56 41.75,10.35 30.48,32.81 89.64,31.41 32,-28.23 25.56,-45.81 33.16,-92.94 44.5,42.82 173.67,49.13 159.4,-52.52 -49.22,-2.15 -233.27,-11.78 -263.94,-28.2 -38.24,11.19 -94.37,-0.03 -140.03,9.97 -15.73,36.12 -10.61,40.25 -54.18,49.13 9.1,38.05 3.87,42.31 -27.21,59.51 -154.6,85.57 -548.38,-33.81 -571.93,156.63 67.02,7.71 94.95,-40.17 139.04,-56.31l1.23 62.11c0.03,0 11.68,8.09 33.67,-2.05 9.07,-4.18 18.35,-15.06 24.5,-21.24 11.31,-11.38 33.32,-38.68 43.64,-44.3l0.19 71.11c68.14,6.18 69.5,-54.76 111.54,-71.8l-1.38 62.34c23.53,8.82 44.49,1.76 65.79,-5.53z"/>
  <path class="fil3" d="M26786.36 19333c-17.51,12.56 -71.19,87.11 -86.66,108.69 -20.93,29.18 -82.71,96.93 -39.46,137.31 113.45,105.91 127.47,-225.51 126.12,-246z"/>
  <path class="fil4" d="M25352.29 20291.88c38.95,22.22 96.15,30.42 143.71,42.32 50.15,12.55 133.78,32.93 132.63,-42.29 -1.08,-70.81 -73.64,-54.17 -127.09,-41.24 -47.08,11.38 -115.01,19.19 -149.25,41.21z"/>
  <path class="fil4" d="M25369.96 20490.59c22.19,15.04 57.53,11.26 83.82,12.77 58.44,3.35 249.38,23.04 181.56,-85.25 -40.14,-64.08 -211.78,51.26 -265.38,72.48z"/>
  <path class="fil4" d="M25369.79 20087.74c19.96,21.83 91.2,49.75 125.97,65.93 36.72,17.08 108.01,58.23 137.72,16.52 18.93,-26.58 32.16,-95.07 -77,-93.8 -62.71,0.72 -125.92,6.18 -186.69,11.35z"/>
  <path class="fil3" d="M26593 19273.38c-12.52,10.41 -54.72,101.71 -65.45,124.36 -16.11,34.01 -57.96,105.82 -16.84,138.63 18.96,15.12 94.67,41.46 93.87,-77.75 -0.38,-57.63 -4.02,-128.32 -11.58,-185.24z"/>
  <path class="fil3" d="M27407.44 20496.13c-20.21,-18.63 -93.44,-50.93 -125.07,-64.98 -40.72,-18.1 -113.23,-59.8 -139.96,-14.68 -76.44,129 204.72,86.83 265.03,79.66z"/>
  <path class="fil3" d="M25656.41 21024.38c41.52,-13.48 99.98,-53.24 138.37,-77.33 33.75,-21.18 112.06,-61.22 56.46,-116.75 -54.78,-54.72 -94.21,20.22 -117.76,55.45 -17.1,25.56 -69.84,112.48 -77.07,138.63z"/>
  <path class="fil3" d="M26192.48 19275.32l-12.48 37.15c-7.26,84.39 -32.89,286.15 80.37,228.42 70.77,-36.07 -49.64,-209.06 -67.89,-265.57z"/>
  <path class="fil3" d="M27144.77 20089.28c-14.76,45.02 -19.9,109.07 56.27,97.32 28.54,-4.41 102.44,-43.26 134.65,-56.06 17.72,-14.11 51.35,-22.45 72.86,-41.8 -84.75,-13.05 -191.73,-18.47 -263.78,0.54z"/>
  <path class="fil3" d="M27346.31 20690.29c-15.69,-24.88 -85.07,-72.43 -110.89,-90.61 -27.41,-19.3 -93.02,-77.55 -132.08,-36.39 -29.46,31.05 -35.28,85.94 65.25,103.62 54.15,9.52 122.35,20.9 177.72,23.38z"/>
  <path class="fil3" d="M26389.63 19255.11c-19.28,29.28 -33.4,107.15 -42.91,148.51 -11.93,51.86 -30.25,124.2 36.56,128.06 76.51,4.43 61.35,-70.97 47.71,-127.43 -8.63,-35.72 -27.65,-122.58 -41.36,-149.14z"/>
  <path class="fil3" d="M25990.43 21249.09l24.39 -24.5c10.35,-12.87 13.56,-17.07 22.59,-28.54 37.45,-47.61 127.1,-146.67 80.76,-190.21 -18.05,-16.96 -52.15,-22.26 -73.64,-7.94 -36.6,24.38 -50.91,208.14 -54.1,251.19z"/>
  <path class="fil3" d="M26192.57 21308.02c16.8,-53.23 138.53,-227.77 67.11,-264.33 -70.48,-36.09 -87.16,28.62 -86.55,87.8 0.75,73.6 4.27,142.98 13.44,165.51 0.79,1.92 2.17,3.97 2.88,5.52 0.71,1.57 1.83,3.83 3.12,5.5z"/>
  <path class="fil3" d="M26588.77 21310c9.97,-19.07 57.35,-348.35 -73.29,-264 -59.13,38.17 35.84,190.31 73.29,264z"/>
  <path class="fil3" d="M25990.44 19334.98c1.9,39.69 19.73,223.64 49.61,248.98 22.09,18.73 58.26,13.46 77.73,-6.37 44.54,-45.34 -37.87,-135.18 -77.64,-186.08l-49.7 -56.53z"/>
  <path class="fil3" d="M25653.83 19557.58c7.89,25.92 59.26,109.09 77,136.75 23.69,36.95 68.04,114.78 121.17,59.79 57.19,-59.2 -28.74,-97.91 -62.03,-118.88 -41.33,-26.03 -93.72,-59.72 -136.14,-77.66z"/>
  <path class="fil3" d="M26389.63 21328.56c10.77,-19.13 33.04,-113.58 40.14,-144.09 11.78,-50.59 35.5,-131.1 -40.14,-131.86 -74.39,-0.74 -55.52,72.35 -42.77,128.06 7.91,34.57 26.65,124.46 42.77,147.89z"/>
  <path class="fil3" d="M25568.6 20811c-11.49,28.88 -28.19,29.46 -43.6,57.71 36.58,-4.92 209.66,-60.49 233.27,-93.15 9.42,-13.02 12.44,-23.56 6.12,-44.11l-18.78 -35.05c-57.14,-17 -78.07,10.59 -104.55,39.16 -20.21,21.8 -49.57,58.27 -72.46,75.44z"/>
  <path class="fil3" d="M27012.36 19857.17l4.26 12.53c55.85,47.85 75.65,28.33 132.74,-36.14 36.02,-40.68 76.52,-75.09 104.33,-118.25 -35.56,4.42 -106.53,33.23 -143.92,46.87 -51.75,18.87 -105.71,28.03 -97.41,94.99z"/>
  <path class="fil3" d="M26649.8 21021.46c-12.46,49.06 25.25,86.44 55.64,127.63 20.69,28.04 57.6,83.56 80.94,102.37 2.67,-60.31 -21.48,-219.25 -54,-252.98 -34.09,-19.91 -66.08,-5.46 -82.58,22.98z"/>
  <path class="fil3" d="M25990.18 19600.54c-10.87,-23.14 -61.11,-73.41 -80.56,-91.27 -16.62,-15.27 -27.73,-21.82 -45.07,-38.38 -14.05,-13.41 -34.61,-22.42 -38.99,-38.45 -12.09,8.73 -24.74,-26.41 6.04,64.73 14.72,43.58 49.9,163.26 90.14,173.3 48.97,2.22 73.7,-21.97 68.44,-69.93z"/>
  <path class="fil3" d="M26927.91 19553.92l38.1 -128.96c-36.37,34.63 -163.15,134.3 -176.72,171.5 -20.13,55.21 45.98,94.47 84.45,64.54 30.03,-23.37 33.62,-75.3 54.17,-107.08z"/>
  <path class="fil3" d="M27096.86 20012.09c14.75,14.12 23.19,24.22 53.2,22.32 39.1,-11.97 144.96,-90.56 183.61,-125.59 1.16,-1.05 2.56,-2.33 3.66,-3.42l10.39 -12.36c-54.46,5.2 -120.52,13.2 -172.94,23.34 -58.59,11.33 -112.34,26.32 -77.92,95.71z"/>
  <path class="fil3" d="M25689.19 19961.4c-12.67,-23.28 -16.79,-20.02 -28.11,-32.12 -64.13,-11.13 -165.3,-35.88 -231.58,-34.12 31.47,28.59 168.76,146.74 215.88,140.36 32.47,-4.39 48.94,-38.73 43.81,-74.12z"/>
  <path class="fil3" d="M27036.48 19602.97c-22.11,20.18 -71.67,42.7 -98.81,63.95 -62.79,49.16 -12.06,73.81 -3.2,99.09 70.72,19.36 89.82,-36.3 117.37,-80.88 27.02,-43.74 52.15,-85.46 73.38,-128.26l-88.74 46.1z"/>
  <path class="fil3" d="M25812.24 21153.47l113.22 -95.08c22.88,-23.97 103.67,-78.44 49.71,-127.68 -59.69,-54.49 -91.54,18.11 -109.28,61.68 -17.45,42.86 -45.09,115.71 -53.65,161.08z"/>
  <path class="fil4" d="M27050.68 20992.86l72.68 31.98c-40.11,-61.93 -99.32,-211.76 -157.09,-212.8 -24.55,-0.44 -45.03,19.01 -52.67,36.45 -28.79,65.72 83.27,95.4 129.71,136.98l7.37 7.39z"/>
  <path class="fil3" d="M27218.39 20860.09l29.24 9.18c-5.15,-21.14 -68.65,-90.84 -88.96,-109.56 -23.26,-21.45 -69.78,-93.6 -121.53,-64.15 -18.51,10.53 -66.03,73.75 35.4,112.26 47.91,18.2 97.32,34.9 145.85,52.27z"/>
  <path class="fil3" d="M25692.06 19893.05c44.34,6.95 71.28,-11.91 74.51,-50.96 3.25,-39.37 -26.83,-51.86 -60.18,-65.41 -26.79,-10.88 -160.86,-61.79 -181.34,-58.65 13.93,18.18 26.69,28.44 40.05,45.86 15.53,20.25 20.78,24.56 39.34,44.1 35.03,36.9 45.01,50.96 87.62,85.06z"/>
  <path class="fil3" d="M26787.3 20982.71c16.78,33.5 140.7,152.39 178.95,173.43l-28.51 -92.54c-16.17,-35.8 -34.57,-104.25 -54.95,-130.45 -29.02,-37.31 -103.58,-19.17 -95.49,49.56z"/>
  <path class="fil3" d="M25432.11 20680.82c9.95,6.79 -0.83,3.42 14.76,6.21l68.02 -6.31c37.28,-4.81 136.27,-15.74 160.93,-38.64 20.46,-19 17.23,-53.9 2.4,-74.66 -34.71,-48.57 -104.3,10.37 -131.13,29.45 -37.77,26.86 -78.99,65.93 -114.98,83.95z"/>
  <path class="fil3" d="M27425.38 20291.88c-17.07,-9.68 -116.26,-34.15 -143.09,-39.83 -55.16,-11.7 -132.1,-32.43 -132.18,39.82 -0.09,69.93 73.08,54.62 127.64,41.6 34.27,-8.17 123.28,-26.28 147.63,-41.59z"/>
 </g>
</svg>
