<?xml version="1.0" encoding="UTF-8"?>
<!DOCTYPE svg PUBLIC "-//W3C//DTD SVG 1.1//EN" "http://www.w3.org/Graphics/SVG/1.1/DTD/svg11.dtd">
<!-- Creator: CorelDRAW 2018 (64-Bit) -->
<svg xmlns="http://www.w3.org/2000/svg" xml:space="preserve" width="200mm" height="118mm" version="1.1" style="shape-rendering:geometricPrecision; text-rendering:geometricPrecision; image-rendering:optimizeQuality; fill-rule:evenodd; clip-rule:evenodd"
viewBox="0 0 20000 11800"
 xmlns:xlink="http://www.w3.org/1999/xlink">
 <defs>
  <style type="text/css">
   <![CDATA[
    .str0 {stroke:#FECC0B;stroke-width:7.62;stroke-miterlimit:22.9256}
    .fil0 {fill:#E52944}
    .fil3 {fill:#FDD837}
    .fil2 {fill:#FECC0B}
    .fil1 {fill:#FEFEFE}
    .fil4 {fill:#2B2A29;fill-rule:nonzero}
   ]]>
  </style>
 </defs>
 <g id="Слой_x0020_1">
  <metadata id="CorelCorpID_0Corel-Layer"/>
  <g id="_920814160">
   <path class="fil0" d="M10323.86 8384.66l-342.02 -342.03c-1270.39,-1123.8 -2101.03,-1881.15 -2101.03,-2809.51 0,-757.35 586.34,-1343.68 1343.69,-1343.68 415.32,0 830.64,195.44 1099.36,513.03 268.74,-317.59 684.06,-513.03 1099.38,-513.03 757.35,0 1343.69,586.33 1343.69,1343.68 0,928.36 -830.64,1685.71 -2101.04,2809.51l-342.03 342.03z"/>
   <path class="fil1" d="M10323.86 8109.96l-300.21 -300.21c-1115.13,-986.47 -1844.25,-1651.26 -1844.25,-2466.16 0,-664.79 514.67,-1179.46 1179.46,-1179.46 364.56,0 729.12,171.56 965,450.34 235.9,-278.78 600.47,-450.34 965.02,-450.34 664.79,0 1179.46,514.67 1179.46,1179.46 0,814.9 -729.12,1479.69 -1844.25,2466.16l-300.23 300.21z"/>
   <path class="fil2" d="M10072.9 5244.93c-18.16,19.36 -91.77,52.42 -148.59,113.28 -64.52,69.13 -94.55,138.82 -106,150.77 -12.86,42.01 -45.94,111.79 -44.49,160.7 1.71,27.39 7.87,12.83 33.51,24.31 12.96,-18.58 20.31,-36.05 62.54,-28.36 0.02,0 14.81,4.24 15.8,4.7 5.09,2.39 8.65,5.09 13,9.13l12.3 13.69c0.95,-1.39 1.98,-5.48 2.3,-4.51 0.29,0.89 1.69,-3.31 2.06,-4.2 8.78,-21.09 3.59,-9.66 3.8,-10.23 0.47,-1.25 4.32,-10.77 6.59,-14.01l18.52 4.88c0.7,0.19 2.45,0.88 3.73,0.9l1.15 -21.06c13.64,-0.31 16.83,1.34 27.3,4.63l4.6 -11.93c4.69,-8.39 -10.15,-4.36 6.31,-6.55 5.51,18.16 -7.06,-18.01 -0.75,9.61 3.69,16.21 -8.11,0.83 6.21,13.17 29.99,-5.29 -16.81,-7.82 20.41,-8.54 -3.22,27.14 -10.73,46.82 30.82,44.41 4.73,-7.65 13.44,-16.55 4.12,-28.99 15.17,12.15 -1.08,12.27 21,24.12 0.8,-1.05 1.37,-4.54 1.54,-3.67l5.46 -12.59c23.69,-21.97 -23.61,12.11 6.2,-2.25 13.06,-6.28 12.59,-5.21 17.9,-23.65l1.63 -7.79c11.66,10.43 -0.79,2.49 14.97,10.07 0.02,0.1 23.66,5.1 -9.22,21.9l23.84 -1.47c-7.16,6.59 -3,-4.02 -3.49,16.59l1.17 24.88c7.37,6.37 13.79,5.53 24.68,7.5l-8.95 -34.1c11.72,-3.26 29.46,-0.33 45.48,1.69l-3.5 27.56c0.31,8.17 4.27,6 4.59,25.08 1.29,-1.28 2.71,-5.47 3.16,-4.45 0.44,0.97 2.32,-3.25 2.86,-4.23l6.42 -23.39c0.01,-1.2 -0.06,-4.92 -0.1,-6.25l6.27 -38.97c-33.81,2.61 -14.84,1.34 -30.1,0 -37.13,-3.29 -3.36,-0.71 -24.65,5.37 -8.55,-16.39 9.81,-4.14 -4.68,-18.62 -8.68,-8.69 -21.92,-10.38 -30.82,-15.48l31.12 -9.79c-21.07,-16.88 -17.6,-5.46 -30.38,-8.02 -15.6,-3.14 -17.03,-15.48 -17.14,-20.06 -0.2,-9.48 -1.18,-15.65 12.88,-12.33 18.03,4.25 12.25,10.92 23.77,27.44l49.09 -11.85 1.7 23.12c1.36,-1.33 3.42,-5.7 4.41,-4.23 3.99,5.91 3,-17.38 21.59,-7.4 -5.88,16.03 2.09,27.63 -1.45,43.46 -0.44,1.99 -0.9,3.06 -1.52,5.11l-7.84 18.16c6.88,-0.38 11.81,-2.04 18.16,0.94l9.66 20.94c0.35,5.24 -0.32,5.35 -3.9,16.6 21.22,-4.06 24.39,-5.51 39.48,4.05l9.36 5.77c3.96,-25.2 9.28,-21.01 20.07,-39.86l26.98 -4.27c-6.77,-1.45 -13.15,7.32 -11.25,16.66l32.73 -16.16c4.42,24.52 9.37,15.87 0,48.27l-10.03 -17.91c-9.12,-6.59 8.81,-5.61 -11.86,-3.88 -19.14,1.61 -7.48,7.04 -21.16,18.02 -22.33,17.91 -13.57,-2.84 -27.76,20.84 25.32,8.43 10.28,-0.07 18.09,0.94 -2.82,3.42 -4.78,6.08 -8.38,9.37 -0.72,0.67 -2.1,1.69 -2.9,2.41l-9.45 8.11c-6.78,7.33 -12.73,17.45 -13.82,31.48l-17.82 -7.69c-15.58,-6.14 -23.76,-10.42 -41.88,-9.65l-1.16 23.7c-0.86,11.62 -8.03,8.16 -14.23,10.4 -1.26,0.45 -5.2,2.42 -6.46,3.02l-5.9 3.69c-0.66,0.31 -2.11,1.13 -2.77,1.36l-17.05 0.22c-0.47,-0.02 -2.12,-0.47 -3.04,-0.05l25.17 26c-0.24,1 -1.13,3.26 -1.35,4.43 -0.2,1.01 -0.7,2.89 -0.81,3.92 -2.17,20.13 -6.33,1.7 2.5,11.26 -22.16,6.51 -24.59,4.33 -42.69,17.17l-16.09 12.37c27.43,13.4 13.49,3.5 30.3,0.06 -0.63,0.37 -12.1,-17.31 -1.88,6.73 5.2,12.23 -7.63,2.76 9.13,9.03 -30.74,9.5 -5.78,10.87 -26.62,16.33l-28.28 10.73c-4.2,-3.3 -6.15,-4.84 -9.35,-7.3l-10.69 -7.94c-0.53,-0.36 -1.87,-1.12 -2.38,-1.47 -5.64,-3.88 1.8,8.22 -12.04,-10.09 -7.3,-9.65 -4.88,-5.42 -9.39,-18.28l-7.94 -64.09c-17.62,8.62 7.48,-14.8 -4.85,5.03 -9.47,15.22 7.11,3.76 -12.61,23.23 -11.39,11.26 -17.8,6.29 -34.35,14.37 36.96,10.56 51.45,-19.75 41.43,6.73 -2.53,6.69 -25.57,7.52 -31.39,10.64l-0.58 27.7c10.14,2.91 62.81,31.91 70.4,39.82 -12.7,25.42 -33.09,13.19 -51.81,26.72l-6.38 5.12c-5.32,4.05 2.56,2.5 -13.47,10 2.17,-19.67 5.45,-26.54 17.55,-36.39 -1.04,-0.98 -2.73,-3.83 -3.18,-2.87l-17.23 -21.94c-6.59,-9.05 -12.13,-17.32 -25.83,-14.31l-4.38 -18.84c13.46,-15.51 -12.23,-2.11 22.35,-14.1 -24.11,-10.96 -11.83,3.28 -16.58,-17.11 -5.41,4.65 -4.27,3.54 -14.78,5.2l4.36 13.86c-0.82,0.89 -4.74,5.2 -5.76,6.27 -9.84,10.17 3.3,1.83 -11.09,10.1 -10.39,-10.7 -18.16,-28.95 -33.83,-37.52l-2.08 23.07c-12.33,-8.93 21.48,-4.03 -8.41,-3.21 -17.17,0.47 -1.59,-1.26 -11.41,2.71 2.88,17.33 1.3,7.81 7.93,19l17.66 19.98c4.55,4.19 17.5,0.51 3.88,14.29 -12.22,12.37 -14.29,9.76 -34.48,20.85 15.19,-1.01 7.57,-1.27 19.55,3.3l10.52 5.29c1.4,0.68 10.11,4.57 10.13,4.58l-3.31 14.06c-9.96,4.26 13.15,-5.42 -12.22,-0.98 -0.6,0.11 -2.55,0.37 -3.59,1.05 4.65,7.49 5.56,7.29 4.16,10.93 20.52,7.47 41.53,-3.88 63.23,-5.88l-3.69 -29.17c33.77,5.68 -6.17,17.98 33.59,24.83 -1.4,1.21 -3.77,0.54 -4.69,2.95 -7.95,21.08 0.97,-0.76 -13.11,8.11l-76.17 48.54c-11.59,14.13 -1.58,3.42 -1.84,4.13l0 3.95c-16.47,-4.87 -19.92,-7.09 -30.03,-21.95 -6.15,8.66 -2.62,-1.25 -8.98,16.68 -3.65,10.26 -2.43,5.78 -4.56,20.3l0.17 9.29c12.73,5.34 32.85,39.55 48.67,54.64 62.01,59.09 101.37,98.68 194.98,138.02 106.43,44.74 245.1,63.54 370.81,25.56l16.97 -16.13 -26.81 -15.28c-5.43,13.39 -1.41,1.7 -3.33,13.92 -2.68,17.14 3.76,-3.83 -1.54,12.2 -20.4,-6.52 -11.43,-7.75 -6.74,-23.87 -13.95,2.89 -15.36,11.79 -22.98,5.21l-13.92 -17.63 -5.46 22.53c-7.41,-24.76 -27.45,-13.88 -28.9,-13.67 0.37,-0.57 0.86,-2.25 0.8,-1.86l-8.06 -23.62c21.42,-0.86 24.52,-3.94 39.01,-16.52l6.04 -5.76c0.68,-0.63 2.06,-1.95 3.01,-2.99 -28.32,-7.72 -5.22,-12.08 -34.34,-3.82 19.08,0.56 9.93,-1.12 19.09,10.89 -23.14,-2.67 -8.8,-4.94 -18.62,0.81 -0.59,0.34 -1.69,1.53 -2.24,1.98l-4.35 5.21c-0.82,0.92 -3.38,5.03 -4.92,5.99 -10.44,-2.78 -6.91,-7.02 -13.54,-23.51l-18.42 30.46c-7.3,-13.26 2.93,-21.73 -8.65,-45.39 -0.55,-1.15 -1.46,-2.49 -2.02,-3.61 -3.05,-6.16 -4.4,-9.73 -6.56,-14.93 13.92,3.05 27.88,3.05 38.12,11.36l-6.04 -21.54 -34.17 1.92c-1.99,16.16 -2.39,8.26 -0.27,23.34l6.95 22.49c-1.48,1.13 -3.7,0.84 -4.53,3.23l-18.36 10.83c-17.1,-20.19 13.58,-8.15 -16.12,-19.41 0.97,15.01 0.97,24.36 9.25,33.06 32.24,-15.02 25.58,-2.89 41.81,4.73 -21.67,10.46 -19.02,-0.01 -30.49,18.83 26.52,-16.41 -4.37,-17.39 -4.99,-17.64 -20.99,11.85 -6.7,3.53 -11.71,13.64 -0.16,0.29 -0.61,1.79 -0.71,2.03 -0.09,0.22 -0.16,1.45 -0.61,1.99 -5.26,-3.79 -5.01,-3.05 -14.89,-3.74 7.06,-10.72 7.71,-27.73 2.11,-41.3 -9.32,-22.52 -10.31,0.55 -37.28,-15.54 -0.56,-18.05 6.5,-40.29 20.93,-51.09 9.75,-7.3 -13.28,-5.97 22.8,-9.55 -1.23,-1.38 -3.31,-5.06 -3.85,-3.96l-9.41 -16.53c14.71,9.12 18.6,5.21 34.08,0.39 -5.41,-12.2 -14.82,-9.39 -17.28,-14.44l-11.17 -11.09c3.41,-25.27 15.28,-11.33 29.2,-28.87 6.82,-8.58 1.24,2.81 3.41,-6.48 4.24,-18.16 5.71,1.82 -2.43,-7.7 -12.59,-14.72 -1.83,3.66 -9.86,-2.07 13.59,-5.79 4.43,4.22 12.18,-17.3 0.55,-1.53 0.94,-3 1.37,-4.62 9.11,-34.51 5.09,-14.61 -8.3,-33.92 44.59,-2.16 -6.85,-13.28 37.5,-6.14l47.14 3.1c9.88,-16.79 3.92,-15.82 18.29,-34.52 10.96,8.88 21.26,6.72 26.8,19.44l0.47 16.38c42.55,1.71 -2.53,-8.37 39.79,-14.53 5.72,-0.82 46.82,18.01 29.07,-14.96 -7.79,-14.46 -18.95,-12.49 -36.13,-3.73 -5.02,-23.25 -32.41,-11.84 -43.51,-15.82 -1.22,-0.44 -2.54,-1.27 -3.78,-1.76l-21.36 -7.38c6.56,-18.1 4.02,2.37 14.48,-19.07 -34.73,-6.53 -25.34,-10.13 -24.29,-28.56l-0.85 -9.84c-5.15,-13.04 -11.64,-13.5 -19.42,-19.92 -4.53,6.77 -6.33,17.08 -0.43,25.94 -23.39,-5.16 -25.94,-6.02 -42.65,-13.81l0 19.89c-16.62,-4.26 -19.12,-2.35 -41.62,-2.95 9.25,-9.34 11.08,-10.28 28.56,-12.57 -1.28,-1.09 -3.4,-4.39 -3.84,-3.28 -0.39,1.01 -2.85,-2.53 -3.28,-3.24 -7.59,-12.3 -10.45,4.78 7.28,-19.7 17.23,20.49 0.71,12.24 17.93,15.53 13.12,2.52 11.43,-2.21 29.92,-5.46 -1.07,-1.11 -2.4,-4.56 -2.91,-3.59l-18.59 -17.58c-13.21,-8.19 -12.37,-1.89 -25.31,-12.65 2.72,-2.12 8.63,-5.33 15.76,-9.78 1.01,-0.62 2.54,-1.24 3.57,-1.95 10.22,-7 11.92,-1.36 17.94,-21 -11.79,-6.46 -22.18,-0.13 -38.51,0.99 12.26,-33.12 8.5,9.66 10.84,-33.73l-13.92 -7.34c-0.12,-0.23 -0.47,-1.45 -0.55,-1.73 -0.08,-0.35 -0.3,-1.82 -0.34,-2.22 -0.09,-0.99 -0.15,-4.63 0.02,-5.88 1.54,-11.42 7.36,-19.14 6.14,-34.33l43.11 30.28c-1.12,0.41 -2.99,-0.51 -3.52,0.73l-29.4 -0.89 9.68 15.23c3.67,7.3 -0.61,-1.74 3.15,8.16l2.69 7.31c0.31,0.84 0.72,2.92 1.57,4.12 1.94,-2.5 12.85,4.65 7.7,-20.17 2.35,11.99 6.83,19.66 14.11,29.59 17.7,0.83 45.31,-8.06 53.99,-15.88 -10.09,20.67 -29.12,20.72 -47.11,22.44 -1.3,0.13 -14.69,2.11 -14.94,2.15l45.53 22.98 -18.62 14.13c-0.76,0.5 -2.51,1.35 -3.6,2.23 17.62,11.07 16.05,2.54 31.55,13.3l10.73 14.03c0.27,0.66 0.69,2.32 0.89,2.93 0.19,0.59 0.55,2.27 0.7,2.78l0.87 5.05c16.5,2.12 12.77,2.47 25.02,1.37 17.82,-1.57 42.23,-2.48 48.96,24.02l-14.8 -7.81c-0.82,-0.7 -2.39,-2.41 -3.08,-3.03 -0.72,-0.65 -1.93,-2.33 -3.11,-3.28 -1.44,30.86 -3.29,4.34 -9.26,15.51l-8.02 26.58c15.54,-5.29 11.69,-7.14 18.85,-17.4l13.76 5.48c0.43,0.36 1.43,1.56 1.83,1.97l31.81 33.07c-3.2,17.44 2.23,-4.84 -4.25,9.52l-7.08 16.1c14.19,-3.19 24.25,-7.17 38.35,-1.6 15.12,5.96 10.33,19.69 15.18,12.71 32.36,9.16 7.84,0.85 17.43,-8.14 -13.28,-8.86 -4.62,-4.67 -22.08,-12.23 11.43,-6.13 4.85,0.49 13.23,-11.6l-4.01 20.74 59.05 -11.59c10.27,-5.4 11.52,-4.78 23.52,-8.25 -7.63,17.35 -6.18,3.49 -19.3,21.53 14.74,5.17 8.68,6.24 19.85,1.82l11.03 -9.39c18.8,-18.27 5.87,-19.97 39.78,-25.05l-12.21 18.67c-4.69,7.4 -5.26,1.33 -7.4,13.31 10.77,-12.51 18.71,-13.4 26.07,-25.63 15.82,8.72 -7.55,12.99 10.88,-24.42l28.03 19.01c14.76,9.7 3.61,-0.75 5.35,6.63l-0.41 6.15c-0.02,0.24 -0.59,1.52 -0.24,2.16 19.82,-12.19 44.97,-12.71 48.72,-37.73 -8.75,-0.48 1.12,0.39 -16.48,4.76 0.46,-1.29 4.04,-12.2 4.03,-12.82l-0.79 -7.62c-7.88,-23.19 -31.09,-6.2 -32.79,-5.59l-47.28 4.13c-14.56,11.16 -13.07,-1.31 -36.43,7.28 -20.05,7.36 -18.09,-7.11 -38.09,-4.78 -10.9,1.26 -5.84,-3.28 -12.89,9.6 -14.88,-13.94 -1.02,-1.83 -9.82,-21.34 -19.13,13.58 -23.48,11.86 -49.09,13.35 -0.68,0.88 -1.44,1.47 -1.65,2.92l-9.39 12.28c-9.05,6.34 -0.03,6.1 -3.26,0.58l2.51 -5.44c0.02,-0.37 0.08,-2 0.05,-2.44 -0.37,-8.08 -4.41,-22.03 -12.46,-23.34 11.27,-6.52 -0.9,-2.58 16.56,1.51 -3,-37.23 2.35,-23.89 18.36,-39.28l3.87 -4.49c0.31,-0.35 1.15,-1.69 1.77,-2.51 12.11,10.23 -19.7,6.68 11.15,4.48 17.35,-1.24 7.91,1.24 17.92,-7.22 0.1,0.73 -0.1,1.26 -0.06,2.22l3.72 14.41 33.35 -11.57c-23.32,-13.29 -20.09,-5.01 -33.14,-31.73 24.89,26.54 26.41,9.14 43.87,0.71l-15.97 -19.64c-5.4,-6.37 -8.55,-10.07 -13.93,-16.91 24.64,-2.32 -8.72,8.06 13.08,2.79 16.98,-4.11 1.28,5.46 10.37,-13.5 9.2,-19.2 2.26,-21.33 25.48,-22.21 1.55,-0.05 11.81,1.48 17.1,1.06l1.61 -27.69c-18.88,-11.91 -7.56,1.84 -21.24,-15.21 18.8,-8.19 16.83,4.96 32.69,9.2l36.34 -1.28c1.37,-0.27 4.69,-1.47 6.01,-1.74 0.74,-0.14 2.22,-0.6 3,-0.72 0.81,-0.12 2.35,-0.39 3.22,-0.47l64.78 -11.3c8.85,-6.54 1.95,1.26 9.12,-9.56 -6.35,-13.85 -0.13,-3.83 -8.92,-10.91 -0.17,-0.13 -10.61,-5.01 -11.56,-5.45 19.74,-7.57 9.15,-11.73 38.38,-16.4 -4.57,-5.56 11.12,-27.4 -22.17,-12.1 13.71,-7.74 7.53,-10.37 12.24,-21.25 6.57,-15.18 -17.75,2.48 5.37,-8.5l-11.79 58.21c-0.84,1.48 -2.08,3.41 -3.01,5.17 65.44,-1.85 0.55,-20.51 56.61,-6.23l-3.6 -28.02c4.46,-72.22 -54.59,-153.71 -77,-210.52 -11.09,-4.95 -19.42,-23.34 -29.01,-36.16 -112.72,-150.82 -311.42,-239.49 -508.62,-219.2 -127.97,13.16 -159.17,48.77 -205.25,56.8z"/>
   <path class="fil2" d="M11206.17 6272.82c-23.95,47.14 -126.24,168.3 -168.84,204.04 -185.04,155.27 -341.46,235.87 -601.05,265.46 -80.59,9.19 -82.12,29.31 -148.15,103.41 -42.39,47.58 -67.76,73.89 -142.62,102.86 -217.31,84.07 -79.27,61.51 -152.23,99.29 -18.33,17.86 -29.74,29.94 -20.05,68.9 29.58,-16.5 14.54,-21.9 44.75,-13.45 19.53,5.46 14.87,-0.13 37.72,0.67 27.82,-23.33 231.4,-16.42 286.17,-14.48l98.67 -4.95c-41.81,-7.56 -86.88,-1.77 -131.43,-6.17 -22.29,-2.2 -38.41,-11.15 -58.58,-9.85 -31.44,2.02 -31.18,4.91 -63.6,0.6 5.33,-19.53 12.13,-24.35 24.08,-33.21 -6.23,-16.12 -8.88,-4.18 -14.27,-19.29 17.41,-12.03 20.5,-13.28 33.87,-28.06l-117.46 23.34c-6.55,26.99 -16.52,53.43 -56.2,31.31 -9.97,-5.55 -3.05,-0.37 -11.08,-7.89 35.6,-14.07 13.95,-4.78 36.8,2.46 18.61,-26.32 -11.59,-11.14 22.64,-31.11 33.45,-19.51 28.85,-6.11 106.64,-57.03 79.53,-52.06 54.15,-30.66 127.56,-96.12 57.24,-51.06 318.63,-84.44 364.33,-82.36 10.61,-10.89 12.52,-7 25.5,-18.7 23.53,-21.18 23.57,-31.48 66.57,-64.42 29.03,-22.25 74.26,-47.51 113.68,-66.49 37.56,-18.06 151.98,-62.02 168.96,-97.7l37.34 -58.42c13.75,-25.4 74.2,-80.48 98.76,-100.47 35.5,-28.88 82.86,-54.56 146.19,-47.65 3.5,55.37 -33.79,74.88 -49.02,111.65l63.49 -11.96c6.2,43.43 -39.43,74.92 -62.24,89.16 10.86,8.02 29.73,12.12 45.24,15.6 -6.87,9.8 -0.76,2.34 -9,10.09l-101.67 62.66 -10.73 10.18c6.58,5.23 6.62,4.01 9.55,6.37 13.12,10.58 -14.26,-12.94 6.54,5.49l-70.1 43.68c-0.69,25.3 2.96,6.77 4.31,31.82 -19.54,9.45 -45.6,20.98 -68.66,29.33 10.84,23.43 11.22,1.08 14.97,31.45 -18.43,8.99 -33.31,13.7 -60.54,15.15l8.6 45.57c-24.43,9.44 -70.06,44.94 -102.8,63.12 -35.46,19.68 -95.3,29.11 -120.18,44.15l115.99 -7.92c52.61,-6.67 160.13,-53.65 196.87,-83.76 11.3,-9.27 3.87,-0.7 11.55,-12.62 -21.02,-7.79 -51.46,-16.42 -64.53,-30.59 47.61,-29.02 105.72,-17.94 159.81,-36.68 -3.74,-9.5 1.95,-1.12 -6.35,-12.71 -20.94,0.41 -56.39,-1.45 -71.4,-11.53 45.52,-21.96 112.49,-13.4 151.94,-49.08 -20.84,-14.34 -48.18,-3.89 -91.21,-14.09 43.63,-20.34 156.98,-32.38 167.99,-80.41l-77.5 -0.22c4.7,-14.19 -3.35,-2.03 10.44,-13.9l109.03 -71.22c35.13,-24.28 86.78,-56.92 83.88,-113.09 -46.49,-0.59 -97.73,65.64 -136.47,47.45l108.36 -96.65c18.49,-18.43 32.34,-34.44 50.76,-52.94 34.53,-34.68 28.17,-40.97 46.04,-49.45 11.21,-30.13 34.54,-33.9 28.73,-69.66 -39.65,-11.27 -46.66,2.98 -66.6,23.71 -16.83,17.47 -30.83,33.78 -47.91,50.31 -20.4,19.73 -78.47,75.86 -110.5,85.53 10.86,-17.98 42.97,-50.67 59.63,-70.98 18.65,-22.74 36.58,-46.4 54.11,-71.22 19.41,-27.49 94.62,-125.68 84.29,-167.33 -64.53,-65.27 -125.73,133.14 -207.88,189.86 4.95,-13.48 186.27,-375.73 53.25,-358.92 -14.12,24.5 -34.9,113.46 -43.27,146.14 -11.92,46.58 -28.17,105.31 -54.09,134.21 -2.21,-65.25 35.63,-130.85 3.68,-199.72l-29.7 2.57c-10.6,15.98 -51.6,224.63 -136.84,341.58 -0.39,0.54 -1.96,3.48 -2.25,2.69 -0.28,-0.78 -1.49,1.77 -2.28,2.61z"/>
   <path class="fil2" d="M9023.55 6203.38l91.53 108.79c18.5,8.93 47.51,41.57 67.9,60.87l67.25 57.44c-32.67,18.75 -89.98,-40.3 -138.84,-46.59 12.08,89.94 170.72,138.77 224.75,168.68 1.35,0.74 5.55,3.56 6.48,4.15l5.76 4.68c-39.65,14.22 -86.98,-6.8 -128.36,1.03 30.69,55.72 119.44,38.53 160.8,59.84l6.36 4.6c-23.84,16.13 -71.2,9.5 -90.31,27.27 26.43,21.67 84.79,24.9 120.41,30.04l-32.55 17.02c-16.46,4.98 -17.39,3.1 -28.43,12.94 22.69,23.27 90.61,32.06 130.45,38.31 -25.23,19.34 -39.66,6.57 -57.59,28.72l257.64 101.05c51.92,10.11 88.02,27.18 148.56,29.42 -1.18,-0.87 -3.13,-3.39 -3.8,-2.24 -0.66,1.15 -2.93,-1.71 -3.86,-2.14 -4.94,-2.26 -6.8,-3.21 -12.24,-5.12l-279.29 -107.36c-19.46,-11.1 -8.61,-0.68 -18.56,-17.19l43.67 -28.92c0.79,-0.83 2.16,-2.34 3.08,-3.64 -49.25,-4.96 -71.1,-18.93 -106.21,-36 12.99,-22.07 22.79,-10.33 28.45,-37.56l-62.17 -20.83c-1.91,-32.67 4.05,-20.77 17.06,-41l-36.34 -16.53 1.31 -39.01c-38.32,-13.51 -100.72,-38.88 -110.66,-66.75l45.26 -4.67c-20.71,-23.38 -68.31,-59.91 -79.66,-91.99l52.59 -1.14c6.02,-53.35 -52.32,-100.59 -47.38,-117.94 23.4,-11.64 28.21,-1.95 49.83,4.32l14.76 -24.83c109.51,48.07 163.47,215.84 315.61,313.76 81.19,44.19 66.49,4.45 148.1,74.4 41.74,35.77 69.26,73.73 118.68,105.04 48.79,30.93 121.96,31.2 188.49,34.69 129.12,6.77 117.2,27.14 175.75,50.52 8.38,-20.22 32.09,-60.03 36.17,-81.16 -395.64,-18.61 -691,-196.8 -884.16,-528.08 -90.1,-161.14 -87.88,-290.52 -120.28,-296.92 -28.28,-5.59 -29.9,22.57 -30.86,48.75 -1.72,47.11 9.88,102.72 16.97,148.62l-20.91 -30.81c-31.17,-66.29 -48.37,-176.39 -74.65,-246.73 -86.07,-14.51 -38.74,139.31 -24.78,183.13 21.83,68.47 54.52,117.18 76.16,175.73 -63.59,-27.54 -144.99,-252.72 -204.65,-194.31 -27.22,26.64 61.57,143.97 77.72,167.47l115.61 147.29c-34.71,-11.64 -88.69,-65.6 -110.6,-86.99 -54.2,-52.88 -68.79,-91.09 -112.14,-70.91 -4.28,19.96 -0.41,21.98 6.12,38.79z"/>
   <path class="fil2 str0" d="M10482.03 6305l87.68 -25.39 34.83 -22.84c15.73,-8.18 22.75,-12.13 37.91,-22.1 71.29,-46.81 128.33,-101.16 175.77,-178.74 75.85,-124.01 92.88,-216.45 81.37,-389.14l-6.81 -12.78 3.6 28.02c-56.06,-14.28 8.83,4.38 -56.61,6.23 0.93,-1.76 2.17,-3.69 3.01,-5.17l11.79 -58.21c-23.12,10.98 1.2,-6.68 -5.37,8.5 -4.71,10.88 1.47,13.51 -12.24,21.25 33.29,-15.3 17.6,6.54 22.17,12.1 -29.23,4.67 -18.64,8.83 -38.38,16.4 0.95,0.44 11.39,5.32 11.56,5.45 8.79,7.08 2.57,-2.94 8.92,10.91 -7.17,10.82 -0.27,3.02 -9.12,9.56l-64.78 11.3c-0.87,0.08 -2.41,0.35 -3.22,0.47 -0.78,0.12 -2.26,0.58 -3,0.72 -1.32,0.27 -4.64,1.47 -6.01,1.74l-36.34 1.28c-15.86,-4.24 -13.89,-17.39 -32.69,-9.2 13.68,17.05 2.36,3.3 21.24,15.21l-1.61 27.69c-5.29,0.42 -15.55,-1.11 -17.1,-1.06 -23.22,0.88 -16.28,3.01 -25.48,22.21 -9.09,18.96 6.61,9.39 -10.37,13.5 -21.8,5.27 11.56,-5.11 -13.08,-2.79 5.38,6.84 8.53,10.54 13.93,16.91l15.97 19.64c-17.46,8.43 -18.98,25.83 -43.87,-0.71 13.05,26.72 9.82,18.44 33.14,31.73l-33.35 11.57 -3.72 -14.41c-0.04,-0.96 0.16,-1.49 0.06,-2.22 -10.01,8.46 -0.57,5.98 -17.92,7.22 -30.85,2.2 0.96,5.75 -11.15,-4.48 -0.62,0.82 -1.46,2.16 -1.77,2.51l-3.87 4.49c-16.01,15.39 -21.36,2.05 -18.36,39.28 -17.46,-4.09 -5.29,-8.03 -16.56,-1.51 8.05,1.31 12.09,15.26 12.46,23.34 0.03,0.44 -0.03,2.07 -0.05,2.44l-2.51 5.44c3.23,5.52 -5.79,5.76 3.26,-0.58l9.39 -12.28c0.21,-1.45 0.97,-2.04 1.65,-2.92 25.61,-1.49 29.96,0.23 49.09,-13.35 8.8,19.51 -5.06,7.4 9.82,21.34 7.05,-12.88 1.99,-8.34 12.89,-9.6 20,-2.33 18.04,12.14 38.09,4.78 23.36,-8.59 21.87,3.88 36.43,-7.28l47.28 -4.13c1.7,-0.61 24.91,-17.6 32.79,5.59l0.79 7.62c0.01,0.62 -3.57,11.53 -4.03,12.82 17.6,-4.37 7.73,-5.24 16.48,-4.76 -3.75,25.02 -28.9,25.54 -48.72,37.73 -0.35,-0.64 0.22,-1.92 0.24,-2.16l0.41 -6.15c-1.74,-7.38 9.41,3.07 -5.35,-6.63l-28.03 -19.01c-18.43,37.41 4.94,33.14 -10.88,24.42 -7.36,12.23 -15.3,13.12 -26.07,25.63 2.14,-11.98 2.71,-5.91 7.4,-13.31l12.21 -18.67c-33.91,5.08 -20.98,6.78 -39.78,25.05l-11.03 9.39c-11.17,4.42 -5.11,3.35 -19.85,-1.82 13.12,-18.04 11.67,-4.18 19.3,-21.53 -12,3.47 -13.25,2.85 -23.52,8.25l-59.05 11.59 4.01 -20.74c-8.38,12.09 -1.8,5.47 -13.23,11.6 17.46,7.56 8.8,3.37 22.08,12.23 -9.59,8.99 14.93,17.3 -17.43,8.14 -4.85,6.98 -0.06,-6.75 -15.18,-12.71 -14.1,-5.57 -24.16,-1.59 -38.35,1.6l7.08 -16.1c6.48,-14.36 1.05,7.92 4.25,-9.52l-31.81 -33.07c-0.4,-0.41 -1.4,-1.61 -1.83,-1.97l-13.76 -5.48c-7.16,10.26 -3.31,12.11 -18.85,17.4l8.02 -26.58c5.97,-11.17 7.82,15.35 9.26,-15.51 1.18,0.95 2.39,2.63 3.11,3.28 0.69,0.62 2.26,2.33 3.08,3.03l14.8 7.81c-6.73,-26.5 -31.14,-25.59 -48.96,-24.02 -12.25,1.1 -8.52,0.75 -25.02,-1.37l-0.87 -5.05c-0.15,-0.51 -0.51,-2.19 -0.7,-2.78 -0.2,-0.61 -0.62,-2.27 -0.89,-2.93l-10.73 -14.03c-15.5,-10.76 -13.93,-2.23 -31.55,-13.3 1.09,-0.88 2.84,-1.73 3.6,-2.23l18.62 -14.13 -45.53 -22.98c0.25,-0.04 13.64,-2.02 14.94,-2.15 17.99,-1.72 37.02,-1.77 47.11,-22.44 -8.68,7.82 -36.29,16.71 -53.99,15.88 -7.28,-9.93 -11.76,-17.6 -14.11,-29.59 5.15,24.82 -5.76,17.67 -7.7,20.17 -0.85,-1.2 -1.26,-3.28 -1.57,-4.12l-2.69 -7.31c-3.76,-9.9 0.52,-0.86 -3.15,-8.16l-9.68 -15.23 29.4 0.89c0.53,-1.24 2.4,-0.32 3.52,-0.73l-43.11 -30.28c1.22,15.19 -4.6,22.91 -6.14,34.33 -0.17,1.25 -0.11,4.89 -0.02,5.88 0.04,0.4 0.26,1.87 0.34,2.22 0.08,0.28 0.43,1.5 0.55,1.73l13.92 7.34c-2.34,43.39 1.42,0.61 -10.84,33.73 16.33,-1.12 26.72,-7.45 38.51,-0.99 -6.02,19.64 -7.72,14 -17.94,21 -1.03,0.71 -2.56,1.33 -3.57,1.95 -7.13,4.45 -13.04,7.66 -15.76,9.78 12.94,10.76 12.1,4.46 25.31,12.65l18.59 17.58c0.51,-0.97 1.84,2.48 2.91,3.59 -18.49,3.25 -16.8,7.98 -29.92,5.46 -17.22,-3.29 -0.7,4.96 -17.93,-15.53 -17.73,24.48 -14.87,7.4 -7.28,19.7 0.43,0.71 2.89,4.25 3.28,3.24 0.44,-1.11 2.56,2.19 3.84,3.28 -17.48,2.29 -19.31,3.23 -28.56,12.57 22.5,0.6 25,-1.31 41.62,2.95l0 -19.89c16.71,7.79 19.26,8.65 42.65,13.81 -5.9,-8.86 -4.1,-19.17 0.43,-25.94 7.78,6.42 14.27,6.88 19.42,19.92l0.85 9.84c-1.05,18.43 -10.44,22.03 24.29,28.56 -10.46,21.44 -7.92,0.97 -14.48,19.07l21.36 7.38c1.24,0.49 2.56,1.32 3.78,1.76 11.1,3.98 38.49,-7.43 43.51,15.82 17.18,-8.76 28.34,-10.73 36.13,3.73 17.75,32.97 -23.35,14.14 -29.07,14.96 -42.32,6.16 2.76,16.24 -39.79,14.53l-0.47 -16.38c-5.54,-12.72 -15.84,-10.56 -26.8,-19.44 -14.37,18.7 -8.41,17.73 -18.29,34.52l-47.14 -3.1c-44.35,-7.14 7.09,3.98 -37.5,6.14 13.39,19.31 17.41,-0.59 8.3,33.92 -0.43,1.62 -0.82,3.09 -1.37,4.62 -7.75,21.52 1.41,11.51 -12.18,17.3 8.03,5.73 -2.73,-12.65 9.86,2.07 8.14,9.52 6.67,-10.46 2.43,7.7 -2.17,9.29 3.41,-2.1 -3.41,6.48 -13.92,17.54 -25.79,3.6 -29.2,28.87l11.17 11.09c2.46,5.05 11.87,2.24 17.28,14.44 -15.48,4.82 -19.37,8.73 -34.08,-0.39l9.41 16.53c0.54,-1.1 2.62,2.58 3.85,3.96 -36.08,3.58 -13.05,2.25 -22.8,9.55 -14.43,10.8 -21.49,33.04 -20.93,51.09 26.97,16.09 27.96,-6.98 37.28,15.54 5.6,13.57 4.95,30.58 -2.11,41.3 9.88,0.69 9.63,-0.05 14.89,3.74 0.45,-0.54 0.52,-1.77 0.61,-1.99 0.1,-0.24 0.55,-1.74 0.71,-2.03 5.01,-10.11 -9.28,-1.79 11.71,-13.64 0.62,0.25 31.51,1.23 4.99,17.64 11.47,-18.84 8.82,-8.37 30.49,-18.83 -16.23,-7.62 -9.57,-19.75 -41.81,-4.73 -8.28,-8.7 -8.28,-18.05 -9.25,-33.06 29.7,11.26 -0.98,-0.78 16.12,19.41l18.36 -10.83c0.83,-2.39 3.05,-2.1 4.53,-3.23l-6.95 -22.49c-2.12,-15.08 -1.72,-7.18 0.27,-23.34l34.17 -1.92 6.04 21.54c-10.24,-8.31 -24.2,-8.31 -38.12,-11.36 2.16,5.2 3.51,8.77 6.56,14.93 0.56,1.12 1.47,2.46 2.02,3.61 11.58,23.66 1.35,32.13 8.65,45.39l18.42 -30.46c6.63,16.49 3.1,20.73 13.54,23.51 1.54,-0.96 4.1,-5.07 4.92,-5.99l4.35 -5.21c0.55,-0.45 1.65,-1.64 2.24,-1.98 9.82,-5.75 -4.52,-3.48 18.62,-0.81 -9.16,-12.01 -0.01,-10.33 -19.09,-10.89 29.12,-8.26 6.02,-3.9 34.34,3.82 -0.95,1.04 -2.33,2.36 -3.01,2.99l-6.04 5.76c-14.49,12.58 -17.59,15.66 -39.01,16.52l8.06 23.62c0.06,-0.39 -0.43,1.29 -0.8,1.86 1.45,-0.21 21.49,-11.09 28.9,13.67l5.46 -22.53 13.92 17.63c7.62,6.58 9.03,-2.32 22.98,-5.21 -4.69,16.12 -13.66,17.35 6.74,23.87 5.3,-16.03 -1.14,4.94 1.54,-12.2 1.92,-12.22 -2.1,-0.53 3.33,-13.92l26.81 15.28 -16.97 16.13z"/>
   <path class="fil2 str0" d="M9773.82 5669.68c-42.38,93.85 31.2,353.18 93.58,407.81 2.13,-14.52 0.91,-10.04 4.56,-20.3 6.36,-17.93 2.83,-8.02 8.98,-16.68 10.11,14.86 13.56,17.08 30.03,21.95l0 -3.95c0.26,-0.71 -9.75,10 1.84,-4.13l76.17 -48.54c14.08,-8.87 5.16,12.97 13.11,-8.11 0.92,-2.41 3.29,-1.74 4.69,-2.95 -39.76,-6.85 0.18,-19.15 -33.59,-24.83l3.69 29.17c-21.7,2 -42.71,13.35 -63.23,5.88 1.4,-3.64 0.49,-3.44 -4.16,-10.93 1.04,-0.68 2.99,-0.94 3.59,-1.05 25.37,-4.44 2.26,5.24 12.22,0.98l3.31 -14.06c-0.02,-0.01 -8.73,-3.9 -10.13,-4.58l-10.52 -5.29c-11.98,-4.57 -4.36,-4.31 -19.55,-3.3 20.19,-11.09 22.26,-8.48 34.48,-20.85 13.62,-13.78 0.67,-10.1 -3.88,-14.29l-17.66 -19.98c-6.63,-11.19 -5.05,-1.67 -7.93,-19 9.82,-3.97 -5.76,-2.24 11.41,-2.71 29.89,-0.82 -3.92,-5.72 8.41,3.21l2.08 -23.07c15.67,8.57 23.44,26.82 33.83,37.52 14.39,-8.27 1.25,0.07 11.09,-10.1 1.02,-1.07 4.94,-5.38 5.76,-6.27l-4.36 -13.86c10.51,-1.66 9.37,-0.55 14.78,-5.2 4.75,20.39 -7.53,6.15 16.58,17.11 -34.58,11.99 -8.89,-1.41 -22.35,14.1l4.38 18.84c13.7,-3.01 19.24,5.26 25.83,14.31l17.23 21.94c0.45,-0.96 2.14,1.89 3.18,2.87 -12.1,9.85 -15.38,16.72 -17.55,36.39 16.03,-7.5 8.15,-5.95 13.47,-10l6.38 -5.12c18.72,-13.53 39.11,-1.3 51.81,-26.72 -7.59,-7.91 -60.26,-36.91 -70.4,-39.82l0.58 -27.7c5.82,-3.12 28.86,-3.95 31.39,-10.64 10.02,-26.48 -4.47,3.83 -41.43,-6.73 16.55,-8.08 22.96,-3.11 34.35,-14.37 19.72,-19.47 3.14,-8.01 12.61,-23.23 12.33,-19.83 -12.77,3.59 4.85,-5.03l7.94 64.09c4.51,12.86 2.09,8.63 9.39,18.28 13.84,18.31 6.4,6.21 12.04,10.09 0.51,0.35 1.85,1.11 2.38,1.47l10.69 7.94c3.2,2.46 5.15,4 9.35,7.3l28.28 -10.73c20.84,-5.46 -4.12,-6.83 26.62,-16.33 -16.76,-6.27 -3.93,3.2 -9.13,-9.03 -10.22,-24.04 1.25,-6.36 1.88,-6.73 -16.81,3.44 -2.87,13.34 -30.3,-0.06l16.09 -12.37c18.1,-12.84 20.53,-10.66 42.69,-17.17 -8.83,-9.56 -4.67,8.87 -2.5,-11.26 0.11,-1.03 0.61,-2.91 0.81,-3.92 0.22,-1.17 1.11,-3.43 1.35,-4.43l-25.17 -26c0.92,-0.42 2.57,0.03 3.04,0.05l17.05 -0.22c0.66,-0.23 2.11,-1.05 2.77,-1.36l5.9 -3.69c1.26,-0.6 5.2,-2.57 6.46,-3.02 6.2,-2.24 13.37,1.22 14.23,-10.4l1.16 -23.7c18.12,-0.77 26.3,3.51 41.88,9.65l17.82 7.69c1.09,-14.03 7.04,-24.15 13.82,-31.48l9.45 -8.11c0.8,-0.72 2.18,-1.74 2.9,-2.41 3.6,-3.29 5.56,-5.95 8.38,-9.37 -7.81,-1.01 7.23,7.49 -18.09,-0.94 14.19,-23.68 5.43,-2.93 27.76,-20.84 13.68,-10.98 2.02,-16.41 21.16,-18.02 20.67,-1.73 2.74,-2.71 11.86,3.88l10.03 17.91c9.37,-32.4 4.42,-23.75 0,-48.27l-32.73 16.16c-1.9,-9.34 4.48,-18.11 11.25,-16.66l-26.98 4.27c-10.79,18.85 -16.11,14.66 -20.07,39.86l-9.36 -5.77c-15.09,-9.56 -18.26,-8.11 -39.48,-4.05 3.58,-11.25 4.25,-11.36 3.9,-16.6l-9.66 -20.94c-6.35,-2.98 -11.28,-1.32 -18.16,-0.94l7.84 -18.16c0.62,-2.05 1.08,-3.12 1.52,-5.11 3.54,-15.83 -4.43,-27.43 1.45,-43.46 -18.59,-9.98 -17.6,13.31 -21.59,7.4 -0.99,-1.47 -3.05,2.9 -4.41,4.23l-1.7 -23.12 -49.09 11.85c-11.52,-16.52 -5.74,-23.19 -23.77,-27.44 -14.06,-3.32 -13.08,2.85 -12.88,12.33 0.11,4.58 1.54,16.92 17.14,20.06 12.78,2.56 9.31,-8.86 30.38,8.02l-31.12 9.79c8.9,5.1 22.14,6.79 30.82,15.48 14.49,14.48 -3.87,2.23 4.68,18.62 21.29,-6.08 -12.48,-8.66 24.65,-5.37 15.26,1.34 -3.71,2.61 30.1,0l-6.27 38.97c0.04,1.33 0.11,5.05 0.1,6.25l-6.42 23.39c-0.54,0.98 -2.42,5.2 -2.86,4.23 -0.45,-1.02 -1.87,3.17 -3.16,4.45 -0.32,-19.08 -4.28,-16.91 -4.59,-25.08l3.5 -27.56c-16.02,-2.02 -33.76,-4.95 -45.48,-1.69l8.95 34.1c-10.89,-1.97 -17.31,-1.13 -24.68,-7.5l-1.17 -24.88c0.49,-20.61 -3.67,-10 3.49,-16.59l-23.84 1.47c32.88,-16.8 9.24,-21.8 9.22,-21.9 -15.76,-7.58 -3.31,0.36 -14.97,-10.07l-1.63 7.79c-5.31,18.44 -4.84,17.37 -17.9,23.65 -29.81,14.36 17.49,-19.72 -6.2,2.25l-5.46 12.59c-0.17,-0.87 -0.74,2.62 -1.54,3.67 -22.08,-11.85 -5.83,-11.97 -21,-24.12 9.32,12.44 0.61,21.34 -4.12,28.99 -41.55,2.41 -34.04,-17.27 -30.82,-44.41 -37.22,0.72 9.58,3.25 -20.41,8.54 -14.32,-12.34 -2.52,3.04 -6.21,-13.17 -6.31,-27.62 6.26,8.55 0.75,-9.61 -16.46,2.19 -1.62,-1.84 -6.31,6.55l-4.6 11.93c-10.47,-3.29 -13.66,-4.94 -27.3,-4.63l-1.15 21.06c-1.28,-0.02 -3.03,-0.71 -3.73,-0.9l-18.52 -4.88c-2.27,3.24 -6.12,12.76 -6.59,14.01 -0.21,0.57 4.98,-10.86 -3.8,10.23 -0.37,0.89 -1.77,5.09 -2.06,4.2 -0.32,-0.97 -1.35,3.12 -2.3,4.51l-12.3 -13.69c-4.35,-4.04 -7.91,-6.74 -13,-9.13 -0.99,-0.46 -15.78,-4.7 -15.8,-4.7 -42.23,-7.69 -49.58,9.78 -62.54,28.36 -25.64,-11.48 -31.8,3.08 -33.51,-24.31z"/>
   <path class="fil2" d="M10507.24 7220.72l25.51 -47.92c21.38,18.61 5.13,27.78 32.74,45.2 39.8,-3.54 36.15,-25.73 60,-45.41 16.98,12.84 27.43,42.1 60.74,22.99 13.68,-7.84 29.64,-35.93 42.9,-50.07l4.08 6.78c0.51,0.9 1.36,2.51 1.92,3.51 17.71,31.37 -10.68,-15.1 3.74,7.26 32.48,50.4 54.7,-30.56 72.07,-50.69 35.53,8.81 25.93,27.93 76.28,26.73 27.23,-24.01 21.74,-38.98 28.21,-79.08 37.87,36.43 147.79,41.81 135.65,-44.7 -41.88,-1.83 -198.51,-10.03 -224.6,-24 -32.55,9.52 -80.31,-0.02 -119.17,8.49 -13.38,30.73 -9.03,34.25 -46.11,41.81 7.75,32.37 3.31,36 -23.15,50.64 -131.57,72.82 -466.66,-28.77 -486.7,133.29 57.03,6.56 80.8,-34.2 118.32,-47.92l1.04 52.85c0.03,0.01 9.94,6.88 28.66,-1.74 7.71,-3.56 15.61,-12.81 20.85,-18.09 9.62,-9.68 28.35,-32.9 37.13,-37.68l0.16 60.51c58,5.26 59.15,-46.6 94.92,-61.11l-1.17 53.05c20.03,7.51 37.86,1.51 55.98,-4.7z"/>
   <path class="fil2" d="M10674.02 4938.05c-14.91,10.69 -60.58,74.13 -73.74,92.49 -17.82,24.84 -70.39,82.49 -33.59,116.85 96.54,90.13 108.48,-191.91 107.33,-209.34z"/>
   <path class="fil3" d="M9453.65 5754.04c33.15,18.91 81.82,25.9 122.29,36.01 42.68,10.69 113.85,28.03 112.87,-35.99 -0.91,-60.25 -62.66,-46.09 -108.15,-35.09 -40.06,9.69 -97.88,16.34 -127.01,35.07z"/>
   <path class="fil3" d="M9468.68 5923.14c18.89,12.8 48.97,9.59 71.34,10.87 49.74,2.84 212.22,19.61 154.5,-72.54 -34.15,-54.54 -180.23,43.61 -225.84,61.67z"/>
   <path class="fil3" d="M9468.55 5580.33c16.98,18.56 77.6,42.33 107.19,56.1 31.24,14.53 91.92,49.55 117.2,14.06 16.11,-22.63 27.37,-80.91 -65.52,-79.83 -53.37,0.63 -107.16,5.27 -158.87,9.67z"/>
   <path class="fil2" d="M10509.48 4887.32c-10.66,8.86 -46.57,86.55 -55.7,105.82 -13.71,28.94 -49.32,90.06 -14.33,117.98 16.13,12.86 80.57,35.28 79.88,-66.16 -0.32,-49.05 -3.42,-109.21 -9.85,-157.64z"/>
   <path class="fil2" d="M11202.55 5927.86c-17.2,-15.86 -79.52,-43.34 -106.43,-55.3 -34.65,-15.4 -96.36,-50.89 -119.11,-12.49 -65.05,109.77 174.22,73.88 225.54,67.79z"/>
   <path class="fil2" d="M9712.45 6377.39c35.33,-11.47 85.08,-45.3 117.75,-65.81 28.73,-18.02 95.36,-52.09 48.05,-99.35 -46.61,-46.57 -80.17,17.21 -100.21,47.18 -14.55,21.76 -59.43,95.73 -65.59,117.98z"/>
   <path class="fil2" d="M10168.64 4888.97l-10.63 31.61c-6.17,71.82 -27.98,243.51 68.41,194.38 60.22,-30.69 -42.26,-177.9 -57.78,-225.99z"/>
   <path class="fil2" d="M10979.02 5581.63c-12.56,38.32 -16.94,92.82 47.89,82.82 24.29,-3.75 87.17,-36.82 114.59,-47.71 15.08,-12 43.69,-19.1 61.99,-35.56 -72.12,-11.11 -163.15,-15.72 -224.47,0.45z"/>
   <path class="fil2" d="M11150.53 6093.08c-13.35,-21.17 -72.4,-61.63 -94.37,-77.11 -23.32,-16.42 -79.15,-65.99 -112.39,-30.96 -25.08,26.42 -30.02,73.13 55.52,88.17 46.08,8.11 104.13,17.79 151.24,19.9z"/>
   <path class="fil2" d="M10336.41 4871.77c-16.41,24.91 -28.43,91.19 -36.52,126.38 -10.14,44.13 -25.74,105.69 31.12,108.98 65.11,3.76 52.21,-60.4 40.6,-108.44 -7.35,-30.4 -23.54,-104.32 -35.2,-126.92z"/>
   <path class="fil2" d="M9996.69 6568.62l20.76 -20.86c8.82,-10.95 11.55,-14.52 19.23,-24.29 31.87,-40.5 108.15,-124.81 68.72,-161.86 -15.36,-14.43 -44.37,-18.94 -62.66,-6.75 -31.14,20.74 -43.32,177.12 -46.05,213.76z"/>
   <path class="fil2" d="M10168.71 6618.76c14.31,-45.29 117.89,-193.83 57.12,-224.94 -59.98,-30.71 -74.17,24.36 -73.66,74.71 0.64,62.63 3.64,121.68 11.44,140.85 0.67,1.64 1.85,3.39 2.45,4.71 0.6,1.34 1.56,3.25 2.65,4.67z"/>
   <path class="fil2" d="M10505.88 6620.45c8.47,-16.24 48.8,-296.44 -62.38,-224.66 -50.31,32.48 30.51,161.95 62.38,224.66z"/>
   <path class="fil2" d="M9996.71 4939.74c1.62,33.77 16.78,190.31 42.21,211.87 18.8,15.94 49.58,11.46 66.16,-5.41 37.89,-38.59 -32.23,-115.04 -66.08,-158.36l-42.29 -48.1z"/>
   <path class="fil2" d="M9710.25 5129.17c6.73,22.05 50.44,92.83 65.53,116.37 20.16,31.45 57.9,97.68 103.11,50.87 48.67,-50.37 -24.45,-83.31 -52.78,-101.16 -35.18,-22.15 -79.76,-50.82 -115.86,-66.08z"/>
   <path class="fil2" d="M10336.41 6636.24c9.16,-16.28 28.12,-96.65 34.16,-122.62 10.03,-43.06 30.21,-111.56 -34.16,-112.2 -63.3,-0.63 -47.24,61.57 -36.4,108.97 6.73,29.42 22.68,105.91 36.4,125.85z"/>
   <path class="fil2" d="M9637.72 6195.81c-9.77,24.58 -23.97,25.06 -37.1,49.11 31.13,-4.19 178.42,-51.48 198.52,-79.27 8,-11.08 10.58,-20.05 5.2,-37.54l-15.97 -29.82c-48.63,-14.48 -66.45,9 -88.98,33.32 -17.2,18.54 -42.18,49.58 -61.67,64.2z"/>
   <path class="fil2" d="M10866.35 5384.11l3.62 10.67c47.53,40.72 64.37,24.1 112.96,-30.76 30.65,-34.61 65.12,-63.9 88.78,-100.62 -30.26,3.75 -90.65,28.27 -122.47,39.87 -44.03,16.07 -89.96,23.86 -82.89,80.84z"/>
   <path class="fil2" d="M10557.8 6374.91c-10.6,41.74 21.49,73.55 47.37,108.6 17.59,23.86 49.01,71.11 68.87,87.12 2.27,-51.33 -18.28,-186.58 -45.95,-215.28 -29.01,-16.95 -56.23,-4.65 -70.29,19.56z"/>
   <path class="fil2" d="M9996.48 5165.72c-9.24,-19.69 -52,-62.46 -68.54,-77.67 -14.15,-12.99 -23.6,-18.56 -38.36,-32.65 -11.96,-11.41 -29.46,-19.09 -33.18,-32.73 -10.29,7.42 -21.06,-22.48 5.14,55.09 12.52,37.08 42.46,138.93 76.7,147.48 41.68,1.89 62.73,-18.71 58.24,-59.52z"/>
   <path class="fil2" d="M10794.48 5126.06l32.42 -109.75c-30.95,29.47 -138.84,114.29 -150.38,145.94 -17.13,46.98 39.12,80.4 71.86,54.92 25.55,-19.88 28.61,-64.08 46.1,-91.11z"/>
   <path class="fil2" d="M10938.25 5515.94c12.56,12.02 19.74,20.62 45.27,19 33.28,-10.19 123.37,-77.07 156.25,-106.87 1,-0.9 2.18,-1.98 3.12,-2.91l8.84 -10.52c-46.35,4.42 -102.57,11.23 -147.17,19.86 -49.86,9.64 -95.6,22.4 -66.31,81.44z"/>
   <path class="fil2" d="M9740.35 5472.8c-10.79,-19.8 -14.29,-17.03 -23.93,-27.33 -54.57,-9.47 -140.66,-30.53 -197.06,-29.03 26.77,24.34 143.6,124.87 183.7,119.45 27.64,-3.74 41.65,-32.97 37.29,-63.09z"/>
   <path class="fil2" d="M10886.86 5167.79c-18.81,17.18 -60.99,36.34 -84.08,54.42 -53.44,41.84 -10.26,62.81 -2.72,84.33 60.19,16.47 76.43,-30.89 99.88,-68.82 23,-37.23 44.38,-72.73 62.44,-109.16l-75.52 39.23z"/>
   <path class="fil2" d="M9845.07 6487.24l96.34 -80.92c19.47,-20.39 88.23,-66.74 42.31,-108.64 -50.81,-46.37 -77.91,15.41 -93.01,52.49 -14.83,36.47 -38.36,98.46 -45.64,137.07z"/>
   <path class="fil3" d="M10898.95 6350.56l61.85 27.22c-34.12,-52.7 -84.52,-180.21 -133.68,-181.09 -20.89,-0.38 -38.32,16.17 -44.81,31.02 -24.51,55.92 70.85,81.17 110.38,116.56l6.26 6.29z"/>
   <path class="fil2" d="M11041.68 6237.58l24.87 7.81c-4.38,-17.99 -58.41,-77.3 -75.7,-93.23 -19.78,-18.26 -59.38,-79.64 -103.42,-54.59 -15.75,8.97 -56.19,62.75 30.13,95.53 40.77,15.49 82.82,29.7 124.12,44.48z"/>
   <path class="fil2" d="M9742.78 5414.64c37.74,5.92 60.68,-10.12 63.42,-43.36 2.77,-33.5 -22.83,-44.13 -51.21,-55.66 -22.8,-9.26 -136.89,-52.59 -154.32,-49.92 11.85,15.48 22.71,24.21 34.08,39.03 13.22,17.24 17.68,20.9 33.47,37.53 29.82,31.4 38.31,43.37 74.56,72.38z"/>
   <path class="fil2" d="M10674.82 6341.93c14.28,28.51 119.74,129.68 152.28,147.58l-24.26 -78.75c-13.76,-30.47 -29.42,-88.71 -46.76,-111 -24.69,-31.76 -88.14,-16.32 -81.26,42.17z"/>
   <path class="fil2" d="M9521.57 6085.03c8.48,5.78 -0.7,2.9 12.57,5.28l57.88 -5.37c31.72,-4.1 115.96,-13.4 136.95,-32.88 17.41,-16.17 14.67,-45.87 2.05,-63.54 -29.54,-41.33 -88.77,8.84 -111.6,25.07 -32.14,22.85 -67.22,56.09 -97.85,71.44z"/>
   <path class="fil2" d="M11217.82 5754.04c-14.53,-8.24 -98.94,-29.05 -121.78,-33.9 -46.92,-9.95 -112.4,-27.59 -112.48,33.89 -0.07,59.51 62.2,46.49 108.63,35.41 29.16,-6.96 104.91,-22.37 125.63,-35.4z"/>
   <path class="fil4" d="M19426.62 6676.91c-106.86,47.5 -273.1,118.74 -308.72,136.55 -53.43,29.69 -112.8,94.99 -112.8,231.54l0 558.07c0,130.61 -100.93,231.54 -231.54,231.54 -124.68,0 -225.6,-100.93 -225.6,-231.54l0 -3033.77c0,-124.68 100.92,-225.61 225.6,-225.61 130.61,0 231.54,100.93 231.54,225.61l0 932.1 308.72 -142.49c53.43,-23.75 112.8,-89.05 112.8,-225.6l0 -635.25c0,-284.98 -225.6,-522.46 -510.57,-528.4l-261.23 0c-296.85,0 -534.33,237.48 -534.33,528.4l0 3182.19c0,290.91 237.48,528.39 534.33,528.39l261.23 0c284.97,-11.87 510.57,-243.41 510.57,-528.39l0 -1003.34z"/>
   <path class="fil4" d="M3198.9 4044.83l0 4066.81c5.93,29.68 23.74,89.06 124.67,89.06l302.79 0 0 -3989.63c0,-71.24 -47.5,-166.24 -172.18,-166.24l-255.28 0z"/>
   <path class="fil4" d="M5632.38 4044.87l-1697.97 0c-71.24,0 -130.61,59.38 -130.61,130.62l0 290.91 599.63 0 0 3645.28c0,29.68 17.81,89.06 118.74,89.06l302.78 0 0 -3633.41c5.94,-53.43 47.5,-100.93 106.87,-100.93l332.47 0c136.55,0 201.85,-59.37 225.6,-112.8l142.49 -308.73z"/>
   <path class="fil4" d="M6713.17 4044.88l0 1828.58 -415.59 0c-100.93,0 -148.42,-29.68 -148.42,-148.42l0 -1680.16 -255.29 0c-130.61,0 -172.18,94.99 -172.18,166.24l0 3989.62 427.47 0 0 -1905.75 463.08 0c53.43,0 94.99,41.56 100.93,94.99l0 1810.76 427.45 0 0 -3989.62c0,-71.25 -41.55,-166.24 -172.17,-166.24l-255.28 0z"/>
   <path class="fil4" d="M2990.14 4044.88l-338.4 0c-89.05,0 -118.74,53.44 -124.67,83.12l-273.11 2279.79 -279.03 -1769.21 -53.43 0c-273.1,0 -344.34,89.05 -368.09,332.47l-207.8 1436.74 -284.97 -2273.85c-5.93,-29.69 -29.68,-89.06 -130.61,-89.06l-326.53 0 516.52 4155.86 391.83 0 284.97 -2107.61 290.91 2107.61 397.78 0 504.63 -4155.86z"/>
   <path class="fil4" d="M13597.49 4045.11l0 4066.81c5.93,29.68 23.74,89.05 124.67,89.05l302.79 0 0 -3989.62c0,-71.24 -47.5,-166.24 -172.18,-166.24l-255.28 0z"/>
   <path class="fil4" d="M16194.12 4045.51l-1697.97 0c-71.24,0 -130.61,59.37 -130.61,130.61l0 290.92 599.63 0 0 3645.28c0,29.68 17.81,89.05 118.74,89.05l302.78 0 0 -3633.4c5.94,-53.43 47.5,-100.93 106.87,-100.93l332.47 0c136.55,0 201.86,-59.37 225.6,-112.8l142.49 -308.73z"/>
   <path class="fil4" d="M17489.9 6122.85c249.35,-77.19 243.41,-338.41 243.41,-338.41l0 -1217.07c-5.93,-290.92 -237.48,-522.46 -528.38,-522.46l-771.81 0 0 4155.87 771.81 0c290.9,0 522.45,-231.55 528.38,-522.45l0 -1217.08c0,0 5.94,-261.23 -243.41,-338.4zm-184.04 -439.34c0,189.99 -106.87,243.42 -219.67,243.42l-231.54 0 0 -1454.55 231.54 0c112.8,0 219.67,59.37 219.67,213.73l0 997.4zm0 1876.08c0,160.29 -106.87,219.66 -219.67,219.66l-231.54 0 0 -1460.49 231.54 0c112.8,0 219.67,53.44 219.67,237.49l0 1003.34z"/>
  </g>
 </g>
</svg>
